<?xml version="1.0" encoding="UTF-8" standalone="no"?>
<svg xmlns="http://www.w3.org/2000/svg" xmlns:cc="http://creativecommons.org/ns#" xmlns:dc="http://purl.org/dc/elements/1.1/" xmlns:rdf="http://www.w3.org/1999/02/22-rdf-syntax-ns#" xmlns:svg="http://www.w3.org/2000/svg" fill="white" version="1.1" viewBox="0 0 1500 300">
    <path d="m 409.18,22.530007 c 0,1.14 0.1,2.29 0.1,3.44 V 253.54 a 26.91,26.91 0 0 1 -6.76,0.18 c -0.06,-1.38 -0.16,-2.58 -0.16,-3.79 q 0,-111.72 0,-223.459993 c 0,-1.32 -0.05,-2.63 -0.08,-3.94 z"/>
    <path d="m 0.10999999,64.960007 c 0.89,0.07 1.79000001,0.2 2.68000001,0.2 7.24,0 14.47,0 21.700001,0 h 2.82 a 17.29,17.29 0 0 1 0.29,2.1 c 0,2.3 0,4.6 0,6.91 q 0,52.889993 0,105.779993 c 0,3.93 0,3.93 3.909999,3.94 L 63.07,184 h 2.35 c 0.700001,2.07 0.75,25 0,27.47 H 0 Z"/>
    <path d="m 158.37,65.170007 c 0.07,1.24 0.16,2 0.16,2.86 0,7.39 0,14.79 0,22.189997 0,0.5 0,1 -0.05,1.48 a 1.3,1.3 0 0 1 -1.44,1.34 h -1.73 c -9,0 -17.92,-0.24 -26.88,-0.06 -23,0.45 -39.18,15.419996 -42.67,36.299996 -2.09,12.56 -0.34,24.45 6.6,35.24 6.799998,10.55 16.73,16.47 29,18.51 6.94,1.15 13.94,0.68 20.92,0.65 5.33,0 10.66,0 16,0 0.62,1.71 0.8,24.22 0.2,27.5 a 18,18 0 0 1 -2,0.22 c -10.11,0 -20.24,0.39 -30.33,-0.11 -26.650002,-1.32 -47,-13.26 -60,-36.91 -5,-9.05 -7.42,-18.89 -8.27,-29.18 -1,-12 0.23,-23.68 4.58,-34.88 9.47,-24.349993 27.3,-38.789993 52.85,-43.809993 a 82.59,82.59 0 0 1 15.69,-1.35 c 8.14,0 16.28,0 24.42,0 z"/>
    <path d="M 172.65,211.37 V 106.72 h 27 c 0.06,1 0.18,2 0.18,3.07 q 0,35 0,70.06 c 0,0.74 0,1.48 0,2.22 -0.05,1.26 0.58,1.85 1.78,1.79 2.14,-0.09 4.28,-0.12 6.4,-0.37 a 45.13,45.13 0 0 0 17.7,-5.69 38.76,38.76 0 0 0 17.27,-20.23 51.66,51.66 0 0 0 -0.47,-39 41.86,41.86 0 0 0 -7.54,-11.84 10.39,10.39 0 0 1 1.7,-0.32 c 9.54,0 19.08,0 28.62,-0.05 a 2.84,2.84 0 0 1 3.07,2.16 80.46,80.46 0 0 1 5.12,21.75 c 1.17,13 -0.18,25.66 -5.19,37.72 -9.42,22.69 -26.33,36.58 -50.3,41.89 a 71.73,71.73 0 0 1 -15.67,1.58 h -26.63 c -0.96,0.03 -1.92,-0.09 -3.04,-0.09 z"/>
    <path d="m 284.13,106.86 c 2,-0.52 23.48,-0.62 26.15,-0.16 0,0.06 0.11,0.11 0.16,0.18 0.05,0.07 0.13,0.12 0.14,0.19 a 14.22,14.22 0 0 1 0.18,1.7 q 0,50.79 0,101.58 a 2.21,2.21 0 0 1 -0.21,0.66 c -1.89,0.62 -23.7,0.72 -26.21,0.13 -0.57,-1.77 -0.76,-100.77 -0.21,-104.28 z"/>
    <path d="m 259.27,92.650004 c -4.95,0.56 -84.37,0.33 -86.28,-0.24 V 65.410007 c 0.78,-0.09 1.49,-0.23 2.19,-0.24 9.29,0 18.59,-0.17 27.88,0 17.11,0.39 32.7,5.29 45.91,16.52 3.18,2.7 5.92,5.92 8.83,8.929997 a 19.9,19.9 0 0 1 1.47,2.03 z"/>
    <path d="m 283.87,92.690004 c 0,-9.199997 -0.11,-18.179997 0.08,-27.349997 1.08,-0.07 1.88,-0.16 2.68,-0.16 h 21.44 1.23 c 1,0 1.47,0.56 1.45,1.55 0,0.41 0,0.82 0,1.23 v 22.179997 c 0,0.41 0,0.82 0,1.23 a 1.31,1.31 0 0 1 -1.52,1.49 c -0.5,0 -1,0 -1.48,0 h -20.94 c -0.87,0.01 -1.75,-0.09 -2.94,-0.17 z"/>
    <path d="m 1210.55,288.99 c -0.77,-0.23 -1.54,-0.5 -2.32,-0.67 -4,-0.87 -7.73,-2.27 -10.66,-5.3 a 12.46,12.46 0 0 1 -3.74,-9.58 6.7,6.7 0 0 1 2.08,-4.83 c 2.37,-2.28 4.7,-4.6 7,-6.9 0.41,-0.41 0.84,-0.8 1.22,-1.22 1.8,-2 1.66,-2.65 -0.81,-3.66 a 12.86,12.86 0 0 1 -6.14,-4.75 16.2,16.2 0 0 1 -1.37,-2.88 c -0.64,-1.62 0,-2.77 1.31,-3.81 2.21,-1.71 4.34,-3.52 6.39,-5.41 a 19.65,19.65 0 0 0 2.23,-3 c -0.74,-0.58 -1.22,-1 -1.75,-1.36 -11.2,-7.28 -10.24,-22.25 -0.57,-29.53 5.24,-3.94 11.18,-4.94 17.52,-4.1 a 31.08,31.08 0 0 1 9.19,2.71 16.42,16.42 0 0 0 7.88,1.62 c 2.63,-0.11 5.26,-0.05 7.89,0 1.8,0 2.34,0.54 2.37,2.08 0,1.72 -0.74,2.78 -2.34,2.84 -2.38,0.1 -4.76,0.05 -7.15,0.07 a 11.67,11.67 0 0 0 -1.29,0.2 c 0,0.87 0,1.73 0,2.6 0,3.45 0.18,6.89 -0.86,10.27 -2.42,7.9 -7.82,12.39 -15.86,13.6 a 43.13,43.13 0 0 1 -8.58,0.14 c -3.55,-0.19 -7.91,3.84 -7.75,7.39 a 4.43,4.43 0 0 0 3,4.16 20.12,20.12 0 0 0 6.19,1.33 c 4.1,0.1 8.21,-0.3 12.32,-0.31 a 69.25,69.25 0 0 1 9.34,0.47 c 7.68,1 11.59,5.69 11.65,13.38 a 19.67,19.67 0 0 1 -5.92,14.18 c -5.28,5.5 -11.94,8.29 -19.3,9.64 -0.79,0.15 -1.56,0.42 -2.34,0.64 z m 9.93,-5.1 c 1.94,-0.23 3.92,-0.33 5.83,-0.74 5.06,-1.09 9.48,-3.29 12.15,-8 3.72,-6.58 0.71,-13.93 -6.51,-16.07 a 12.24,12.24 0 0 0 -1.67,-0.39 67.08,67.08 0 0 0 -16.93,0 10,10 0 0 0 -4.39,1.36 c -4,2.72 -6.18,6.58 -5.89,11.49 0.29,4.91 3,8.22 7.33,10.26 a 25.16,25.16 0 0 0 10.08,2.09 z m -14.52,-63.86 c 0.13,4.28 1.24,8.58 4.7,11.94 5.73,5.55 14.6,3.5 17.12,-4.05 a 21.91,21.91 0 0 0 -1.13,-16.77 9.93,9.93 0 0 0 -9.35,-6.13 c -4.38,0 -7.42,2.26 -9.39,6.06 a 19.43,19.43 0 0 0 -1.95,8.95 z"/>
    <path d="m 632.22,288.99 c -0.78,-0.22 -1.55,-0.48 -2.34,-0.64 -4.27,-0.87 -8.19,-2.4 -11.24,-5.69 a 12.92,12.92 0 0 1 -3.42,-7.49 7.55,7.55 0 0 1 2.26,-6.74 c 2.34,-2.19 4.6,-4.47 6.89,-6.71 0.35,-0.34 0.72,-0.68 1,-1 2.07,-2.22 2,-2.73 -0.79,-3.92 -3.28,-1.42 -5.92,-3.53 -7.17,-7 -0.83,-2.33 -0.59,-2.89 1.3,-4.43 2.16,-1.76 4.3,-3.56 6.35,-5.45 a 18.43,18.43 0 0 0 2.11,-2.83 18,18 0 0 0 -1.68,-1.37 c -11.61,-7.28 -10.51,-24 1.33,-30.9 5.8,-3.39 12,-3.72 18.36,-2.2 a 51.23,51.23 0 0 1 7,2.4 16.26,16.26 0 0 0 6.69,1.35 c 2.79,-0.09 5.59,0 8.38,0 2,0 2.31,0.33 2.37,2 0.08,2 -0.56,2.87 -2.41,3 -1.85,0.13 -3.62,0 -5.43,0 h -2.89 c 0,1.19 0,2.06 0,2.94 -0.2,3.18 0,6.45 -0.72,9.53 a 18.07,18.07 0 0 1 -15.8,14.22 49,49 0 0 1 -8.57,0.15 c -3.54,-0.19 -8,3.7 -7.92,7.22 a 4.86,4.86 0 0 0 2.85,4.3 12.86,12.86 0 0 0 6.43,1.4 c 4.19,-0.08 8.38,-0.36 12.57,-0.36 a 58,58 0 0 1 9.32,0.52 c 7.82,1.25 12.14,6.24 11.27,15.34 -0.57,5.89 -3.58,10.5 -8,14.23 a 35.92,35.92 0 0 1 -17.15,7.51 15.4,15.4 0 0 0 -2.07,0.63 z m 11,-31 v 0.3 c -2,0 -4.12,-0.13 -6.16,0 -2.35,0.19 -4.8,0.23 -6.82,1.74 -3.87,2.9 -6,6.7 -5.65,11.63 0.35,4.93 3.14,8.13 7.49,10.14 a 16.7,16.7 0 0 0 2.3,0.86 26.27,26.27 0 0 0 11.21,0.83 c 4.83,-0.6 9.27,-2.25 12.62,-6 a 11.55,11.55 0 0 0 2.63,-11.9 c -1.36,-4.24 -4.68,-6.23 -8.8,-6.89 -2.95,-0.39 -5.92,-0.44 -8.86,-0.68 z m 7.33,-36.76 c -0.27,-4.16 -1,-8.09 -3.27,-11.56 a 10.05,10.05 0 0 0 -16.85,-0.33 14,14 0 0 0 -1.8,3.48 20.42,20.42 0 0 0 0.13,14 13.35,13.35 0 0 0 3.88,5.61 c 5.75,4.9 13.94,2.85 16.48,-4.25 a 49.49,49.49 0 0 0 1.39,-6.92 z"/>
    <path d="m 1500.7,253.95 a 10.46,10.46 0 0 1 -1.9,0.37 q -10.59,0 -21.19,0 c -2,0 -2.08,-0.12 -1.74,-2.56 l 3.26,-0.65 c 2.62,-0.55 3.68,-1.67 4,-4.3 a 42.92,42.92 0 0 0 0.32,-4.67 q 0,-10.47 0,-21 a 27.15,27.15 0 0 0 -0.37,-4.41 c -0.82,-4.86 -3.81,-7.9 -8.63,-8.95 a 16.28,16.28 0 0 0 -11.23,1.57 9,9 0 0 0 -5.2,7.55 14.67,14.67 0 0 0 -0.15,1.47 q 0.08,13.56 0.19,27.12 c 0,3.14 0.94,5.27 5,5.73 0.48,0.06 0.95,0.24 1.44,0.32 1,0.17 1.12,0.84 1,1.65 -0.12,0.81 -0.61,1.11 -1.37,1.1 h -21.44 c -2.07,0 -2.09,-0.05 -1.87,-2.56 1,-0.19 2.15,-0.4 3.26,-0.59 3,-0.52 4.13,-1.65 4.39,-4.7 0.13,-1.39 0.13,-2.79 0.14,-4.19 0,-8.8 -0.08,-17.59 0,-26.39 0,-3.1 -0.84,-5.45 -3.6,-7 a 3.62,3.62 0 0 1 -1.11,-1 1.09,1.09 0 0 1 0.26,-1.71 8.06,8.06 0 0 1 1.1,-0.55 c 3.54,-1.72 7.09,-3.43 10.62,-5.17 1.58,-0.78 2.11,-0.52 2.08,1.23 0,1.23 -0.23,2.45 -0.24,3.68 0,2.74 0.91,3.26 3.26,1.9 4.06,-2.36 8.2,-4.61 12.92,-5.27 a 23.9,23.9 0 0 1 6.86,-0.08 c 6.32,0.95 10.41,5.25 11.33,11.62 a 42.21,42.21 0 0 1 0.39,5.39 c 0,8.22 0,16.44 0.07,24.66 a 26.9,26.9 0 0 0 0.46,4.39 3.38,3.38 0 0 0 2.78,2.82 c 1.59,0.33 3.22,0.42 4.84,0.62 z"/>
    <path d="m 509.87,168.5 c 7.31,0.23 14.63,0.27 21.92,0.76 a 50.31,50.31 0 0 1 23.58,7.11 c 10,6.25 15.79,15.36 17.52,27 1.59,10.66 0.09,20.85 -5.59,30.14 -6.52,10.69 -16.22,17 -28.3,19.76 A 74.34,74.34 0 0 1 518.93,255 c -5.66,-0.26 -11.32,-0.74 -17,-0.88 -4.76,-0.12 -9.53,0.11 -14.3,0.18 h -2 c -0.93,0 -1.32,-0.51 -1.34,-1.39 a 1.16,1.16 0 0 1 1.09,-1.35 c 1.06,-0.15 2.11,-0.33 3.17,-0.49 4.62,-0.7 6.29,-2.46 6.59,-7.11 0.19,-2.95 0.33,-5.91 0.33,-8.87 q 0,-24.28 0,-48.58 c 0,-2.38 -0.14,-4.77 -0.34,-7.14 -0.35,-4.23 -2,-5.93 -6.3,-6.53 -0.65,-0.09 -1.29,-0.21 -1.93,-0.36 a 1.25,1.25 0 0 1 -1.07,-1.64 2,2 0 0 1 1.33,-1.12 53.83,53.83 0 0 1 5.4,-0.43 c 5.75,-0.23 11.5,-0.42 17.24,-0.62 z m -4.13,39.49 v 0 c 0,8.3 0,16.61 0,24.91 a 59,59 0 0 0 0.53,7.86 c 0.79,5.39 4,8.66 9.29,9.9 a 42.26,42.26 0 0 0 15.45,0.45 c 12.36,-1.68 21.53,-7.81 26.29,-19.58 a 51.12,51.12 0 0 0 2.32,-31.7 c -3.22,-13.35 -11.61,-22 -24.9,-25.75 -7,-2 -14.12,-2 -21.28,-1.53 a 32.9,32.9 0 0 0 -4.6,0.84 3,3 0 0 0 -2.68,2.81 37.24,37.24 0 0 0 -0.39,3.91 c -0.05,9.26 -0.04,18.59 -0.04,27.88 z"/>
    <path d="m 674.87,69.940007 3,-1.91 c 4.87,-3.13 10.1,-5.15 16,-4.86 a 23.49,23.49 0 0 1 4.86,0.73 c 6.23,1.66 10.09,6.61 10.34,13.43 0.17,4.76 0,9.53 0.09,14.299997 0.07,5.42 0.2,10.839996 0.34,16.259996 a 7.64,7.64 0 0 0 0.36,1.93 3.6,3.6 0 0 0 3,2.61 c 1.28,0.25 2.59,0.39 3.9,0.55 a 1.31,1.31 0 0 1 1.31,1.46 c 0,0.93 -0.53,1.32 -1.42,1.31 h -1.23 -20.71 a 3.94,3.94 0 0 1 -1.46,0 c -0.45,-0.2 -1.07,-0.7 -1.06,-1.06 a 1.94,1.94 0 0 1 0.82,-1.52 17.61,17.61 0 0 1 3.12,-0.64 4.15,4.15 0 0 0 3.67,-3.76 20.33,20.33 0 0 0 0.21,-2.7 q 0,-12.089996 0,-24.169993 a 15.21,15.21 0 0 0 -0.21,-2.7 c -1.53,-8.46 -7.54,-11.5 -15.65,-10.15 a 15.07,15.07 0 0 0 -7.22,3.55 6.21,6.21 0 0 0 -2.38,4.93 c 0,9.7 0,19.399997 0.05,29.099993 a 18.32,18.32 0 0 0 0.31,2.19 4,4 0 0 0 3.65,3.74 l 2.91,0.5 c 0.93,0.17 1.18,0.8 1.1,1.63 a 1.18,1.18 0 0 1 -1.35,1.12 h -1.24 -20.71 c -1,0 -2.27,0.43 -2.54,-1.16 -0.17,-1 0.41,-1.41 2.42,-1.67 h 0.24 c 4.84,-0.67 5.78,-1.7 6,-6.68 0.07,-2.06 0,-4.11 0,-6.17 q 0,-29.999993 0,-59.929993 c 0,-0.65 0,-1.31 0,-2 a 6.73,6.73 0 0 0 -3.6,-6 c -0.93,-0.53 -2.33,-0.91 -2,-2.42 0.24,-1.35 1.62,-1.21 2.56,-1.59 3.35,-1.34 6.74,-2.58 10.09,-3.93 2.18,-0.88 2.6,-0.64 2.57,1.71 q -0.19,20.22 -0.37,40.43 c -0.11,0.9 0.08,1.97 0.23,3.54 z"/>
    <path d="m 892.63,32.370007 c 0.28,2.94 0.55,5.79 0.84,8.65 0.29,2.86 0.58,5.71 0.92,8.57 0.1,0.83 0,1.51 -0.88,1.74 -0.88,0.23 -1.82,0.11 -2.17,-1 -0.15,-0.47 -0.3,-0.94 -0.44,-1.41 -2.53,-8.45 -8.06,-13.8 -16.66,-15.76 -9.34,-2.13 -18.49,-1.43 -27.15,2.81 -9,4.42 -14.66,11.78 -17.3,21.36 a 51.51,51.51 0 0 0 1.2,32.459997 C 836.12,103.41 846.07,111.35 860.5,113.58 a 35.25,35.25 0 0 0 13.23,-0.29 c 9,-2 15.14,-7.52 19.1,-15.679996 0.28,-0.59 0.42,-1.36 0.89,-1.72 a 2.65,2.65 0 0 1 2,-0.49 c 0.39,0.09 0.8,0.94 0.84,1.48 a 5.61,5.61 0 0 1 -0.39,2.16 Q 894.34,104.65 892.43,110.24 a 5.9,5.9 0 0 1 -4.31,3.86 75.51,75.51 0 0 1 -25.26,3.48 c -8.37,-0.29 -16.53,-1.74 -24,-5.65 -15,-7.83 -22.87,-20.289996 -23.33,-37.219993 -0.36,-13.1 4.1,-24.35 13.8,-33.29 7,-6.41 15.34,-10.05 24.57,-11.78 11.6,-2.18 23.07,-1 34.45,1.66 1.26,0.28 2.61,0.62 4.28,1.07 z"/>
    <path d="m 514.16,115.73 h -27.62 a 5.74,5.74 0 0 1 -1.95,-0.05 2.2,2.2 0 0 1 -1.14,-1.29 c -0.2,-0.71 0.28,-1.26 1,-1.37 1.39,-0.19 2.78,-0.31 4.16,-0.5 4.58,-0.62 6.2,-2.27 6.52,-6.83 0.2,-2.87 0.34,-5.739996 0.34,-8.619996 q 0,-23.999997 0,-48.089997 c 0,-2.87 -0.14,-5.75 -0.34,-8.62 -0.33,-4.58 -2.15,-6.47 -6.68,-7 -1.14,-0.14 -2.3,-0.15 -3.44,-0.28 -0.84,-0.09 -1.69,-0.26 -1.66,-1.4 0.03,-1.14 0.68,-1.59 1.78,-1.51 0.57,0 1.15,0 1.73,0 h 27.1 a 5.25,5.25 0 0 1 2,0.06 2.06,2.06 0 0 1 1,1.37 c 0.07,0.37 -0.42,1 -0.82,1.24 a 5.74,5.74 0 0 1 -1.92,0.34 c -0.74,0.08 -1.48,0.07 -2.21,0.18 -3.8,0.57 -5.26,2 -5.93,5.79 a 24.29,24.29 0 0 0 -0.38,4.16 q 0,27.87 0,55.739997 a 30.38,30.38 0 0 0 0.54,5.379996 7.54,7.54 0 0 0 6.18,6.55 29.33,29.33 0 0 0 6.08,0.87 c 5.25,0 10.51,-0.16 15.76,-0.39 a 8.37,8.37 0 0 0 6.78,-3.51 c 1.79,-2.54 3.33,-5.25 4.95,-7.91 a 9.66,9.66 0 0 0 0.82,-1.789996 c 0.41,-1.11 1.24,-1.23 2.2,-0.92 0.96,0.31 1,1 0.78,1.8 -0.22,0.8 -0.36,1.769996 -0.61,2.639996 -1.19,4 -2.36,8 -3.64,12 -0.66,2 -0.78,2 -2.83,2 h -28.6 z"/>
    <path d="m 1015.3,115.58 c -5,0 -9.72,0 -14.48,0 -2.8,0 -5.59,0.09 -8.39,0.14 -0.83,0 -1.71,0.09 -1.86,-1.08 -0.15,-1.17 0.45,-1.67 1.54,-1.73 a 2.64,2.64 0 0 0 0.49,-0.08 c 4.77,-1 5.33,-1.56 5.7,-6.49 0.18,-2.37 0.12,-4.76 0.12,-7.149996 q 0,-8.13 0,-16.279997 a 24,24 0 0 0 -0.27,-3.68 c -0.94,-6.36 -4,-9.48 -10.4,-10.25 a 15.6,15.6 0 0 0 -10.59,2.43 8.64,8.64 0 0 0 -4.17,6.91 c 0,0.58 -0.14,1.15 -0.14,1.72 q 0.06,13.559997 0.16,27.129993 a 9.81,9.81 0 0 0 0.17,1.71 4.2,4.2 0 0 0 3.36,3.52 c 1,0.22 1.93,0.39 2.9,0.58 0.97,0.19 1.12,0.85 1,1.66 -0.12,0.81 -0.63,1.09 -1.36,1.09 -0.5,0 -1,0 -1.48,0 h -19.24 a 5.43,5.43 0 0 1 -1.71,0 c -0.44,-0.16 -1,-0.71 -1,-1.07 a 1.94,1.94 0 0 1 0.82,-1.51 20,20 0 0 1 3.14,-0.6 c 2.4,-0.5 3.42,-1.51 3.77,-3.91 a 28.8,28.8 0 0 0 0.18,-3.94 c 0,-9.209996 -0.07,-18.419993 0.06,-27.629993 0,-2.93 -0.84,-5.12 -3.42,-6.56 a 5.57,5.57 0 0 1 -0.81,-0.56 c -1.06,-1 -1,-1.8 0.29,-2.48 0.5,-0.27 1.06,-0.44 1.58,-0.69 3,-1.46 6,-3 9.09,-4.38 a 13.82,13.82 0 0 1 2.23,-0.6 18.36,18.36 0 0 1 0.37,2.32 c 0,1.06 -0.16,2.13 -0.11,3.19 0.1,2.36 0.89,2.78 2.93,1.69 2.33,-1.23 4.6,-2.57 7,-3.61 a 22.09,22.09 0 0 1 13.21,-1.9 c 6,1.16 9.84,4.85 11,10.81 a 27.8,27.8 0 0 1 0.5,5.14 c 0.06,8.72 0,17.429997 0.08,26.149993 a 23.56,23.56 0 0 0 0.4,3.65 3.79,3.79 0 0 0 3.27,3.25 c 0.88,0.18 1.77,0.33 2.67,0.48 1.97,0.28 2.07,0.46 1.4,2.61 z"/>
    <path d="m 965.6,251.81 v 2.11 a 2.83,2.83 0 0 1 -0.76,0.35 c -0.66,0.05 -1.32,0 -2,0 -6.49,0 -13,0 -19.47,0 -1,0 -2.46,0.66 -2.76,-1.14 -0.19,-1.11 0.32,-1.46 2.56,-1.9 0.48,-0.09 1,-0.13 1.46,-0.24 a 4.19,4.19 0 0 0 3.47,-4 c 0.17,-1.8 0.28,-3.61 0.29,-5.41 q 0,-10.11 0,-20.22 a 32.27,32.27 0 0 0 -0.25,-3.93 c -0.63,-5.32 -3.72,-8.65 -9,-9.72 a 16.12,16.12 0 0 0 -11.41,1.86 8.73,8.73 0 0 0 -4.7,6.83 32.51,32.51 0 0 0 -0.26,3.68 q 0,10.73 0,21.45 a 42.47,42.47 0 0 0 0.36,5.16 c 0.34,2.8 1.35,3.8 4.16,4.39 0.72,0.15 1.44,0.31 2.17,0.44 0.94,0.17 1.18,0.8 1.08,1.63 a 1.19,1.19 0 0 1 -1.36,1.12 c -1.23,0 -2.46,-0.08 -3.69,-0.08 l -16.51,0.05 h -3.11 c -0.1,-0.85 -0.18,-1.54 -0.26,-2.18 a 3.46,3.46 0 0 1 0.79,-0.45 c 1.05,-0.21 2.1,-0.39 3.15,-0.57 a 4.12,4.12 0 0 0 3.78,-3.63 17.51,17.51 0 0 0 0.26,-2.7 c 0,-9.86 0,-19.72 0.07,-29.58 a 6.2,6.2 0 0 0 -3.17,-5.95 7.93,7.93 0 0 1 -1,-0.72 c -1.21,-1.07 -1.13,-1.9 0.32,-2.61 q 5.73,-2.82 11.51,-5.59 c 1.12,-0.54 1.7,-0.15 1.69,1.14 -0.01,1.29 -0.19,2.29 -0.24,3.44 a 7.12,7.12 0 0 0 0.13,2 c 0.31,1.2 1.09,1.54 2.23,1 0.81,-0.39 1.57,-0.9 2.36,-1.34 3.58,-2 7.28,-3.89 11.41,-4.44 a 24.78,24.78 0 0 1 7.09,0 c 6.4,1 10.48,5.54 11.22,12 a 43,43 0 0 1 0.23,4.68 q 0.11,12.69 0.18,25.39 c 0,0.65 0,1.31 0.08,2 0.26,3.45 1.28,4.55 4.77,5.15 1.01,0.09 1.96,0.31 3.13,0.53 z"/>
    <path d="m 1280.62,89.870004 c 0,7.81 -2.36,14.719996 -8.07,20.249996 a 25.21,25.21 0 0 1 -16.15,7 28.61,28.61 0 0 1 -13.54,-1.87 c -9.07,-3.84 -14.07,-10.83 -15.32,-20.449996 a 28,28 0 0 1 3,-17.459997 c 4.93,-8.95 12.65,-13.69 22.76,-14.16 9.92,-0.47 17.94,3.37 23.42,11.87 2.71,4.32 3.91,9.09 3.9,14.819997 z m -10.37,1.89 c -0.45,-3.159997 -0.73,-6.349997 -1.4,-9.469997 a 22.33,22.33 0 0 0 -6.13,-11.86 13.26,13.26 0 0 0 -20.25,1.82 21.63,21.63 0 0 0 -3.42,7.59 38.82,38.82 0 0 0 -0.31,17.089997 24.44,24.44 0 0 0 5.49,11.949996 c 3.76,4.2 8.41,5.87 14,4.58 4.44,-1 7.25,-4 9.1,-8 a 36.21,36.21 0 0 0 2.92,-13.699996 z"/>
    <path d="m 1403.87,255.84 c -11.65,0 -21.07,-6.36 -24.61,-16.66 -4,-11.53 -0.6,-24.71 9,-32 11.6,-8.79 28.75,-6.83 37.38,4.41 4.78,6.22 6.07,13.37 5.13,21 a 26.2,26.2 0 0 1 -6.78,15 c -5.45,5.83 -12.3,8.27 -20.12,8.25 z m 16.57,-26.85 c -0.23,-1.66 -0.48,-4.86 -1.16,-8 -1,-4.64 -2.82,-8.94 -6.42,-12.25 a 13.19,13.19 0 0 0 -19.9,1.89 20.83,20.83 0 0 0 -3.41,7.33 39.17,39.17 0 0 0 -0.25,18.3 24.39,24.39 0 0 0 5,10.84 c 3.51,4.13 7.93,6 13.37,5.06 5,-0.83 8.13,-4 10.13,-8.45 1.92,-4.15 2.51,-8.62 2.63,-14.72 z"/>
    <path d="m 1206.47,89.370004 c 0.13,6.07 0.17,12.159996 0.44,18.229996 0.17,3.67 1.13,4.52 4.73,5 1.14,0.16 2.29,0.25 3.44,0.31 0.92,0.06 1.66,0.32 1.65,1.39 -0.01,1.07 -0.83,1.45 -1.84,1.41 -1.4,-0.05 -2.8,-0.11 -4.19,-0.11 l -19,0.06 c -2,0 -2.67,-0.26 -2.63,-1.33 0,-1.59 1.34,-1.36 2.35,-1.52 5,-0.77 5.93,-1.72 6,-6.91 0.07,-10.999996 0,-21.999993 0,-32.999993 0,-2.54 -0.45,-2.94 -3.06,-3 -1,0 -2,0 -3,0 -0.66,0 -1.51,0 -1.45,-0.9 a 2.24,2.24 0 0 1 0.93,-1.51 19.2,19.2 0 0 1 3.5,-1.78 c 2.35,-0.88 3.08,-2.47 3.13,-4.94 a 57.21,57.21 0 0 1 3.28,-19.34 29.81,29.81 0 0 1 7.81,-11.82 c 6.28,-5.67 13.6,-7.33 21.76,-5.36 a 9.32,9.32 0 0 1 5.69,3.66 4.42,4.42 0 0 1 0.39,5.09 4.58,4.58 0 0 1 -4.32,2.32 4.07,4.07 0 0 1 -2.75,-1.43 33.82,33.82 0 0 0 -4.27,-3.69 c -6,-3.89 -12.23,-2.17 -15.1,4.35 a 29.89,29.89 0 0 0 -2.41,9 c -0.6,6.12 -0.76,12.29 -1,18.44 -0.09,2.55 0.5,3 3,3.07 4,0.05 8.06,0 12.09,0 2.17,0 2.45,0.24 2.49,1.78 0.06,2 -0.77,3 -2.61,3.05 -3.86,0.05 -7.73,0 -11.59,0 -3,0 -3.41,0.42 -3.43,3.45 0,5.34 0,10.68 0,15.999997 z"/>
    <path d="m 896.87,171.37 c -1.69,0.19 -3.24,0.34 -4.78,0.54 -3.65,0.48 -5.27,1.95 -5.91,5.53 a 26,26 0 0 0 -0.43,4.65 q 0,29.61 0,59.21 a 30.44,30.44 0 0 0 0.49,4.65 5.39,5.39 0 0 0 4.63,4.78 c 1.93,0.38 3.88,0.67 5.8,1 0.73,2.23 0.55,2.57 -1.53,2.59 -1.31,0 -2.63,0 -4,0 h -24.16 c -0.66,0 -1.32,0 -2,0 -0.84,0 -1.12,-0.6 -1.15,-1.32 a 1.15,1.15 0 0 1 1.06,-1.38 l 3.66,-0.51 c 4.41,-0.63 6.21,-2.48 6.53,-6.94 0.21,-2.95 0.35,-5.91 0.36,-8.87 q 0,-23.81 0,-47.61 c 0,-2.88 -0.15,-5.75 -0.35,-8.62 -0.32,-4.91 -2.13,-6.73 -7,-7.22 -1,-0.1 -2,-0.26 -2.94,-0.35 -0.94,-0.09 -1.39,-0.43 -1.34,-1.38 0.05,-0.95 0.61,-1.44 1.61,-1.4 1.15,0.05 2.31,0.07 3.46,0.07 h 24.65 c 0.49,0 1,0 1.48,0 2.02,-0.03 2.09,0.07 1.86,2.58 z"/>
    <path d="m 750.78,103.6 a 30.44,30.44 0 0 0 1.58,-2.65 q 5.75,-13.339993 11.43,-26.709993 a 13.06,13.06 0 0 0 0.77,-2.59 c 0.37,-1.92 -0.11,-2.79 -2,-3.33 -1.64,-0.48 -3.35,-0.73 -5,-1.06 -0.6,-2.39 -0.45,-2.66 1.68,-2.62 4.19,0.08 8.37,0.26 12.56,0.3 2,0 3.94,-0.18 5.91,-0.32 1,-0.06 1.65,0.21 1.78,1.23 a 1.41,1.41 0 0 1 -1.42,1.66 c -4.49,0.5 -6.89,3.61 -8.74,7.19 q -5.09,9.85 -9.86,19.869997 C 752.08,110.15 744.81,125.79 737.47,141.38 a 17.63,17.63 0 0 1 -2.67,4.1 7.17,7.17 0 0 1 -7,2.12 5,5 0 0 1 -4.07,-5.62 c 0.21,-2.73 1.84,-4.6 4.62,-4.38 4.55,0.36 7.27,-1.67 9.11,-5.57 1.61,-3.41 3.45,-6.72 5.11,-10.11 a 16.29,16.29 0 0 0 0.52,-13.59 c -2.56,-6.67 -4.89,-13.419996 -7.33,-20.139993 -1.43,-3.94 -2.85,-7.88 -4.3,-11.8 -0.52,-1.39 -1.07,-2.76 -1.7,-4.1 a 7.26,7.26 0 0 0 -5.39,-4.26 c -0.72,-0.15 -1.45,-0.27 -2.17,-0.45 -0.88,-0.21 -1.53,-0.67 -1.38,-1.7 0.15,-1.03 0.81,-1.32 1.77,-1.27 2.38,0.14 4.76,0.34 7.14,0.33 4.27,0 8.54,-0.17 12.81,-0.27 0.58,0 1.15,0 1.73,0 0.79,0 1.33,0.42 1.24,1.17 a 2.22,2.22 0 0 1 -0.85,1.53 12.17,12.17 0 0 1 -2.61,0.66 c -3.07,0.75 -3.39,1.27 -2.57,4.26 0.33,1.18 0.69,2.37 1.1,3.53 q 4.24,12.08 8.52,24.149997 C 749.49,100.99 750.04,101.98 750.78,103.6 Z"/>
    <path d="m 794.51,249.08 a 1.66,1.66 0 0 1 -0.22,2.44 c -3.51,3.45 -7.64,5.06 -12.56,4 a 9.48,9.48 0 0 1 -5.47,-3.55 c -1.79,-2.23 -2.19,-2.25 -4.73,-0.83 -2,1.12 -4,2.25 -6.06,3.29 a 14,14 0 0 1 -10.56,0.79 11.61,11.61 0 0 1 -7.89,-13.57 8.19,8.19 0 0 1 4,-5.38 40,40 0 0 1 5.75,-2.77 c 5,-1.91 10,-3.66 15,-5.49 2.84,-1 3.19,-1.47 3.23,-4.47 a 67,67 0 0 0 -0.11,-9.08 9.59,9.59 0 0 0 -15.43,-6.32 5.49,5.49 0 0 0 -2.46,4.61 c 0.1,3.29 -1.78,4.76 -4.57,5.5 a 15.91,15.91 0 0 1 -3.62,0.59 c -1.32,0 -1.85,-0.5 -1.68,-1.81 a 7,7 0 0 1 1,-3 20.57,20.57 0 0 1 3.33,-3.92 33,33 0 0 1 16.12,-8 20,20 0 0 1 6.36,-0.12 c 6.24,0.89 9.9,5.18 10.07,11.75 0.09,3.93 -0.14,7.88 -0.22,11.82 -0.11,5.91 -0.27,11.82 -0.28,17.74 a 10.39,10.39 0 0 0 0.89,3.8 5.37,5.37 0 0 0 7,3.22 c 1.08,-0.34 2.03,-0.8 3.11,-1.24 z m -20.06,-10.8 h 0.06 c 0.07,-1.47 0.2,-2.94 0.18,-4.41 0,-2.05 -0.55,-2.64 -2.51,-2.24 a 36.27,36.27 0 0 0 -12.54,4.74 6.79,6.79 0 0 0 -3.11,7.67 7.62,7.62 0 0 0 5.71,6.13 c 2.82,0.8 5.31,-0.14 7.81,-1.24 a 6.78,6.78 0 0 0 4.4,-6.73 c -0.01,-1.3 0,-2.61 0,-3.92 z"/>
    <path d="m 653.93,110.45 a 1.54,1.54 0 0 1 0,2.37 c -5,5.49 -14.14,6.24 -18.39,0.35 -1.4,-1.93 -2,-1.94 -4.17,-0.79 -2.17,1.15 -4.15,2.33 -6.27,3.42 a 14.12,14.12 0 0 1 -11,0.75 11.57,11.57 0 0 1 -7.67,-12.85 7.67,7.67 0 0 1 3.44,-5.479996 36.46,36.46 0 0 1 5.89,-3 c 5.13,-2 10.3,-3.89 15.51,-5.63 2.4,-0.809997 3.52,-2.209997 3.44,-4.689997 -0.1,-3.2 0.18,-6.46 -0.35,-9.57 -1.22,-7.13 -10,-10.1 -15.61,-5.47 a 6.39,6.39 0 0 0 -2.2,4.52 c -0.16,1.54 -0.12,3.16 -1.75,4.11 a 12.08,12.08 0 0 1 -6.79,1.83 1.25,1.25 0 0 1 -1.29,-1.48 7.53,7.53 0 0 1 0.82,-3 21.8,21.8 0 0 1 3.62,-4.32 33.85,33.85 0 0 1 16.63,-8.1 16.49,16.49 0 0 1 8,0.56 10.76,10.76 0 0 1 7.61,10.39 c 0.17,5.09 -0.09,10.19 -0.19,15.289997 -0.09,4.6 -0.3,9.2 -0.28,13.799996 a 14.65,14.65 0 0 0 0.87,4.81 c 1.17,3.26 4.06,4.55 7.36,3.45 a 28.17,28.17 0 0 0 2.77,-1.27 z M 633.87,99.930004 h 0.19 c 0.08,-1.56 0.22,-3.11 0.2,-4.67 0,-2 -0.7,-2.65 -2.57,-2.24 a 38.2,38.2 0 0 0 -12.35,4.66 6.79,6.79 0 0 0 -3.4,7.339996 7.71,7.71 0 0 0 5.58,6.54 c 3.29,1 6.12,-0.19 8.92,-1.66 a 6,6 0 0 0 3.43,-5.53 c 0,-1.49 0,-3 0,-4.439996 z"/>
    <path d="m 1289.35,228.2 c -0.15,4.27 -0.39,8.54 -0.4,12.81 a 18.39,18.39 0 0 0 0.82,5.31 c 1.17,3.79 4.26,5.17 8,3.77 0.23,-0.08 0.45,-0.21 0.68,-0.29 0.69,-0.24 1.44,-1.23 2.1,-0.11 0.54,0.92 -0.31,1.53 -0.88,2.07 a 13.3,13.3 0 0 1 -11.2,4 9.89,9.89 0 0 1 -6.65,-3.85 c -1.71,-2.12 -2.14,-2.17 -4.54,-0.84 -1.86,1 -3.71,2.12 -5.59,3.12 a 14.52,14.52 0 0 1 -11,1.09 c -5.89,-1.63 -9.41,-7.57 -7.87,-14.19 a 7.34,7.34 0 0 1 3.72,-4.72 48.42,48.42 0 0 1 6.43,-3.05 c 4.83,-1.86 9.72,-3.54 14.58,-5.32 2.7,-1 3.18,-1.66 3.23,-4.52 0,-2.46 0.17,-4.94 0,-7.39 a 15.92,15.92 0 0 0 -1.09,-4.76 7.35,7.35 0 0 0 -5.17,-4.54 11.28,11.28 0 0 0 -8.38,0.75 5.86,5.86 0 0 0 -3.42,5.06 c -0.11,1.63 -0.13,3.35 -1.77,4.36 a 11.17,11.17 0 0 1 -7,1.86 1.33,1.33 0 0 1 -1.21,-1.79 9,9 0 0 1 1.19,-3.18 23.49,23.49 0 0 1 3.76,-4.2 31.94,31.94 0 0 1 15.55,-7.54 22.79,22.79 0 0 1 7.55,0.14 c 4.93,0.88 7.71,4.21 8.56,9 a 38.21,38.21 0 0 1 0.4,7.1 c 0,3.29 -0.28,6.57 -0.43,9.85 z m -9.06,9.73 c 0,-1.69 0,-2.93 0,-4.16 -0.06,-2 -0.6,-2.57 -2.6,-2.14 a 36.6,36.6 0 0 0 -12.37,4.7 6.72,6.72 0 0 0 -3.27,7.17 7.68,7.68 0 0 0 5.76,6.67 c 3.4,1 6.3,-0.37 9.12,-2 a 5.46,5.46 0 0 0 2.93,-4.58 c 0.14,-2.02 0.31,-4.06 0.43,-5.66 z"/>
    <path d="m 815.06,161.95 a 19.88,19.88 0 0 1 0.28,2.17 q -0.11,31.46 -0.24,62.91 0,8.38 0,16.77 a 30.12,30.12 0 0 0 0.4,3.91 3.9,3.9 0 0 0 3.47,3.35 c 1.13,0.23 2.27,0.39 3.41,0.54 1,0.13 1.19,0.75 1.12,1.58 a 1.15,1.15 0 0 1 -1.31,1.15 h -2.22 -22.1 c -0.06,-0.88 -0.11,-1.62 -0.17,-2.48 1.36,-0.25 2.48,-0.46 3.61,-0.65 3.05,-0.51 4,-1.39 4.38,-4.39 a 42.64,42.64 0 0 0 0.33,-4.92 q 0,-31 0,-61.92 c 0,-1.39 -0.16,-2.79 -0.24,-4.18 a 5.86,5.86 0 0 0 -3.21,-4.94 4.61,4.61 0 0 1 -1.23,-0.81 3.39,3.39 0 0 1 -1,-1.74 c 0,-0.39 0.78,-0.88 1.29,-1.21 a 7.61,7.61 0 0 1 1.39,-0.49 l 9.87,-3.83 c 0.59,-0.29 1.26,-0.5 2.17,-0.82 z"/>
    <path d="m 930.56,82.370007 c -4.61,0 -9.21,0 -13.81,0 -3.78,0 -4.24,0.61 -4.11,4.35 a 29,29 0 0 0 3,12.579997 20.41,20.41 0 0 0 20.31,11.179996 13.42,13.42 0 0 0 8.44,-4.16 14.31,14.31 0 0 1 1.73,-1.75 1.6,1.6 0 0 1 1.48,-0.1 1.71,1.71 0 0 1 0.42,1.45 5.18,5.18 0 0 1 -0.92,1.73 c -3.84,5.68 -9.35,8.61 -16,9.47 a 24.84,24.84 0 0 1 -9.78,-0.65 21.25,21.25 0 0 1 -15.42,-14.61 c -3.4,-10.449996 -1.83,-20.339993 4.75,-29.179993 a 23.68,23.68 0 0 1 26.18,-8.44 c 6.12,2.07 10.26,6.07 11.29,12.73 0.06,0.4 0.11,0.81 0.13,1.22 0.11,3.29 -0.43,4 -3.66,4.06 -4.69,0.09 -9.37,0 -14,0 z m -16.14,-3.7 a 7.55,7.55 0 0 0 1.39,0.26 c 5.26,0 10.52,0 15.78,-0.09 a 24.22,24.22 0 0 0 4.64,-0.57 c 2,-0.41 2.56,-1.26 2.58,-3.31 0,-4 -2.93,-7.33 -7.24,-8.08 a 16.12,16.12 0 0 0 -16.47,8 4.47,4.47 0 0 0 -0.68,3.75 z"/>
    <path d="m 1054.87,220.89 h -13.31 a 18.23,18.23 0 0 0 -2.22,0.07 c -1.68,0.23 -2.21,0.64 -2.27,2.34 -0.29,8.16 1.68,15.55 8.13,21.05 a 19.54,19.54 0 0 0 16.58,4.39 13,13 0 0 0 7.16,-4.06 11,11 0 0 1 1.55,-1.57 1.7,1.7 0 0 1 1.52,-0.07 1.54,1.54 0 0 1 0.36,1.45 25,25 0 0 1 -2.75,4.06 21.3,21.3 0 0 1 -13.49,7 c -8.18,1.06 -15.55,-0.84 -21.28,-7.14 a 24.79,24.79 0 0 1 -6.15,-15.27 32,32 0 0 1 4.61,-19.57 24.24,24.24 0 0 1 26.27,-11.28 16.62,16.62 0 0 1 11.48,8.55 12.72,12.72 0 0 1 1.51,6.89 c -0.18,2.54 -0.62,3 -3.16,3 -4.85,0.06 -9.69,0 -14.54,0 z m -7.24,-3.35 v -0.05 c 2,0 3.94,0.1 5.89,0 a 61.67,61.67 0 0 0 7.31,-0.81 c 1.84,-0.34 2.24,-1.09 2.31,-2.94 0.16,-4 -2.68,-7.33 -7,-8.27 -7.77,-1.69 -14.39,3.56 -16.8,8 a 8.38,8.38 0 0 0 -0.66,1.58 c -0.51,1.86 -0.12,2.43 1.78,2.47 2.41,0.06 4.81,0.02 7.19,0.02 z"/>
    <path d="m 1089.47,82.370007 h -12.32 c -0.66,0 -1.32,0 -2,0 -3.18,0.13 -3.54,0.5 -3.57,3.6 a 26.32,26.32 0 0 0 4.29,15.399993 c 4.61,6.84 11.23,9.6 19.3,9 3.61,-0.26 6.46,-2.19 8.9,-4.8 0.66,-0.7 1.14,-2.07 2.54,-1.2 0.85,0.54 0.76,1.26 -0.4,3 -3.83,5.8 -9.4,8.8 -16.15,9.68 a 24.49,24.49 0 0 1 -9.78,-0.65 c -9.29,-2.6 -14.49,-9 -16.42,-18.149996 a 30.69,30.69 0 0 1 3.67,-22.579997 c 5.08,-8.57 12.69,-12.89 22.71,-12.53 a 18.11,18.11 0 0 1 13.16,5.85 13.57,13.57 0 0 1 3.77,10.11 c -0.12,2.55 -0.55,3 -3.12,3 -4.85,0.09 -9.7,0 -14.55,0 z m -15.86,-3.31 q 9.3,-0.18 18.67,-0.39 a 13.56,13.56 0 0 0 2.68,-0.34 c 2.11,-0.45 2.75,-1.29 2.75,-3.42 0,-3.87 -2.67,-7 -6.79,-7.95 -6.54,-1.51 -14.52,2.46 -17.25,8.58 a 3.6,3.6 0 0 0 -0.06,3.48 z"/>
    <path d="m 581.15,82.370007 c -4.19,0 -8.38,0 -12.57,0 a 26.38,26.38 0 0 0 -3,0.16 c -1.62,0.2 -2.1,0.6 -2.16,2.12 -0.32,7.789997 1.49,14.869997 7.29,20.449993 4.55,4.38 10.17,5.89 16.33,5.33 3.6,-0.33 6.45,-2.26 8.85,-4.9 0.66,-0.72 1.26,-2.05 2.55,-1 1.11,0.92 0.16,1.81 -0.32,2.59 -3.52,5.68 -8.83,8.78 -15.25,9.84 a 24.23,24.23 0 0 1 -16.22,-2.69 c -6.14,-3.46 -9.55,-8.91 -11,-15.639996 -2,-9.699997 -0.14,-18.649997 6,-26.459997 a 23.72,23.72 0 0 1 25.69,-8 c 5.94,2 10,5.8 11.33,12.17 0.06,0.32 0.11,0.64 0.14,1 0.37,4 -0.28,4.86 -4.24,4.95 -4.52,0.1 -9,0 -13.56,0 z m -15.94,-3.65 a 8.06,8.06 0 0 0 1.26,0.21 c 5.34,0 10.67,0 16,-0.09 a 24.26,24.26 0 0 0 4.4,-0.53 c 2,-0.42 2.57,-1.22 2.61,-3.26 0.08,-4.09 -2.76,-7.35 -7.09,-8.16 a 16.07,16.07 0 0 0 -16.62,8.07 4.2,4.2 0 0 0 -0.56,3.72 z"/>
    <path d="m 968.87,205.72 c 0.06,-0.85 0.11,-1.54 0.17,-2.33 h 22.83 c 0.89,2 0.79,2.23 -1,2.72 -0.23,0.06 -0.47,0.13 -0.71,0.18 -3.31,0.76 -3.76,1.42 -2.74,4.57 a 261.84,261.84 0 0 0 11,27.93 16.61,16.61 0 0 0 1.24996,1.9 19.13,19.13 0 0 0 1.47004,-2.55 q 5,-12.74 9.85,-25.51 a 15.24,15.24 0 0 0 0.82,-3.34 c 0.24,-1.75 -0.25,-2.42 -2,-2.85 -1,-0.26 -2.08,-0.42 -3.35,-0.66 v -2.41 c 1.76,0 3.38,0 5,0 l 12.32,-0.08 c 2.07,0 2.1,0.05 1.8,2.44 a 13.82,13.82 0 0 1 -1.57,0.41 7.91,7.91 0 0 0 -6.16,4.43 c -2,3.7 -4,7.37 -5.67,11.21 -4.6,10.63 -9,21.34 -13.5,32 -0.42,1 -0.5,2.4 -2.1,2.33 -1.6,-0.07 -1.55,-1.5 -2,-2.51 q -5.8,-14.52 -11.59,-29.05 -2.25,-5.61 -4.6,-11.17 a 33.85,33.85 0 0 0 -1.61,-3.32 6.8,6.8 0 0 0 -5.23,-3.69 c -0.68,-0.14 -1.5,-0.38 -2.68,-0.65 z"/>
    <path d="m 1094.01,255.82 a 24.35,24.35 0 0 1 -10.51,-2 5.21,5.21 0 0 1 -3.54,-4.57 c -0.23,-2.62 -0.51,-5.23 -0.74,-7.85 a 3,3 0 0 1 0.1,-1.45 c 0.21,-0.45 0.66,-1 1.08,-1.08 a 1.8,1.8 0 0 1 1.4,0.65 12.09,12.09 0 0 1 0.78,1.79 50.61,50.61 0 0 0 4.09,7 10.92,10.92 0 0 0 10.5,4.18 c 6.31,-0.87 9.45,-7.2 6.25,-12.82 a 18.24,18.24 0 0 0 -4.27,-4.68 c -1.56,-1.3 -3.5,-2.14 -5.17,-3.32 a 75.19,75.19 0 0 1 -8.07,-6 c -6.75,-6.27 -5.1,-18.05 4.15,-22.1 4.37,-1.91 8.92,-2.06 13.54,-1.53 a 42.44,42.44 0 0 1 5,1.11 2.77,2.77 0 0 1 2.28,2.29 c 0.48,2.5 1,5 1.38,7.48 0.14,0.83 0,1.7 -1,1.92 -1,0.22 -1.48,-0.31 -1.92,-1.14 a 24.48,24.48 0 0 0 -2.53,-4.21 c -2.93,-3.59 -6.66,-5.31 -11.34,-4 a 7.68,7.68 0 0 0 -4.39,12 18.49,18.49 0 0 0 4.27,4 c 1.86,1.35 4,2.28 5.89,3.58 a 57.28,57.28 0 0 1 7.4,5.67 c 3.76,3.66 4.74,8.39 3.92,13.43 a 12.43,12.43 0 0 1 -6.44,8.88 22.1,22.1 0 0 1 -12.11,2.77 z"/>
    <path d="m 1337.1,248.15 c 1.43,1 1.14,1.86 0.23,2.75 a 16.27,16.27 0 0 1 -10,4.77 26.58,26.58 0 0 1 -7.34,-0.37 c -4.63,-0.87 -7.29,-3.8 -8,-8.48 a 33.71,33.71 0 0 1 -0.43,-5.4 c 0,-9.12 0,-18.24 0,-27.36 0,-0.82 0,-1.65 0,-2.47 -0.08,-2.65 -0.52,-3.07 -3.24,-3.13 a 13.38,13.38 0 0 1 -2.46,-0.08 1.63,1.63 0 0 1 -1.13,-1 1.81,1.81 0 0 1 0.72,-1.33 6.3,6.3 0 0 1 1.8,-0.76 17.09,17.09 0 0 0 9.53,-7.76 12.43,12.43 0 0 1 1.45,-2.28 2,2 0 0 1 1.6,-0.69 2,2 0 0 1 1.05,1.42 38.83,38.83 0 0 1 0.08,4.18 c 0,3.1 0.21,3.31 3.39,3.34 3.37,0 6.74,0 10.11,0 0.58,0 1.15,0 1.73,0 a 2.62,2.62 0 0 1 2,4.2 2.72,2.72 0 0 1 -1.93,0.68 c -3.69,0.06 -7.39,0 -11.09,0 -0.66,0 -1.32,0 -2,0 -1.77,0.14 -2.27,0.62 -2.48,2.42 a 16.15,16.15 0 0 0 -0.06,2 c 0,7.72 -0.06,15.45 0,23.17 a 36,36 0 0 0 0.73,7.33 c 1.47,6.59 7.81,9.27 13.74,6 0.63,-0.33 1.26,-0.72 2,-1.15 z"/>
    <path d="m 739.52,248.15 c 1.47,1.09 1.05,2 0.16,2.81 a 16.31,16.31 0 0 1 -10.07,4.72 26.91,26.91 0 0 1 -7.33,-0.39 c -4.59,-0.88 -7.29,-3.9 -8,-8.56 a 41,41 0 0 1 -0.43,-5.64 c 0,-9.37 0,-18.74 0,-28.11 0,-0.65 0,-1.31 0,-2 -0.12,-1.89 -0.64,-2.42 -2.58,-2.54 -0.9,-0.05 -1.81,0 -2.71,0 -0.9,0 -1.62,-0.19 -1.56,-1.11 a 2.28,2.28 0 0 1 1,-1.42 9.28,9.28 0 0 1 2.06,-0.8 16.47,16.47 0 0 0 8.61,-7 28.13,28.13 0 0 1 1.87,-2.9 1.72,1.72 0 0 1 1.39,-0.65 2.5,2.5 0 0 1 1.23,1.27 3.5,3.5 0 0 1 0.1,1.46 c 0,1.23 0,2.46 0,3.7 0.05,2.08 0.34,2.37 2.43,2.52 0.74,0.05 1.48,0 2.22,0 3.45,0 6.91,0 10.36,0 a 2.59,2.59 0 0 1 2.32,4.05 1.86,1.86 0 0 1 -1.1,0.79 7,7 0 0 1 -1.72,0.06 c -3.78,0 -7.56,0 -11.34,0 -2.86,0 -3.4,0.48 -3.41,3.23 0,8.71 0,17.43 0,26.14 a 25.32,25.32 0 0 0 0.68,5.61 c 1.51,6.42 7.8,9.14 13.61,6 0.75,-0.36 1.44,-0.79 2.21,-1.24 z"/>
    <path d="m 1154.13,248.19 c 1.29,1.52 1.33,1.65 0.09,2.83 a 16.51,16.51 0 0 1 -10.33,4.7 25.23,25.23 0 0 1 -6.61,-0.34 c -5.16,-1 -8,-4.23 -8.49,-9.47 -0.18,-1.79 -0.23,-3.61 -0.24,-5.41 q 0,-13.56 0,-27.12 c 0,-4.71 -0.25,-5.07 -4.74,-4.93 a 2.9,2.9 0 0 1 -1.22,-0.07 1.71,1.71 0 0 1 -0.94,-0.91 1.6,1.6 0 0 1 0.46,-1.25 3.2,3.2 0 0 1 1.32,-0.6 18.67,18.67 0 0 0 11,-9.28 c 0.5,-0.88 0.84,-2.19 2.26,-1.83 1.6,0.4 1.08,1.81 1.13,2.88 0.06,1.31 0,2.63 0,4 0.08,1.63 0.4,2 2.07,2.12 1.67,0.12 3.45,0.06 5.17,0.07 2.63,0 5.26,0 7.89,0 a 2.55,2.55 0 0 1 2.18,4.1 2.52,2.52 0 0 1 -1.85,0.76 c -3.78,0.08 -7.56,0 -11.34,0 -4.12,0 -4.21,0.09 -4.21,4.08 0,8.22 0,16.44 0,24.66 a 30.46,30.46 0 0 0 0.55,6.11 c 1.4,6.48 7.63,9.28 13.5,6.19 0.85,-0.4 1.61,-0.87 2.35,-1.29 z"/>
    <path d="m 1307.18,61.680007 c 0.8,2.84 0,5.83 0.59,9.11 0.8,-0.5 1.39,-0.83 1.94,-1.22 2.3,-1.59 4.51,-3.31 6.88,-4.76 a 10.31,10.31 0 0 1 6.34,-1.65 c 3.22,0.28 5.17,2.52 4.92,5.59 a 5.26,5.26 0 0 1 -5.89,4.94 9.66,9.66 0 0 1 -2.49,-1 32.53,32.53 0 0 0 -3.6,-1.55 5.71,5.71 0 0 0 -7.21,3.5 14.09,14.09 0 0 0 -1,4.78 c -0.09,9.2 -0.06,18.409997 0,27.609993 a 10,10 0 0 0 0.52,2.9 3.52,3.52 0 0 0 3.07,2.5 c 1.63,0.22 3.26,0.38 4.9,0.51 0.92,0.07 1.67,0.32 1.67,1.38 0,1.06 -0.79,1.44 -1.83,1.43 q -10.61,-0.09 -21.2,-0.12 c -0.91,0 -1.81,0 -2.71,0.08 -0.9,0.08 -1.47,-0.24 -1.54,-1.19 a 1.32,1.32 0 0 1 1.17,-1.58 c 0.81,-0.13 1.62,-0.28 2.42,-0.46 2.7,-0.61 3.67,-1.63 3.93,-4.31 0.19,-1.88 0.32,-3.77 0.33,-5.65 0,-8.059996 0,-16.119993 0,-24.169993 0,-0.82 -0.06,-1.64 -0.08,-2.46 a 5.87,5.87 0 0 0 -2.93,-5.11 8.77,8.77 0 0 1 -1.41,-1 c -0.91,-0.86 -0.83,-1.79 0.29,-2.34 4,-2 8,-3.87 12,-5.78 a 3.11,3.11 0 0 1 0.92,0.02 z"/>
    <path d="M 1030.35,89.680004 V 76.110007 c 0,-0.66 0,-1.32 0,-2 -0.09,-4 -0.33,-4.19 -4.22,-4.25 a 6.44,6.44 0 0 1 -1.71,-0.09 c -0.4,-0.12 -1,-0.55 -1,-0.87 a 2.3,2.3 0 0 1 0.63,-1.4 2.39,2.39 0 0 1 1.11,-0.47 18.52,18.52 0 0 0 11,-9.26 c 0.49,-0.87 0.79,-2.21 2.24,-1.83 1.45,0.38 1.1,1.8 1.15,2.88 0.06,1.32 0,2.64 0,4 0.09,1.59 0.49,2 2.08,2.18 a 20.32,20.32 0 0 0 2.21,0 c 3.7,0 7.4,0 11.1,0 1.74,0 2.32,0.69 2.34,2.42 0.02,1.73 -0.57,2.38 -2.32,2.4 -3.7,0 -7.4,0 -11.1,0 a 20.57,20.57 0 0 0 -2.22,0 c -1.62,0.17 -2,0.52 -2.2,2.1 a 10.52,10.52 0 0 0 -0.1,1.48 c 0,9.2 0.1,18.409997 0.2,27.619993 a 17.31,17.31 0 0 0 0.48,3.65 c 1.49,6.42 7.76,9.23 13.58,6.11 a 6.72,6.72 0 0 1 1.48,-0.85 c 0.46,-0.11 1.25,0 1.46,0.26 a 1.9,1.9 0 0 1 -0.09,1.52 3.48,3.48 0 0 1 -1,1.07 16.74,16.74 0 0 1 -10,4.25 32.45,32.45 0 0 1 -4.93,0 c -5.88,-0.48 -9.47,-4.06 -10,-9.93 -0.13,-1.39 -0.2,-2.79 -0.2,-4.18 0.01,-4.359996 0.03,-8.799996 0.03,-13.239996 z"/>
    <path d="m 1115.25,115.64 c -0.81,-2.08 -0.68,-2.35 1.18,-2.73 l 1.44,-0.31 c 3.44,-0.73 4.47,-1.79 4.52,-5.36 0.13,-9.939996 0.12,-19.879993 0.23,-29.819993 0,-3.13 -0.93,-5.53 -3.77,-7.19 -1.91,-1.12 -1.7,-2.13 0.27,-3.07 3.48,-1.67 7,-3.37 10.43,-5 0.49,-0.23 1,-0.36 1.7,-0.59 1,3 -0.1,6 0.86,9.13 0.64,-0.36 1.19,-0.6 1.67,-0.94 1.94,-1.39 3.77,-2.94 5.8,-4.17 a 25.52,25.52 0 0 1 4.94,-2.14 7,7 0 0 1 2.67,-0.24 5.13,5.13 0 0 1 4.8,3.62 5.65,5.65 0 0 1 -1.86,5.76 5.14,5.14 0 0 1 -6,0.44 c -1.23,-0.64 -2.47,-1.27 -3.76,-1.79 -3.14,-1.26 -6.71,0.71 -7.77,4.12 a 12.48,12.48 0 0 0 -0.65,3.62 c -0.07,9.44 -0.12,18.889997 0,28.339993 0,3.75 1.22,4.85 5,5.38 1.22,0.17 2.45,0.23 3.68,0.33 a 1.27,1.27 0 0 1 1.35,1.41 1.21,1.21 0 0 1 -1.38,1.34 h -1 -23.17 c -0.41,-0.05 -0.81,-0.11 -1.18,-0.14 z"/>
    <path d="m 1186.44,251.72 c 0.4,2.41 0.29,2.62 -1.65,2.6 -2.88,-0.05 -5.75,-0.25 -8.63,-0.25 -3.94,0 -7.89,0.15 -11.83,0.24 a 4.38,4.38 0 0 1 -1.7,0 2.31,2.31 0 0 1 -1.19,-1.25 c -0.22,-0.68 0.2,-1.26 1,-1.4 1,-0.17 2,-0.32 2.91,-0.51 2.51,-0.48 3.59,-1.56 3.9,-4.06 a 40.56,40.56 0 0 0 0.33,-4.67 q 0,-13.08 0,-26.14 c 0,-0.9 -0.11,-1.81 -0.18,-2.7 a 4.84,4.84 0 0 0 -2.19,-3.69 19.06,19.06 0 0 1 -2,-1.46 1.33,1.33 0 0 1 0.3,-2.38 c 4.3,-2 8.62,-4 13.24,-6.1 a 8.13,8.13 0 0 1 0.4,1.77 c -0.12,13.8 -0.28,27.61 -0.4,41.42 a 30.61,30.61 0 0 0 0.25,4.17 4.19,4.19 0 0 0 3.88,3.84 c 1.16,0.14 2.29,0.35 3.56,0.57 z"/>
    <path d="m 583.08,254.3 v -2.52 c 1.32,-0.24 2.52,-0.47 3.72,-0.67 a 4.15,4.15 0 0 0 3.87,-3.83 30.45,30.45 0 0 0 0.26,-3.44 c 0,-9.53 0,-19.07 0,-28.6 a 6.25,6.25 0 0 0 -3.13,-6 6.86,6.86 0 0 1 -1.19,-0.87 c -1,-0.91 -0.93,-1.78 0.22,-2.34 4.22,-2 8.46,-4 12.7,-6 0.12,-0.06 0.31,0 0.82,0.11 0,0.86 0.12,1.79 0.11,2.73 -0.13,13 -0.29,26 -0.4,38.95 a 36.59,36.59 0 0 0 0.33,4.91 c 0.4,3 1.34,3.87 4.39,4.41 0.65,0.11 1.29,0.28 1.94,0.34 1,0.09 1.6,0.46 1.52,1.52 -0.08,1.06 -0.74,1.37 -1.7,1.3 -0.58,0 -1.15,0 -1.73,0 z"/>
    <path d="m 691.31,200.07 c 0.06,0.83 0.14,1.53 0.14,2.22 l -0.24,41.89 c 0,0.41 0,0.82 0,1.23 0.12,3.91 1.43,5.57 5.13,5.86 0.49,0 1,0.23 1.45,0.27 a 1.32,1.32 0 0 1 1.36,1.64 c -0.1,1 -0.74,1.18 -1.57,1.16 -2,-0.05 -3.94,-0.13 -5.91,-0.13 q -7.64,0 -15.27,0.11 c -2.13,0 -2.58,-0.2 -2.61,-1.34 0,-1.68 1.35,-1.39 2.29,-1.58 4.9,-1 5.52,-1.48 5.67,-6.38 0.2,-6.48 0.14,-13 0.17,-19.46 0,-3.37 0,-6.73 0,-10.1 0,-2.77 -0.87,-5 -3.37,-6.37 a 4.76,4.76 0 0 1 -1,-0.71 c -0.91,-0.9 -0.8,-1.73 0.28,-2.37 l 0.22,-0.12 12.25,-5.74 a 5,5 0 0 1 1.01,-0.08 z"/>
    <path d="m 1361.87,199.89 c 0.06,1 0.14,1.7 0.14,2.39 -0.12,12.82 -0.27,25.63 -0.38,38.44 0,1.89 0.1,3.78 0.26,5.66 0.24,3.07 1.34,4.24 4.31,4.78 0.65,0.12 1.29,0.28 1.94,0.34 1,0.11 1.76,0.44 1.62,1.66 -0.14,1.22 -0.92,1.2 -1.8,1.18 -1.81,-0.06 -3.61,-0.13 -5.42,-0.13 -4.93,0 -9.85,0.06 -14.78,0.09 -0.66,0 -1.31,0 -2,0 a 1.22,1.22 0 0 1 -1.39,-1.34 1.18,1.18 0 0 1 1.07,-1.39 c 0.81,-0.12 1.62,-0.29 2.43,-0.43 3.13,-0.54 4.2,-1.7 4.42,-4.91 0.12,-1.8 0.21,-3.61 0.22,-5.42 0,-7.89 0,-15.77 0,-23.66 0,-0.82 -0.11,-1.64 -0.08,-2.46 a 5.88,5.88 0 0 0 -3.11,-5.49 6.89,6.89 0 0 1 -1.2,-0.86 c -0.94,-0.89 -0.88,-1.8 0.28,-2.34 4.36,-1.98 8.69,-3.93 13.47,-6.11 z"/>
    <path d="m 1173.2,186.72 a 6.18,6.18 0 0 1 -6.33,-6.35 6.62,6.62 0 0 1 6.73,-6.68 c 3.65,0 6.31,2.87 6.27,6.73 -0.04,3.86 -2.65,6.33 -6.67,6.3 z"/>
    <path d="m 1356.22,186.71 a 6.06,6.06 0 0 1 -6.38,-6.29 6.52,6.52 0 0 1 6.67,-6.71 6.33,6.33 0 0 1 6.36,6.66 c -0.07,3.9 -2.66,6.36 -6.65,6.34 z"/>
    <path d="m 685.77,186.72 a 6.12,6.12 0 0 1 -6.53,-6.17 6.57,6.57 0 0 1 6.79,-6.84 6.3,6.3 0 0 1 6.22,6.56 c 0.01,3.9 -2.52,6.42 -6.48,6.45 z"/>
    <path d="m 594.77,186.71 c -3.82,0 -6.4,-2.46 -6.43,-6.19 a 6.45,6.45 0 0 1 6.51,-6.81 c 3.67,-0.08 6.38,2.72 6.38,6.59 0,3.87 -2.48,6.4 -6.46,6.41 z"/>
</svg>
