<svg xmlns="http://www.w3.org/2000/svg" viewBox="0 0 2790 1145">
    <style>
        .a{fill:#21346a;stroke-width:2px;stroke:#005795;}
    </style>
    <defs>
        <style>
            .cls-1{fill:#122242;} .cls-2,.cls-3,.cls-4,.cls-5,.cls-6,.cls-7,.cls-8,.cls-9{fill:#21346a;stroke:#005795;}.cls-10,.cls-12,.cls-2,.cls-3,.cls-4,.cls-5,.cls-6,.cls-7,.cls-8,.cls-9{stroke-miterlimit:10;}.cls-2{stroke-width:1.55px;}.cls-3{stroke-width:1.59px;}.cls-4{stroke-width:1.59px;}.cls-5{stroke-width:1.59px;}.cls-6{stroke-width:1.53px;}.cls-12,.cls-7{stroke-width:1.55px;}.cls-8{stroke-width:1.57px;}.cls-9{stroke-width:1.55px;}.cls-10{stroke-width:1.6px;}.cls-11{font-size:73.81px;font-family:Avenir-Medium, Avenir;font-weight:500;}.cls-11,.cls-13{fill:#fff;}.cls-12{fill:#005795;stroke:#3a92d0;}
        </style>
    </defs>
    <g data-name="Background/map" transform="translate(-119.0211 -479.21)">
        <rect width="984.4" height="128.3" x="484.6" y="651" class="a" rx="8.5"/>
        <rect width="274.4" height="552" x="443.7" y="1055.4" class="a" rx="8.5"/>
        <rect width="274.4" height="552" x="938.8" y="1055.4" class="a" rx="8.5"/>
        <rect width="259.9" height="462.2" x="1435.8" y="1145.2" class="a" rx="8.5"/>
        <path d="m1845.2 651h-225.7a8.4 8.4 0 0 0-8.5 8.2v229.8a8.4 8.4 0 0 0 8.5 8.2h93.7a8.4 8.4 0 0 0 8.5-8.3l-1.2-118.6A8.4 8.4 0 0 1 1729 762l116.2 0.9a8.4 8.4 0 0 0 8.6-8.2v-95.4a8.4 8.4 0 0 0-8.5-8.3z" class="a"/>
        <path d="M2056.4 509.8V644.6a6.4 6.4 0 0 0 6.4 6.4h665.9a6.4 6.4 0 0 1 6.4 6.4v365.9a6.4 6.4 0 0 1-6.4 6.4h-509a6.4 6.4 0 0 0-6.4 6.4v118.2a6.4 6.4 0 0 0 6.4 6.4h659.8a6.4 6.4 0 0 0 6.4-6.4V509.8a6.4 6.4 0 0 0-6.4-6.4h-816.7a6.4 6.4 0 0 0-6.4 6.4z" class="a"/>
        <path d="m2764.9 1373.3v119.5a6.5 6.5 0 0 1-6.4 6.6h-108.3a6.5 6.5 0 0 0-6.4 6.6v94.6a6.5 6.5 0 0 0 6.4 6.6h229.5a6.5 6.5 0 0 0 6.4-6.6v-227.4a6.5 6.5 0 0 0-6.4-6.6h-108.3a6.5 6.5 0 0 0-6.4 6.6z" class="a"/>
        <path d="m2071.7 1373.3v119.5a6.5 6.5 0 0 1-6.4 6.6h-105.1a6.5 6.5 0 0 0-6.4 6.6v94.6a6.5 6.5 0 0 0 6.4 6.6h223a6.5 6.5 0 0 0 6.4-6.6v-227.4a6.5 6.5 0 0 0-6.4-6.6H2078.1a6.5 6.5 0 0 0-6.4 6.6z" class="a"/>
        <polygon points="1853.7 635 336.3 635 336.3 651 1853.7 651 1853.7 1040.9 1869.8 1040.9 1869.8 503.4 2886 503.4 2886 1160.8 2192.1 1160.8 2192.1 1176.8 2886 1176.8 2886 1607.4 2207.4 1607.4 2207.4 1288.2 2191.3 1288.2 2191.3 1607.4 1869.8 1607.4 1869.8 1168.8 1853.7 1168.8 1853.7 1607.4 343.3 1607.4 137.1 850.5 137.3 850.1 248.9 738.5 237.5 727.2 124.5 840.3 119.9 848.3 328.3 1613.3 328.3 1623.4 2902.1 1623.4 2902.1 487.4 1853.7 487.4 " class="cls-10" style="fill:#005795;stroke-width:2px;stroke:#005795"/>
    </g>
</svg>
