<svg xmlns="http://www.w3.org/2000/svg" xmlns:xlink="http://www.w3.org/1999/xlink" viewBox="0 0 3000 1687">
    <defs>
        <style>
            .cls-1{fill:#122242;}.cls-10, .cls-2,.cls-3,.cls-4,.cls-5,.cls-6,.cls-7,.cls-8,.cls-9{fill:#21346a;stroke:#005795;}.cls-10,.cls-12,.cls-2,.cls-3,.cls-4,.cls-5,.cls-6,.cls-7,.cls-8,.cls-9{stroke-miterlimit:10;}.cls-2{stroke-width:1.55px;}.cls-3{stroke-width:1.59px;}.cls-4{stroke-width:1.59px;}.cls-5{stroke-width:1.59px;}.cls-6{stroke-width:1.53px;}.cls-12,.cls-7{stroke-width:1.55px;}.cls-8{stroke-width:1.57px;}.cls-9{stroke-width:1.55px;}.cls-10{stroke-width:1.6px;}.cls-11{font-size:73.81px;font-family:Avenir-Medium, Avenir;font-weight:500;}.cls-11,.cls-13{fill:#fff;}.cls-12{fill:#005795;stroke:#3a92d0;}
        </style>
        <pattern id="image" width="100%" height="100%" x="0%" y="0%" viewBox="0 0 512 512">
            <image width="512" height="512" x="0%" y="0%" xlink:href="users/guest.jpg"/>
        </pattern>
    </defs>
    <title>
        SeatingChart
    </title>
    <g id="solid">
        <rect width="3000" height="1687" class="cls-1"/>
    </g>
    <g id="Background_map" data-name="Background/map">
        5&quot;/&gt;
        <text class="cls-11" transform="translate(559.96 850.16)">
            1
        </text>
        <text class="cls-11" transform="translate(765.35 850.16)">
            2
        </text>
        <text class="cls-11" transform="translate(969.94 850.16)">
            3
        </text>
        <text class="cls-11" transform="translate(1165.32 850.16)">
            4
        </text>
        <text class="cls-11" transform="translate(1353.06 850.15)">
            5
        </text>
        <text class="cls-11" transform="translate(377.53 1171.08)">
            6
        </text>
        <text class="cls-11" transform="translate(376.65 1348.9)">
            7
        </text>
        <text class="cls-11" transform="translate(377.53 1522.48)">
            8
        </text>
        <text class="cls-11" transform="translate(743.31 1171.08)">
            9
        </text>
        <text class="cls-11" transform="translate(721.91 1348.9)">
            10
        </text>
        <text class="cls-11" transform="translate(722.79 1522.48)">
            11
        </text>
        <text class="cls-11" transform="translate(848.8 1171.08)">
            12
        </text>
        <text class="cls-11" transform="translate(847.92 1348.9)">
            13
        </text>
        <text class="cls-11" transform="translate(848.8 1522.48)">
            14
        </text>
        <text class="cls-11" transform="translate(1221.9 1171.08)">
            15
        </text>
        <text class="cls-11" transform="translate(1221.02 1348.9)">
            16
        </text>
        <text class="cls-11" transform="translate(1221.9 1522.48)">
            17
        </text>
        <text class="cls-11" transform="translate(1346.67 1368.68)">
            19
        </text>
        <text class="cls-11" transform="translate(1346.67 1522.46)">
            20
        </text>
        <text class="cls-11" transform="translate(1524.7 1119.94)">
            18
        </text>
        <text class="cls-11" transform="translate(1704.41 1368.68)">
            21
        </text>
        <text class="cls-11" transform="translate(1704.41 1522.46)">
            22
        </text>
        <text class="cls-11" transform="translate(2105.25 724.81)">
            23
        </text>
        <text class="cls-11" transform="translate(2325.89 724.81)">
            24
        </text>
        <text class="cls-11" transform="translate(2546.52 724.8)">
            25
        </text>
        <text class="cls-11" transform="translate(2635.18 850.79)">
            26
        </text>
        <text class="cls-11" transform="translate(2602.68 992.25)">
            27
        </text>
        <text class="cls-11" transform="translate(2430.19 992.25)">
            28
        </text>
        <text class="cls-11" transform="translate(2250.71 992.25)">
            29
        </text>
        <text class="cls-11" transform="translate(1962.44 1468.13)">
            31
        </text>
        <text class="cls-11" transform="translate(1743.42 850.15)">
            30
        </text>
        <text class="cls-11" transform="translate(2670.36 1468.13)">
            32
        </text>
    </g>
    <g id="Seats">
        <circle id="Seat1" cx="580.9" cy="710.55" r="43.32" class="cls-12" style="fill:url(#image)"/>
        <circle id="Seat2" cx="786.3" cy="710.55" r="43.32" class="cls-12"/>
        <circle id="Seat3" cx="990.88" cy="710.55" r="43.32" class="cls-12"/>
        <circle id="Seat4" cx="1185.85" cy="710.55" r="43.32" class="cls-12"/>
        <circle id="Seat5" cx="1373.59" cy="710.55" r="43.32" class="cls-12"/>
        <circle id="Seat6" cx="502.28" cy="1151.24" r="43.32" class="cls-12"/>
        <circle id="Seat7" cx="502.28" cy="1322.34" r="43.32" class="cls-12"/>
        <circle id="Seat8" cx="502.28" cy="1499.51" r="43.32" class="cls-12"/>
        <circle id="Seat9" cx="657.92" cy="1149.22" r="43.32" class="cls-12"/>
        <circle id="Seat10" cx="657.04" cy="1320.32" r="43.32" class="cls-12"/>
        <circle id="Seat11" cx="657.92" cy="1497.49" r="43.32" class="cls-12"/>
        <circle id="Seat12" cx="998.14" cy="1147.2" r="43.32" class="cls-12"/>
        <circle id="Seat13" cx="997.26" cy="1318.3" r="43.32" class="cls-12"/>
        <circle id="Seat14" cx="998.14" cy="1495.46" r="43.32" class="cls-12"/>
        <circle id="Seat15" cx="1152.99" cy="1146.19" r="43.32" class="cls-12"/>
        <circle id="Seat16" cx="1152.11" cy="1317.29" r="43.32" class="cls-12"/>
        <circle id="Seat17" cx="1152.99" cy="1494.45" r="43.32" class="cls-12"/>
        <circle id="Seat19" cx="1501.16" cy="1339.91" r="43.32" class="cls-12"/>
        <circle id="Seat20" cx="1501.16" cy="1498.25" r="43.32" class="cls-12"/>
        <circle id="Seat21" cx="1630.32" cy="1339.91" r="43.32" class="cls-12"/>
        <circle id="Seat22" cx="1630.32" cy="1498.25" r="43.32" class="cls-12"/>
        <circle id="Seat18" cx="1565.74" cy="1204.05" r="43.32" class="cls-12"/>
        <circle id="Seat30" cx="1675.25" cy="715.18" r="43.32" class="cls-12"/>
        <circle id="Seat23" cx="2146.29" cy="577.38" r="43.32" class="cls-12"/>
        <circle id="Seat24" cx="2366.93" cy="577.38" r="43.32" class="cls-12"/>
        <circle id="Seat25" cx="2587.56" cy="577.38" r="43.32" class="cls-12"/>
        <circle id="Seat26" cx="2810.2" cy="822.66" r="43.32" class="cls-12"/>
        <circle id="Seat28" cx="2471.23" cy="1091.2" r="43.32" class="cls-12"/>
        <circle id="Seat29" cx="2291.75" cy="1091.2" r="43.32" class="cls-12"/>
        <circle id="Seat31" cx="2125.34" cy="1536.77" r="43.32" class="cls-12"/>
        <circle id="Seat32" cx="2820.97" cy="1536.77" r="43.32" class="cls-12"/>
        <circle id="Seat27" cx="2643.72" cy="1091.2" r="43.32" class="cls-12"/>
    </g>
    <g id="LCDI_Title" data-name="LCDI Title">
        <path d="M570.31,97.16c0,1.14.1,2.29.1,3.44V328.17a26.91,26.91,0,0,1-6.76.18c-.06-1.38-.16-2.58-.16-3.79q0-111.72,0-223.46c0-1.32-.05-2.63-.08-3.94Z" class="cls-13"/>
        <path d="M161.24,139.59c.89.07,1.79.2,2.68.2,7.24,0,14.47,0,21.7,0h2.82a17.29,17.29,0,0,1,.29,2.1c0,2.3,0,4.6,0,6.91q0,52.89,0,105.78c0,3.93,0,3.93,3.91,3.94l31.56.11h2.35c.7,2.07.75,25,0,27.47l-65.42,0Z" class="cls-13"/>
        <path d="M319.5,139.8c.07,1.24.16,2,.16,2.86,0,7.39,0,14.79,0,22.19,0,.5,0,1-.05,1.48a1.3,1.3,0,0,1-1.44,1.34l-1.73,0c-9,0-17.92-.24-26.88-.06-23,.45-39.18,15.42-42.67,36.3-2.09,12.56-.34,24.45,6.6,35.24,6.8,10.55,16.73,16.47,29,18.51,6.94,1.15,13.94.68,20.92.65,5.33,0,10.66,0,16,0,.62,1.71.8,24.22.2,27.5a18,18,0,0,1-2,.22c-10.11,0-20.24.39-30.33-.11-26.65-1.32-47-13.26-60-36.91-5-9.05-7.42-18.89-8.27-29.18-1-12,.23-23.68,4.58-34.88,9.47-24.35,27.3-38.79,52.85-43.81a82.59,82.59,0,0,1,15.69-1.35c8.14,0,16.28,0,24.42,0Z" class="cls-13"/>
        <path d="M333.78,286V181.35h27c.06,1,.18,2,.18,3.07q0,35,0,70.06c0,.74,0,1.48,0,2.22-.05,1.26.58,1.85,1.78,1.79,2.14-.09,4.28-.12,6.4-.37a45.13,45.13,0,0,0,17.7-5.69,38.76,38.76,0,0,0,17.27-20.23,51.66,51.66,0,0,0-.47-39,41.86,41.86,0,0,0-7.54-11.84,10.39,10.39,0,0,1,1.7-.32c9.54,0,19.08,0,28.62-.05a2.84,2.84,0,0,1,3.07,2.16,80.46,80.46,0,0,1,5.12,21.75c1.17,13-.18,25.66-5.19,37.72-9.42,22.69-26.33,36.58-50.3,41.89a71.73,71.73,0,0,1-15.67,1.58H336.82C335.86,286.12,334.9,286,333.78,286Z" class="cls-13"/>
        <path d="M445.26,181.49c2-.52,23.48-.62,26.15-.16,0,.06.11.11.16.18s.13.12.14.19a14.22,14.22,0,0,1,.18,1.7q0,50.79,0,101.58a2.21,2.21,0,0,1-.21.66c-1.89.62-23.7.72-26.21.13C444.9,284,444.71,185,445.26,181.49Z" class="cls-13"/>
        <path d="M420.4,167.28c-4.95.56-84.37.33-86.28-.24v-27c.78-.09,1.49-.23,2.19-.24,9.29,0,18.59-.17,27.88,0,17.11.39,32.7,5.29,45.91,16.52,3.18,2.7,5.92,5.92,8.83,8.93A19.9,19.9,0,0,1,420.4,167.28Z" class="cls-13"/>
        <path d="M445,167.32c0-9.2-.11-18.18.08-27.35,1.08-.07,1.88-.16,2.68-.16h21.44l1.23,0c1,0,1.47.56,1.45,1.55,0,.41,0,.82,0,1.23v22.18c0,.41,0,.82,0,1.23a1.31,1.31,0,0,1-1.52,1.49c-.5,0-1,0-1.48,0H447.94C447.07,167.5,446.19,167.4,445,167.32Z" class="cls-13"/>
        <path d="M1371.68,363.62c-.77-.23-1.54-.5-2.32-.67-4-.87-7.73-2.27-10.66-5.3a12.46,12.46,0,0,1-3.74-9.58,6.7,6.7,0,0,1,2.08-4.83c2.37-2.28,4.7-4.6,7-6.9.41-.41.84-.8,1.22-1.22,1.8-2,1.66-2.65-.81-3.66a12.86,12.86,0,0,1-6.14-4.75,16.2,16.2,0,0,1-1.37-2.88c-.64-1.62,0-2.77,1.31-3.81,2.21-1.71,4.34-3.52,6.39-5.41a19.65,19.65,0,0,0,2.23-3c-.74-.58-1.22-1-1.75-1.36-11.2-7.28-10.24-22.25-.57-29.53,5.24-3.94,11.18-4.94,17.52-4.1a31.08,31.08,0,0,1,9.19,2.71,16.42,16.42,0,0,0,7.88,1.62c2.63-.11,5.26-.05,7.89,0,1.8,0,2.34.54,2.37,2.08,0,1.72-.74,2.78-2.34,2.84-2.38.1-4.76.05-7.15.07a11.67,11.67,0,0,0-1.29.2c0,.87,0,1.73,0,2.6,0,3.45.18,6.89-.86,10.27-2.42,7.9-7.82,12.39-15.86,13.6a43.13,43.13,0,0,1-8.58.14c-3.55-.19-7.91,3.84-7.75,7.39a4.43,4.43,0,0,0,3,4.16,20.12,20.12,0,0,0,6.19,1.33c4.1.1,8.21-.3,12.32-.31a69.25,69.25,0,0,1,9.34.47c7.68,1,11.59,5.69,11.65,13.38a19.67,19.67,0,0,1-5.92,14.18c-5.28,5.5-11.94,8.29-19.3,9.64-.79.15-1.56.42-2.34.64Zm9.93-5.1c1.94-.23,3.92-.33,5.83-.74,5.06-1.09,9.48-3.29,12.15-8,3.72-6.58.71-13.93-6.51-16.07a12.24,12.24,0,0,0-1.67-.39,67.08,67.08,0,0,0-16.93,0,10,10,0,0,0-4.39,1.36c-4,2.72-6.18,6.58-5.89,11.49s3,8.22,7.33,10.26A25.16,25.16,0,0,0,1381.61,358.52Zm-14.52-63.86c.13,4.28,1.24,8.58,4.7,11.94,5.73,5.55,14.6,3.5,17.12-4.05a21.91,21.91,0,0,0-1.13-16.77,9.93,9.93,0,0,0-9.35-6.13c-4.38,0-7.42,2.26-9.39,6.06A19.43,19.43,0,0,0,1367.09,294.66Z" class="cls-13"/>
        <path d="M793.35,363.62c-.78-.22-1.55-.48-2.34-.64-4.27-.87-8.19-2.4-11.24-5.69a12.92,12.92,0,0,1-3.42-7.49,7.55,7.55,0,0,1,2.26-6.74c2.34-2.19,4.6-4.47,6.89-6.71.35-.34.72-.68,1-1,2.07-2.22,2-2.73-.79-3.92-3.28-1.42-5.92-3.53-7.17-7-.83-2.33-.59-2.89,1.3-4.43,2.16-1.76,4.3-3.56,6.35-5.45a18.43,18.43,0,0,0,2.11-2.83,18,18,0,0,0-1.68-1.37c-11.61-7.28-10.51-24,1.33-30.9,5.8-3.39,12-3.72,18.36-2.2a51.23,51.23,0,0,1,7,2.4A16.26,16.26,0,0,0,820,281c2.79-.09,5.59,0,8.38,0,2,0,2.31.33,2.37,2,.08,2-.56,2.87-2.41,3s-3.62,0-5.43,0h-2.89c0,1.19,0,2.06,0,2.94-.2,3.18,0,6.45-.72,9.53a18.07,18.07,0,0,1-15.8,14.22,49,49,0,0,1-8.57.15c-3.54-.19-8,3.7-7.92,7.22a4.86,4.86,0,0,0,2.85,4.3,12.86,12.86,0,0,0,6.43,1.4c4.19-.08,8.38-.36,12.57-.36a58,58,0,0,1,9.32.52c7.82,1.25,12.14,6.24,11.27,15.34-.57,5.89-3.58,10.5-8,14.23A35.92,35.92,0,0,1,804.3,363a15.4,15.4,0,0,0-2.07.63Zm11-31v.3c-2,0-4.12-.13-6.16,0-2.35.19-4.8.23-6.82,1.74-3.87,2.9-6,6.7-5.65,11.63s3.14,8.13,7.49,10.14a16.7,16.7,0,0,0,2.3.86,26.27,26.27,0,0,0,11.21.83c4.83-.6,9.27-2.25,12.62-6a11.55,11.55,0,0,0,2.63-11.9c-1.36-4.24-4.68-6.23-8.8-6.89C810.22,332.94,807.25,332.89,804.31,332.65Zm7.33-36.76c-.27-4.16-1-8.09-3.27-11.56a10.05,10.05,0,0,0-16.85-.33,14,14,0,0,0-1.8,3.48,20.42,20.42,0,0,0,.13,14,13.35,13.35,0,0,0,3.88,5.61c5.75,4.9,13.94,2.85,16.48-4.25A49.49,49.49,0,0,0,811.64,295.89Z" class="cls-13"/>
        <path d="M1661.83,328.58a10.46,10.46,0,0,1-1.9.37q-10.59,0-21.19,0c-2,0-2.08-.12-1.74-2.56l3.26-.65c2.62-.55,3.68-1.67,4-4.3a42.92,42.92,0,0,0,.32-4.67q0-10.47,0-21a27.15,27.15,0,0,0-.37-4.41c-.82-4.86-3.81-7.9-8.63-8.95a16.28,16.28,0,0,0-11.23,1.57,9,9,0,0,0-5.2,7.55A14.67,14.67,0,0,0,1619,293q.08,13.56.19,27.12c0,3.14.94,5.27,5,5.73.48.06.95.24,1.44.32,1,.17,1.12.84,1,1.65s-.61,1.11-1.37,1.1h-21.44c-2.07,0-2.09-.05-1.87-2.56,1-.19,2.15-.4,3.26-.59,3-.52,4.13-1.65,4.39-4.7.13-1.39.13-2.79.14-4.19,0-8.8-.08-17.59,0-26.39,0-3.1-.84-5.45-3.6-7a3.62,3.62,0,0,1-1.11-1,1.09,1.09,0,0,1,.26-1.71,8.06,8.06,0,0,1,1.1-.55c3.54-1.72,7.09-3.43,10.62-5.17,1.58-.78,2.11-.52,2.08,1.23,0,1.23-.23,2.45-.24,3.68,0,2.74.91,3.26,3.26,1.9,4.06-2.36,8.2-4.61,12.92-5.27a23.9,23.9,0,0,1,6.86-.08c6.32.95,10.41,5.25,11.33,11.62a42.21,42.21,0,0,1,.39,5.39c0,8.22,0,16.44.07,24.66a26.9,26.9,0,0,0,.46,4.39,3.38,3.38,0,0,0,2.78,2.82c1.59.33,3.22.42,4.84.62Z" class="cls-13"/>
        <path d="M671,243.13c7.31.23,14.63.27,21.92.76A50.31,50.31,0,0,1,716.5,251c10,6.25,15.79,15.36,17.52,27,1.59,10.66.09,20.85-5.59,30.14-6.52,10.69-16.22,17-28.3,19.76a74.34,74.34,0,0,1-20.07,1.73c-5.66-.26-11.32-.74-17-.88-4.76-.12-9.53.11-14.3.18l-2,0c-.93,0-1.32-.51-1.34-1.39a1.16,1.16,0,0,1,1.09-1.35c1.06-.15,2.11-.33,3.17-.49,4.62-.7,6.29-2.46,6.59-7.11.19-2.95.33-5.91.33-8.87q0-24.28,0-48.58c0-2.38-.14-4.77-.34-7.14-.35-4.23-2-5.93-6.3-6.53-.65-.09-1.29-.21-1.93-.36a1.25,1.25,0,0,1-1.07-1.64,2,2,0,0,1,1.33-1.12,53.83,53.83,0,0,1,5.4-.43c5.75-.23,11.5-.42,17.24-.62Zm-4.13,39.49h0c0,8.3,0,16.61,0,24.91a59,59,0,0,0,.53,7.86c.79,5.39,4,8.66,9.29,9.9a42.26,42.26,0,0,0,15.45.45c12.36-1.68,21.53-7.81,26.29-19.58a51.12,51.12,0,0,0,2.32-31.7c-3.22-13.35-11.61-22-24.9-25.75-7-2-14.12-2-21.28-1.53a32.9,32.9,0,0,0-4.6.84,3,3,0,0,0-2.68,2.81,37.24,37.24,0,0,0-.39,3.91C666.85,264,666.86,273.33,666.86,282.62Z" class="cls-13"/>
        <path d="M836,144.57l3-1.91c4.87-3.13,10.1-5.15,16-4.86a23.49,23.49,0,0,1,4.86.73c6.23,1.66,10.09,6.61,10.34,13.43.17,4.76,0,9.53.09,14.3.07,5.42.2,10.84.34,16.26a7.64,7.64,0,0,0,.36,1.93,3.6,3.6,0,0,0,3,2.61c1.28.25,2.59.39,3.9.55a1.31,1.31,0,0,1,1.31,1.46c0,.93-.53,1.32-1.42,1.31l-1.23,0-20.71,0a3.94,3.94,0,0,1-1.46,0c-.45-.2-1.07-.7-1.06-1.06a1.94,1.94,0,0,1,.82-1.52,17.61,17.61,0,0,1,3.12-.64,4.15,4.15,0,0,0,3.67-3.76,20.33,20.33,0,0,0,.21-2.7q0-12.09,0-24.17a15.21,15.21,0,0,0-.21-2.7c-1.53-8.46-7.54-11.5-15.65-10.15a15.07,15.07,0,0,0-7.22,3.55,6.21,6.21,0,0,0-2.38,4.93c0,9.7,0,19.4.05,29.1a18.32,18.32,0,0,0,.31,2.19,4,4,0,0,0,3.65,3.74l2.91.5c.93.17,1.18.8,1.1,1.63a1.18,1.18,0,0,1-1.35,1.12l-1.24,0H820.4c-1,0-2.27.43-2.54-1.16-.17-1,.41-1.41,2.42-1.67l.24,0c4.84-.67,5.78-1.7,6-6.68.07-2.06,0-4.11,0-6.17q0-30,0-59.93c0-.65,0-1.31,0-2a6.73,6.73,0,0,0-3.6-6c-.93-.53-2.33-.91-2-2.42.24-1.35,1.62-1.21,2.56-1.59,3.35-1.34,6.74-2.58,10.09-3.93,2.18-.88,2.6-.64,2.57,1.71q-.19,20.22-.37,40.43C835.66,141.93,835.85,143,836,144.57Z" class="cls-13"/>
        <path d="M1053.76,107c.28,2.94.55,5.79.84,8.65s.58,5.71.92,8.57c.1.83,0,1.51-.88,1.74s-1.82.11-2.17-1c-.15-.47-.3-.94-.44-1.41-2.53-8.45-8.06-13.8-16.66-15.76-9.34-2.13-18.49-1.43-27.15,2.81-9,4.42-14.66,11.78-17.3,21.36a51.51,51.51,0,0,0,1.2,32.46c5.13,13.62,15.08,21.56,29.51,23.79a35.25,35.25,0,0,0,13.23-.29c9-2,15.14-7.52,19.1-15.68.28-.59.42-1.36.89-1.72a2.65,2.65,0,0,1,2-.49c.39.09.8.94.84,1.48a5.61,5.61,0,0,1-.39,2.16q-1.83,5.61-3.74,11.2a5.9,5.9,0,0,1-4.31,3.86,75.51,75.51,0,0,1-25.26,3.48c-8.37-.29-16.53-1.74-24-5.65-15-7.83-22.87-20.29-23.33-37.22-.36-13.1,4.1-24.35,13.8-33.29,7-6.41,15.34-10.05,24.57-11.78,11.6-2.18,23.07-1,34.45,1.66C1050.74,106.21,1052.09,106.55,1053.76,107Z" class="cls-13"/>
        <path d="M675.29,190.36H647.67a5.74,5.74,0,0,1-1.95-.05,2.2,2.2,0,0,1-1.14-1.29c-.2-.71.28-1.26,1-1.37,1.39-.19,2.78-.31,4.16-.5,4.58-.62,6.2-2.27,6.52-6.83.2-2.87.34-5.74.34-8.62q0-24,0-48.09c0-2.87-.14-5.75-.34-8.62-.33-4.58-2.15-6.47-6.68-7-1.14-.14-2.3-.15-3.44-.28-.84-.09-1.69-.26-1.66-1.4s.68-1.59,1.78-1.51c.57,0,1.15,0,1.73,0h27.1a5.25,5.25,0,0,1,2,.06,2.06,2.06,0,0,1,1,1.37c.07.37-.42,1-.82,1.24a5.74,5.74,0,0,1-1.92.34c-.74.08-1.48.07-2.21.18-3.8.57-5.26,2-5.93,5.79a24.29,24.29,0,0,0-.38,4.16q0,27.87,0,55.74a30.38,30.38,0,0,0,.54,5.38,7.54,7.54,0,0,0,6.18,6.55,29.33,29.33,0,0,0,6.08.87c5.25,0,10.51-.16,15.76-.39a8.37,8.37,0,0,0,6.78-3.51c1.79-2.54,3.33-5.25,4.95-7.91a9.66,9.66,0,0,0,.82-1.79c.41-1.11,1.24-1.23,2.2-.92s1,1,.78,1.8-.36,1.77-.61,2.64c-1.19,4-2.36,8-3.64,12-.66,2-.78,2-2.83,2h-28.6Z" class="cls-13"/>
        <path d="M1176.43,190.21c-5,0-9.72,0-14.48,0-2.8,0-5.59.09-8.39.14-.83,0-1.71.09-1.86-1.08s.45-1.67,1.54-1.73a2.64,2.64,0,0,0,.49-.08c4.77-1,5.33-1.56,5.7-6.49.18-2.37.12-4.76.12-7.15q0-8.13,0-16.28a24,24,0,0,0-.27-3.68c-.94-6.36-4-9.48-10.4-10.25a15.6,15.6,0,0,0-10.59,2.43,8.64,8.64,0,0,0-4.17,6.91c0,.58-.14,1.15-.14,1.72q.06,13.56.16,27.13a9.81,9.81,0,0,0,.17,1.71,4.2,4.2,0,0,0,3.36,3.52c1,.22,1.93.39,2.9.58s1.12.85,1,1.66-.63,1.09-1.36,1.09c-.5,0-1,0-1.48,0h-19.24a5.43,5.43,0,0,1-1.71,0c-.44-.16-1-.71-1-1.07a1.94,1.94,0,0,1,.82-1.51,20,20,0,0,1,3.14-.6c2.4-.5,3.42-1.51,3.77-3.91a28.8,28.8,0,0,0,.18-3.94c0-9.21-.07-18.42.06-27.63,0-2.93-.84-5.12-3.42-6.56a5.57,5.57,0,0,1-.81-.56c-1.06-1-1-1.8.29-2.48.5-.27,1.06-.44,1.58-.69,3-1.46,6-3,9.09-4.38a13.82,13.82,0,0,1,2.23-.6,18.36,18.36,0,0,1,.37,2.32c0,1.06-.16,2.13-.11,3.19.1,2.36.89,2.78,2.93,1.69,2.33-1.23,4.6-2.57,7-3.61a22.09,22.09,0,0,1,13.21-1.9c6,1.16,9.84,4.85,11,10.81a27.8,27.8,0,0,1,.5,5.14c.06,8.72,0,17.43.08,26.15a23.56,23.56,0,0,0,.4,3.65,3.79,3.79,0,0,0,3.27,3.25c.88.18,1.77.33,2.67.48C1177,187.88,1177.1,188.06,1176.43,190.21Z" class="cls-13"/>
        <path d="M1126.73,326.44v2.11a2.83,2.83,0,0,1-.76.35c-.66.05-1.32,0-2,0-6.49,0-13,0-19.47,0-1,0-2.46.66-2.76-1.14-.19-1.11.32-1.46,2.56-1.9.48-.09,1-.13,1.46-.24a4.19,4.19,0,0,0,3.47-4c.17-1.8.28-3.61.29-5.41q0-10.11,0-20.22a32.27,32.27,0,0,0-.25-3.93c-.63-5.32-3.72-8.65-9-9.72a16.12,16.12,0,0,0-11.41,1.86,8.73,8.73,0,0,0-4.7,6.83,32.51,32.51,0,0,0-.26,3.68q0,10.73,0,21.45a42.47,42.47,0,0,0,.36,5.16c.34,2.8,1.35,3.8,4.16,4.39.72.15,1.44.31,2.17.44.94.17,1.18.8,1.08,1.63a1.19,1.19,0,0,1-1.36,1.12c-1.23,0-2.46-.08-3.69-.08l-16.51.05h-3.11c-.1-.85-.18-1.54-.26-2.18a3.46,3.46,0,0,1,.79-.45c1.05-.21,2.1-.39,3.15-.57a4.12,4.12,0,0,0,3.78-3.63,17.51,17.51,0,0,0,.26-2.7c0-9.86,0-19.72.07-29.58a6.2,6.2,0,0,0-3.17-5.95,7.93,7.93,0,0,1-1-.72c-1.21-1.07-1.13-1.9.32-2.61q5.73-2.82,11.51-5.59c1.12-.54,1.7-.15,1.69,1.14s-.19,2.29-.24,3.44a7.12,7.12,0,0,0,.13,2c.31,1.2,1.09,1.54,2.23,1,.81-.39,1.57-.9,2.36-1.34,3.58-2,7.28-3.89,11.41-4.44a24.78,24.78,0,0,1,7.09,0c6.4,1,10.48,5.54,11.22,12a43,43,0,0,1,.23,4.68q.11,12.69.18,25.39c0,.65,0,1.31.08,2,.26,3.45,1.28,4.55,4.77,5.15C1124.61,326,1125.56,326.22,1126.73,326.44Z" class="cls-13"/>
        <path d="M1441.75,164.5c0,7.81-2.36,14.72-8.07,20.25a25.21,25.21,0,0,1-16.15,7,28.61,28.61,0,0,1-13.54-1.87c-9.07-3.84-14.07-10.83-15.32-20.45a28,28,0,0,1,3-17.46c4.93-8.95,12.65-13.69,22.76-14.16,9.92-.47,17.94,3.37,23.42,11.87C1440.56,154,1441.76,158.77,1441.75,164.5Zm-10.37,1.89c-.45-3.16-.73-6.35-1.4-9.47a22.33,22.33,0,0,0-6.13-11.86,13.26,13.26,0,0,0-20.25,1.82,21.63,21.63,0,0,0-3.42,7.59,38.82,38.82,0,0,0-.31,17.09,24.44,24.44,0,0,0,5.49,11.95c3.76,4.2,8.41,5.87,14,4.58,4.44-1,7.25-4,9.1-8A36.21,36.21,0,0,0,1431.38,166.39Z" class="cls-13"/>
        <path d="M1565,330.47c-11.65,0-21.07-6.36-24.61-16.66-4-11.53-.6-24.71,9-32,11.6-8.79,28.75-6.83,37.38,4.41,4.78,6.22,6.07,13.37,5.13,21a26.2,26.2,0,0,1-6.78,15C1579.67,328.05,1572.82,330.49,1565,330.47Zm16.57-26.85c-.23-1.66-.48-4.86-1.16-8-1-4.64-2.82-8.94-6.42-12.25a13.19,13.19,0,0,0-19.9,1.89,20.83,20.83,0,0,0-3.41,7.33,39.17,39.17,0,0,0-.25,18.3,24.39,24.39,0,0,0,5,10.84c3.51,4.13,7.93,6,13.37,5.06,5-.83,8.13-4,10.13-8.45C1580.85,314.19,1581.44,309.72,1581.56,303.62Z" class="cls-13"/>
        <path d="M1367.6,164c.13,6.07.17,12.16.44,18.23.17,3.67,1.13,4.52,4.73,5,1.14.16,2.29.25,3.44.31.92.06,1.66.32,1.65,1.39s-.83,1.45-1.84,1.41c-1.4-.05-2.8-.11-4.19-.11l-19,.06c-2,0-2.67-.26-2.63-1.33,0-1.59,1.34-1.36,2.35-1.52,5-.77,5.93-1.72,6-6.91.07-11,0-22,0-33,0-2.54-.45-2.94-3.06-3-1,0-2,0-3,0-.66,0-1.51,0-1.45-.9a2.24,2.24,0,0,1,.93-1.51,19.2,19.2,0,0,1,3.5-1.78c2.35-.88,3.08-2.47,3.13-4.94a57.21,57.21,0,0,1,3.28-19.34,29.81,29.81,0,0,1,7.81-11.82c6.28-5.67,13.6-7.33,21.76-5.36a9.32,9.32,0,0,1,5.69,3.66,4.42,4.42,0,0,1,.39,5.09,4.58,4.58,0,0,1-4.32,2.32,4.07,4.07,0,0,1-2.75-1.43,33.82,33.82,0,0,0-4.27-3.69c-6-3.89-12.23-2.17-15.1,4.35a29.89,29.89,0,0,0-2.41,9c-.6,6.12-.76,12.29-1,18.44-.09,2.55.5,3,3,3.07,4,.05,8.06,0,12.09,0,2.17,0,2.45.24,2.49,1.78.06,2-.77,3-2.61,3.05-3.86.05-7.73,0-11.59,0-3,0-3.41.42-3.43,3.45,0,5.34,0,10.68,0,16Z" class="cls-13"/>
        <path d="M1058,246c-1.69.19-3.24.34-4.78.54-3.65.48-5.27,1.95-5.91,5.53a26,26,0,0,0-.43,4.65q0,29.61,0,59.21a30.44,30.44,0,0,0,.49,4.65,5.39,5.39,0,0,0,4.63,4.78c1.93.38,3.88.67,5.8,1,.73,2.23.55,2.57-1.53,2.59-1.31,0-2.63,0-4,0l-24.16,0c-.66,0-1.32,0-2,0-.84,0-1.12-.6-1.15-1.32a1.15,1.15,0,0,1,1.06-1.38l3.66-.51c4.41-.63,6.21-2.48,6.53-6.94.21-2.95.35-5.91.36-8.87q0-23.81,0-47.61c0-2.88-.15-5.75-.35-8.62-.32-4.91-2.13-6.73-7-7.22-1-.1-2-.26-2.94-.35s-1.39-.43-1.34-1.38.61-1.44,1.61-1.4c1.15.05,2.31.07,3.46.07l24.65,0c.49,0,1,0,1.48,0C1058.16,243.39,1058.23,243.49,1058,246Z" class="cls-13"/>
        <path d="M911.91,178.23a30.44,30.44,0,0,0,1.58-2.65q5.75-13.34,11.43-26.71a13.06,13.06,0,0,0,.77-2.59c.37-1.92-.11-2.79-2-3.33-1.64-.48-3.35-.73-5-1.06-.6-2.39-.45-2.66,1.68-2.62,4.19.08,8.37.26,12.56.3,2,0,3.94-.18,5.91-.32,1-.06,1.65.21,1.78,1.23a1.41,1.41,0,0,1-1.42,1.66c-4.49.5-6.89,3.61-8.74,7.19q-5.09,9.85-9.86,19.87c-7.39,15.58-14.66,31.22-22,46.81a17.63,17.63,0,0,1-2.67,4.1,7.17,7.17,0,0,1-7,2.12,5,5,0,0,1-4.07-5.62c.21-2.73,1.84-4.6,4.62-4.38,4.55.36,7.27-1.67,9.11-5.57,1.61-3.41,3.45-6.72,5.11-10.11a16.29,16.29,0,0,0,.52-13.59c-2.56-6.67-4.89-13.42-7.33-20.14-1.43-3.94-2.85-7.88-4.3-11.8-.52-1.39-1.07-2.76-1.7-4.1a7.26,7.26,0,0,0-5.39-4.26c-.72-.15-1.45-.27-2.17-.45-.88-.21-1.53-.67-1.38-1.7s.81-1.32,1.77-1.27c2.38.14,4.76.34,7.14.33,4.27,0,8.54-.17,12.81-.27.58,0,1.15,0,1.73,0,.79,0,1.33.42,1.24,1.17a2.22,2.22,0,0,1-.85,1.53,12.17,12.17,0,0,1-2.61.66c-3.07.75-3.39,1.27-2.57,4.26.33,1.18.69,2.37,1.1,3.53q4.24,12.08,8.52,24.15C910.62,175.62,911.17,176.61,911.91,178.23Z" class="cls-13"/>
        <path d="M955.64,323.71a1.66,1.66,0,0,1-.22,2.44c-3.51,3.45-7.64,5.06-12.56,4a9.48,9.48,0,0,1-5.47-3.55c-1.79-2.23-2.19-2.25-4.73-.83-2,1.12-4,2.25-6.06,3.29a14,14,0,0,1-10.56.79,11.61,11.61,0,0,1-7.89-13.57,8.19,8.19,0,0,1,4-5.38,40,40,0,0,1,5.75-2.77c5-1.91,10-3.66,15-5.49,2.84-1,3.19-1.47,3.23-4.47a67,67,0,0,0-.11-9.08,9.59,9.59,0,0,0-15.43-6.32,5.49,5.49,0,0,0-2.46,4.61c.1,3.29-1.78,4.76-4.57,5.5a15.91,15.91,0,0,1-3.62.59c-1.32,0-1.85-.5-1.68-1.81a7,7,0,0,1,1-3,20.57,20.57,0,0,1,3.33-3.92,33,33,0,0,1,16.12-8,20,20,0,0,1,6.36-.12c6.24.89,9.9,5.18,10.07,11.75.09,3.93-.14,7.88-.22,11.82-.11,5.91-.27,11.82-.28,17.74a10.39,10.39,0,0,0,.89,3.8,5.37,5.37,0,0,0,7,3.22C953.61,324.61,954.56,324.15,955.64,323.71Zm-20.06-10.8h.06c.07-1.47.2-2.94.18-4.41,0-2.05-.55-2.64-2.51-2.24A36.27,36.27,0,0,0,920.77,311a6.79,6.79,0,0,0-3.11,7.67,7.62,7.62,0,0,0,5.71,6.13c2.82.8,5.31-.14,7.81-1.24a6.78,6.78,0,0,0,4.4-6.73C935.57,315.53,935.58,314.22,935.58,312.91Z" class="cls-13"/>
        <path d="M815.06,185.08a1.54,1.54,0,0,1,0,2.37c-5,5.49-14.14,6.24-18.39.35-1.4-1.93-2-1.94-4.17-.79s-4.15,2.33-6.27,3.42a14.12,14.12,0,0,1-11,.75,11.57,11.57,0,0,1-7.67-12.85,7.67,7.67,0,0,1,3.44-5.48,36.46,36.46,0,0,1,5.89-3c5.13-2,10.3-3.89,15.51-5.63,2.4-.81,3.52-2.21,3.44-4.69-.1-3.2.18-6.46-.35-9.57-1.22-7.13-10-10.1-15.61-5.47a6.39,6.39,0,0,0-2.2,4.52c-.16,1.54-.12,3.16-1.75,4.11a12.08,12.08,0,0,1-6.79,1.83,1.25,1.25,0,0,1-1.29-1.48,7.53,7.53,0,0,1,.82-3,21.8,21.8,0,0,1,3.62-4.32,33.85,33.85,0,0,1,16.63-8.1,16.49,16.49,0,0,1,8,.56A10.76,10.76,0,0,1,804.53,149c.17,5.09-.09,10.19-.19,15.29-.09,4.6-.3,9.2-.28,13.8a14.65,14.65,0,0,0,.87,4.81c1.17,3.26,4.06,4.55,7.36,3.45A28.17,28.17,0,0,0,815.06,185.08ZM795,174.56h.19c.08-1.56.22-3.11.2-4.67,0-2-.7-2.65-2.57-2.24a38.2,38.2,0,0,0-12.35,4.66,6.79,6.79,0,0,0-3.4,7.34,7.71,7.71,0,0,0,5.58,6.54c3.29,1,6.12-.19,8.92-1.66A6,6,0,0,0,795,179C795,177.51,795,176,795,174.56Z" class="cls-13"/>
        <path d="M1450.48,302.83c-.15,4.27-.39,8.54-.4,12.81a18.39,18.39,0,0,0,.82,5.31c1.17,3.79,4.26,5.17,8,3.77.23-.08.45-.21.68-.29.69-.24,1.44-1.23,2.1-.11.54.92-.31,1.53-.88,2.07a13.3,13.3,0,0,1-11.2,4,9.89,9.89,0,0,1-6.65-3.85c-1.71-2.12-2.14-2.17-4.54-.84-1.86,1-3.71,2.12-5.59,3.12a14.52,14.52,0,0,1-11,1.09c-5.89-1.63-9.41-7.57-7.87-14.19a7.34,7.34,0,0,1,3.72-4.72,48.42,48.42,0,0,1,6.43-3.05c4.83-1.86,9.72-3.54,14.58-5.32,2.7-1,3.18-1.66,3.23-4.52,0-2.46.17-4.94,0-7.39a15.92,15.92,0,0,0-1.09-4.76,7.35,7.35,0,0,0-5.17-4.54,11.28,11.28,0,0,0-8.38.75,5.86,5.86,0,0,0-3.42,5.06c-.11,1.63-.13,3.35-1.77,4.36a11.17,11.17,0,0,1-7,1.86,1.33,1.33,0,0,1-1.21-1.79,9,9,0,0,1,1.19-3.18,23.49,23.49,0,0,1,3.76-4.2,31.94,31.94,0,0,1,15.55-7.54,22.79,22.79,0,0,1,7.55.14c4.93.88,7.71,4.21,8.56,9a38.21,38.21,0,0,1,.4,7.1c0,3.29-.28,6.57-.43,9.85Zm-9.06,9.73c0-1.69,0-2.93,0-4.16-.06-2-.6-2.57-2.6-2.14a36.6,36.6,0,0,0-12.37,4.7,6.72,6.72,0,0,0-3.27,7.17,7.68,7.68,0,0,0,5.76,6.67c3.4,1,6.3-.37,9.12-2a5.46,5.46,0,0,0,2.93-4.58C1441.13,316.2,1441.3,314.16,1441.42,312.56Z" class="cls-13"/>
        <path d="M976.19,236.58a19.88,19.88,0,0,1,.28,2.17q-.11,31.46-.24,62.91,0,8.38,0,16.77a30.12,30.12,0,0,0,.4,3.91,3.9,3.9,0,0,0,3.47,3.35c1.13.23,2.27.39,3.41.54,1,.13,1.19.75,1.12,1.58a1.15,1.15,0,0,1-1.31,1.15l-2.22,0H959c-.06-.88-.11-1.62-.17-2.48,1.36-.25,2.48-.46,3.61-.65,3.05-.51,4-1.39,4.38-4.39a42.64,42.64,0,0,0,.33-4.92q0-31,0-61.92c0-1.39-.16-2.79-.24-4.18a5.86,5.86,0,0,0-3.21-4.94,4.61,4.61,0,0,1-1.23-.81,3.39,3.39,0,0,1-1-1.74c0-.39.78-.88,1.29-1.21a7.61,7.61,0,0,1,1.39-.49l9.87-3.83C974.61,237.11,975.28,236.9,976.19,236.58Z" class="cls-13"/>
        <path d="M1091.69,157c-4.61,0-9.21,0-13.81,0-3.78,0-4.24.61-4.11,4.35a29,29,0,0,0,3,12.58,20.41,20.41,0,0,0,20.31,11.18,13.42,13.42,0,0,0,8.44-4.16,14.31,14.31,0,0,1,1.73-1.75,1.6,1.6,0,0,1,1.48-.1,1.71,1.71,0,0,1,.42,1.45,5.18,5.18,0,0,1-.92,1.73c-3.84,5.68-9.35,8.61-16,9.47a24.84,24.84,0,0,1-9.78-.65,21.25,21.25,0,0,1-15.42-14.61c-3.4-10.45-1.83-20.34,4.75-29.18a23.68,23.68,0,0,1,26.18-8.44c6.12,2.07,10.26,6.07,11.29,12.73.06.4.11.81.13,1.22.11,3.29-.43,4-3.66,4.06-4.69.09-9.37,0-14,0Zm-16.14-3.7a7.55,7.55,0,0,0,1.39.26c5.26,0,10.52,0,15.78-.09a24.22,24.22,0,0,0,4.64-.57c2-.41,2.56-1.26,2.58-3.31,0-4-2.93-7.33-7.24-8.08a16.12,16.12,0,0,0-16.47,8A4.47,4.47,0,0,0,1075.55,153.26Z" class="cls-13"/>
        <path d="M1216,295.52h-13.31a18.23,18.23,0,0,0-2.22.07c-1.68.23-2.21.64-2.27,2.34-.29,8.16,1.68,15.55,8.13,21.05a19.54,19.54,0,0,0,16.58,4.39,13,13,0,0,0,7.16-4.06,11,11,0,0,1,1.55-1.57,1.7,1.7,0,0,1,1.52-.07,1.54,1.54,0,0,1,.36,1.45,25,25,0,0,1-2.75,4.06,21.3,21.3,0,0,1-13.49,7c-8.18,1.06-15.55-.84-21.28-7.14a24.79,24.79,0,0,1-6.15-15.27,32,32,0,0,1,4.61-19.57,24.24,24.24,0,0,1,26.27-11.28,16.62,16.62,0,0,1,11.48,8.55,12.72,12.72,0,0,1,1.51,6.89c-.18,2.54-.62,3-3.16,3-4.85.06-9.69,0-14.54,0Zm-7.24-3.35v-.05c2,0,3.94.1,5.89,0a61.67,61.67,0,0,0,7.31-.81c1.84-.34,2.24-1.09,2.31-2.94.16-4-2.68-7.33-7-8.27-7.77-1.69-14.39,3.56-16.8,8a8.38,8.38,0,0,0-.66,1.58c-.51,1.86-.12,2.43,1.78,2.47C1204,292.21,1206.4,292.17,1208.78,292.17Z" class="cls-13"/>
        <path d="M1250.6,157h-12.32c-.66,0-1.32,0-2,0-3.18.13-3.54.5-3.57,3.6A26.32,26.32,0,0,0,1237,176c4.61,6.84,11.23,9.6,19.3,9,3.61-.26,6.46-2.19,8.9-4.8.66-.7,1.14-2.07,2.54-1.2.85.54.76,1.26-.4,3-3.83,5.8-9.4,8.8-16.15,9.68a24.49,24.49,0,0,1-9.78-.65c-9.29-2.6-14.49-9-16.42-18.15a30.69,30.69,0,0,1,3.67-22.58c5.08-8.57,12.69-12.89,22.71-12.53a18.11,18.11,0,0,1,13.16,5.85,13.57,13.57,0,0,1,3.77,10.11c-.12,2.55-.55,3-3.12,3-4.85.09-9.7,0-14.55,0Zm-15.86-3.31q9.3-.18,18.67-.39a13.56,13.56,0,0,0,2.68-.34c2.11-.45,2.75-1.29,2.75-3.42,0-3.87-2.67-7-6.79-7.95-6.54-1.51-14.52,2.46-17.25,8.58A3.6,3.6,0,0,0,1234.74,153.65Z" class="cls-13"/>
        <path d="M742.28,157c-4.19,0-8.38,0-12.57,0a26.38,26.38,0,0,0-3,.16c-1.62.2-2.1.6-2.16,2.12-.32,7.79,1.49,14.87,7.29,20.45,4.55,4.38,10.17,5.89,16.33,5.33,3.6-.33,6.45-2.26,8.85-4.9.66-.72,1.26-2.05,2.55-1,1.11.92.16,1.81-.32,2.59-3.52,5.68-8.83,8.78-15.25,9.84a24.23,24.23,0,0,1-16.22-2.69c-6.14-3.46-9.55-8.91-11-15.64-2-9.7-.14-18.65,6-26.46a23.72,23.72,0,0,1,25.69-8c5.94,2,10,5.8,11.33,12.17.06.32.11.64.14,1,.37,4-.28,4.86-4.24,4.95-4.52.1-9,0-13.56,0Zm-15.94-3.65a8.06,8.06,0,0,0,1.26.21c5.34,0,10.67,0,16-.09a24.26,24.26,0,0,0,4.4-.53c2-.42,2.57-1.22,2.61-3.26.08-4.09-2.76-7.35-7.09-8.16a16.07,16.07,0,0,0-16.62,8.07A4.2,4.2,0,0,0,726.34,153.31Z" class="cls-13"/>
        <path d="M1130,280.35c.06-.85.11-1.54.17-2.33H1153c.89,2,.79,2.23-1,2.72-.23.06-.47.13-.71.18-3.31.76-3.76,1.42-2.74,4.57a261.84,261.84,0,0,0,11,27.93,16.61,16.61,0,0,0,1.25,1.9,19.13,19.13,0,0,0,1.47-2.55q5-12.74,9.85-25.51a15.24,15.24,0,0,0,.82-3.34c.24-1.75-.25-2.42-2-2.85-1-.26-2.08-.42-3.35-.66V278c1.76,0,3.38,0,5,0l12.32-.08c2.07,0,2.1.05,1.8,2.44a13.82,13.82,0,0,1-1.57.41,7.91,7.91,0,0,0-6.16,4.43c-2,3.7-4,7.37-5.67,11.21-4.6,10.63-9,21.34-13.5,32-.42,1-.5,2.4-2.1,2.33s-1.55-1.5-2-2.51q-5.8-14.52-11.59-29.05-2.25-5.61-4.6-11.17a33.85,33.85,0,0,0-1.61-3.32,6.8,6.8,0,0,0-5.23-3.69C1132,280.86,1131.18,280.62,1130,280.35Z" class="cls-13"/>
        <path d="M1255.14,330.45a24.35,24.35,0,0,1-10.51-2,5.21,5.21,0,0,1-3.54-4.57c-.23-2.62-.51-5.23-.74-7.85a3,3,0,0,1,.1-1.45c.21-.45.66-1,1.08-1.08a1.8,1.8,0,0,1,1.4.65,12.09,12.09,0,0,1,.78,1.79,50.61,50.61,0,0,0,4.09,7,10.92,10.92,0,0,0,10.5,4.18c6.31-.87,9.45-7.2,6.25-12.82a18.24,18.24,0,0,0-4.27-4.68c-1.56-1.3-3.5-2.14-5.17-3.32a75.19,75.19,0,0,1-8.07-6c-6.75-6.27-5.1-18.05,4.15-22.1,4.37-1.91,8.92-2.06,13.54-1.53a42.44,42.44,0,0,1,5,1.11,2.77,2.77,0,0,1,2.28,2.29c.48,2.5,1,5,1.38,7.48.14.83,0,1.7-1,1.92s-1.48-.31-1.92-1.14a24.48,24.48,0,0,0-2.53-4.21c-2.93-3.59-6.66-5.31-11.34-4a7.68,7.68,0,0,0-4.39,12,18.49,18.49,0,0,0,4.27,4c1.86,1.35,4,2.28,5.89,3.58a57.28,57.28,0,0,1,7.4,5.67c3.76,3.66,4.74,8.39,3.92,13.43a12.43,12.43,0,0,1-6.44,8.88A22.1,22.1,0,0,1,1255.14,330.45Z" class="cls-13"/>
        <path d="M1498.23,322.78c1.43,1,1.14,1.86.23,2.75a16.27,16.27,0,0,1-10,4.77,26.58,26.58,0,0,1-7.34-.37c-4.63-.87-7.29-3.8-8-8.48a33.71,33.71,0,0,1-.43-5.4c0-9.12,0-18.24,0-27.36,0-.82,0-1.65,0-2.47-.08-2.65-.52-3.07-3.24-3.13a13.38,13.38,0,0,1-2.46-.08,1.63,1.63,0,0,1-1.13-1,1.81,1.81,0,0,1,.72-1.33,6.3,6.3,0,0,1,1.8-.76,17.09,17.09,0,0,0,9.53-7.76,12.43,12.43,0,0,1,1.45-2.28,2,2,0,0,1,1.6-.69,2,2,0,0,1,1.05,1.42,38.83,38.83,0,0,1,.08,4.18c0,3.1.21,3.31,3.39,3.34,3.37,0,6.74,0,10.11,0,.58,0,1.15,0,1.73,0a2.62,2.62,0,0,1,2,4.2,2.72,2.72,0,0,1-1.93.68c-3.69.06-7.39,0-11.09,0-.66,0-1.32,0-2,0-1.77.14-2.27.62-2.48,2.42a16.15,16.15,0,0,0-.06,2c0,7.72-.06,15.45,0,23.17a36,36,0,0,0,.73,7.33c1.47,6.59,7.81,9.27,13.74,6C1496.86,323.6,1497.49,323.21,1498.23,322.78Z" class="cls-13"/>
        <path d="M900.65,322.78c1.47,1.09,1.05,2,.16,2.81a16.31,16.31,0,0,1-10.07,4.72,26.91,26.91,0,0,1-7.33-.39c-4.59-.88-7.29-3.9-8-8.56a41,41,0,0,1-.43-5.64c0-9.37,0-18.74,0-28.11,0-.65,0-1.31,0-2-.12-1.89-.64-2.42-2.58-2.54-.9-.05-1.81,0-2.71,0s-1.62-.19-1.56-1.11a2.28,2.28,0,0,1,1-1.42,9.28,9.28,0,0,1,2.06-.8,16.47,16.47,0,0,0,8.61-7,28.13,28.13,0,0,1,1.87-2.9,1.72,1.72,0,0,1,1.39-.65,2.5,2.5,0,0,1,1.23,1.27,3.5,3.5,0,0,1,.1,1.46c0,1.23,0,2.46,0,3.7.05,2.08.34,2.37,2.43,2.52.74.05,1.48,0,2.22,0,3.45,0,6.91,0,10.36,0a2.59,2.59,0,0,1,2.32,4.05,1.86,1.86,0,0,1-1.1.79,7,7,0,0,1-1.72.06c-3.78,0-7.56,0-11.34,0-2.86,0-3.4.48-3.41,3.23,0,8.71,0,17.43,0,26.14a25.32,25.32,0,0,0,.68,5.61c1.51,6.42,7.8,9.14,13.61,6C899.19,323.66,899.88,323.23,900.65,322.78Z" class="cls-13"/>
        <path d="M1315.26,322.82c1.29,1.52,1.33,1.65.09,2.83a16.51,16.51,0,0,1-10.33,4.7,25.23,25.23,0,0,1-6.61-.34c-5.16-1-8-4.23-8.49-9.47-.18-1.79-.23-3.61-.24-5.41q0-13.56,0-27.12c0-4.71-.25-5.07-4.74-4.93a2.9,2.9,0,0,1-1.22-.07,1.71,1.71,0,0,1-.94-.91,1.6,1.6,0,0,1,.46-1.25,3.2,3.2,0,0,1,1.32-.6,18.67,18.67,0,0,0,11-9.28c.5-.88.84-2.19,2.26-1.83,1.6.4,1.08,1.81,1.13,2.88.06,1.31,0,2.63,0,4,.08,1.63.4,2,2.07,2.12s3.45.06,5.17.07c2.63,0,5.26,0,7.89,0a2.55,2.55,0,0,1,2.18,4.1,2.52,2.52,0,0,1-1.85.76c-3.78.08-7.56,0-11.34,0-4.12,0-4.21.09-4.21,4.08,0,8.22,0,16.44,0,24.66a30.46,30.46,0,0,0,.55,6.11c1.4,6.48,7.63,9.28,13.5,6.19C1313.76,323.71,1314.52,323.24,1315.26,322.82Z" class="cls-13"/>
        <path d="M1468.31,136.31c.8,2.84,0,5.83.59,9.11.8-.5,1.39-.83,1.94-1.22,2.3-1.59,4.51-3.31,6.88-4.76a10.31,10.31,0,0,1,6.34-1.65c3.22.28,5.17,2.52,4.92,5.59a5.26,5.26,0,0,1-5.89,4.94,9.66,9.66,0,0,1-2.49-1,32.53,32.53,0,0,0-3.6-1.55,5.71,5.71,0,0,0-7.21,3.5,14.09,14.09,0,0,0-1,4.78c-.09,9.2-.06,18.41,0,27.61a10,10,0,0,0,.52,2.9,3.52,3.52,0,0,0,3.07,2.5c1.63.22,3.26.38,4.9.51.92.07,1.67.32,1.67,1.38s-.79,1.44-1.83,1.43q-10.61-.09-21.2-.12c-.91,0-1.81,0-2.71.08s-1.47-.24-1.54-1.19a1.32,1.32,0,0,1,1.17-1.58c.81-.13,1.62-.28,2.42-.46,2.7-.61,3.67-1.63,3.93-4.31.19-1.88.32-3.77.33-5.65,0-8.06,0-16.12,0-24.17,0-.82-.06-1.64-.08-2.46a5.87,5.87,0,0,0-2.93-5.11,8.77,8.77,0,0,1-1.41-1c-.91-.86-.83-1.79.29-2.34,4-2,8-3.87,12-5.78A3.11,3.11,0,0,1,1468.31,136.31Z" class="cls-13"/>
        <path d="M1191.48,164.31V150.74c0-.66,0-1.32,0-2-.09-4-.33-4.19-4.22-4.25a6.44,6.44,0,0,1-1.71-.09c-.4-.12-1-.55-1-.87a2.3,2.3,0,0,1,.63-1.4,2.39,2.39,0,0,1,1.11-.47,18.52,18.52,0,0,0,11-9.26c.49-.87.79-2.21,2.24-1.83s1.1,1.8,1.15,2.88c.06,1.32,0,2.64,0,4,.09,1.59.49,2,2.08,2.18a20.32,20.32,0,0,0,2.21,0c3.7,0,7.4,0,11.1,0,1.74,0,2.32.69,2.34,2.42s-.57,2.38-2.32,2.4c-3.7,0-7.4,0-11.1,0a20.57,20.57,0,0,0-2.22,0c-1.62.17-2,.52-2.2,2.1a10.52,10.52,0,0,0-.1,1.48c0,9.2.1,18.41.2,27.62a17.31,17.31,0,0,0,.48,3.65c1.49,6.42,7.76,9.23,13.58,6.11a6.72,6.72,0,0,1,1.48-.85c.46-.11,1.25,0,1.46.26a1.9,1.9,0,0,1-.09,1.52,3.48,3.48,0,0,1-1,1.07,16.74,16.74,0,0,1-10,4.25,32.45,32.45,0,0,1-4.93,0c-5.88-.48-9.47-4.06-10-9.93-.13-1.39-.2-2.79-.2-4.18C1191.46,173.19,1191.48,168.75,1191.48,164.31Z" class="cls-13"/>
        <path d="M1276.38,190.27c-.81-2.08-.68-2.35,1.18-2.73l1.44-.31c3.44-.73,4.47-1.79,4.52-5.36.13-9.94.12-19.88.23-29.82,0-3.13-.93-5.53-3.77-7.19-1.91-1.12-1.7-2.13.27-3.07,3.48-1.67,7-3.37,10.43-5,.49-.23,1-.36,1.7-.59,1,3-.1,6,.86,9.13.64-.36,1.19-.6,1.67-.94,1.94-1.39,3.77-2.94,5.8-4.17a25.52,25.52,0,0,1,4.94-2.14,7,7,0,0,1,2.67-.24,5.13,5.13,0,0,1,4.8,3.62,5.65,5.65,0,0,1-1.86,5.76,5.14,5.14,0,0,1-6,.44c-1.23-.64-2.47-1.27-3.76-1.79-3.14-1.26-6.71.71-7.77,4.12a12.48,12.48,0,0,0-.65,3.62c-.07,9.44-.12,18.89,0,28.34,0,3.75,1.22,4.85,5,5.38,1.22.17,2.45.23,3.68.33a1.27,1.27,0,0,1,1.35,1.41,1.21,1.21,0,0,1-1.38,1.34h-1l-23.17,0C1277.15,190.36,1276.75,190.3,1276.38,190.27Z" class="cls-13"/>
        <path d="M1347.57,326.35c.4,2.41.29,2.62-1.65,2.6-2.88-.05-5.75-.25-8.63-.25-3.94,0-7.89.15-11.83.24a4.38,4.38,0,0,1-1.7,0,2.31,2.31,0,0,1-1.19-1.25c-.22-.68.2-1.26,1-1.4,1-.17,2-.32,2.91-.51,2.51-.48,3.59-1.56,3.9-4.06a40.56,40.56,0,0,0,.33-4.67q0-13.08,0-26.14c0-.9-.11-1.81-.18-2.7a4.84,4.84,0,0,0-2.19-3.69,19.06,19.06,0,0,1-2-1.46,1.33,1.33,0,0,1,.3-2.38c4.3-2,8.62-4,13.24-6.1a8.13,8.13,0,0,1,.4,1.77c-.12,13.8-.28,27.61-.4,41.42a30.61,30.61,0,0,0,.25,4.17,4.19,4.19,0,0,0,3.88,3.84C1345.17,325.92,1346.3,326.13,1347.57,326.35Z" class="cls-13"/>
        <path d="M744.21,328.93v-2.52c1.32-.24,2.52-.47,3.72-.67a4.15,4.15,0,0,0,3.87-3.83,30.45,30.45,0,0,0,.26-3.44c0-9.53,0-19.07,0-28.6a6.25,6.25,0,0,0-3.13-6,6.86,6.86,0,0,1-1.19-.87c-1-.91-.93-1.78.22-2.34,4.22-2,8.46-4,12.7-6,.12-.06.31,0,.82.11,0,.86.12,1.79.11,2.73-.13,13-.29,26-.4,38.95a36.59,36.59,0,0,0,.33,4.91c.4,3,1.34,3.87,4.39,4.41.65.11,1.29.28,1.94.34,1,.09,1.6.46,1.52,1.52s-.74,1.37-1.7,1.3c-.58,0-1.15,0-1.73,0H744.21Z" class="cls-13"/>
        <path d="M852.44,274.7c.06.83.14,1.53.14,2.22l-.24,41.89c0,.41,0,.82,0,1.23.12,3.91,1.43,5.57,5.13,5.86.49,0,1,.23,1.45.27a1.32,1.32,0,0,1,1.36,1.64c-.1,1-.74,1.18-1.57,1.16-2-.05-3.94-.13-5.91-.13q-7.64,0-15.27.11c-2.13,0-2.58-.2-2.61-1.34,0-1.68,1.35-1.39,2.29-1.58,4.9-1,5.52-1.48,5.67-6.38.2-6.48.14-13,.17-19.46,0-3.37,0-6.73,0-10.1,0-2.77-.87-5-3.37-6.37a4.76,4.76,0,0,1-1-.71c-.91-.9-.8-1.73.28-2.37l.22-.12,12.25-5.74A5,5,0,0,1,852.44,274.7Z" class="cls-13"/>
        <path d="M1523,274.52c.06,1,.14,1.7.14,2.39-.12,12.82-.27,25.63-.38,38.44,0,1.89.1,3.78.26,5.66.24,3.07,1.34,4.24,4.31,4.78.65.12,1.29.28,1.94.34,1,.11,1.76.44,1.62,1.66s-.92,1.2-1.8,1.18c-1.81-.06-3.61-.13-5.42-.13-4.93,0-9.85.06-14.78.09-.66,0-1.31,0-2,0a1.22,1.22,0,0,1-1.39-1.34,1.18,1.18,0,0,1,1.07-1.39c.81-.12,1.62-.29,2.43-.43,3.13-.54,4.2-1.7,4.42-4.91.12-1.8.21-3.61.22-5.42,0-7.89,0-15.77,0-23.66,0-.82-.11-1.64-.08-2.46a5.88,5.88,0,0,0-3.11-5.49,6.89,6.89,0,0,1-1.2-.86c-.94-.89-.88-1.8.28-2.34C1513.89,278.65,1518.22,276.7,1523,274.52Z" class="cls-13"/>
        <path d="M1334.33,261.35A6.18,6.18,0,0,1,1328,255a6.62,6.62,0,0,1,6.73-6.68c3.65,0,6.31,2.87,6.27,6.73S1338.35,261.38,1334.33,261.35Z" class="cls-13"/>
        <path d="M1517.35,261.34a6.06,6.06,0,0,1-6.38-6.29,6.52,6.52,0,0,1,6.67-6.71A6.33,6.33,0,0,1,1524,255C1523.93,258.9,1521.34,261.36,1517.35,261.34Z" class="cls-13"/>
        <path d="M846.9,261.35a6.12,6.12,0,0,1-6.53-6.17,6.57,6.57,0,0,1,6.79-6.84,6.3,6.3,0,0,1,6.22,6.56C853.39,258.8,850.86,261.32,846.9,261.35Z" class="cls-13"/>
        <path d="M755.9,261.34c-3.82,0-6.4-2.46-6.43-6.19a6.45,6.45,0,0,1,6.51-6.81c3.67-.08,6.38,2.72,6.38,6.59S759.88,261.33,755.9,261.34Z" class="cls-13"/>
    </g>
</svg>
