<svg width="1501" height="274" xmlns="http://www.w3.org/2000/svg">

 <g>
  <title>background</title>
  <rect fill="none" id="canvas_background" height="276" width="1503" y="-1" x="-1"/>
 </g>
 <g>
  <title>Layer 1</title>
  <g id="LCDI_Title">
   <path id="svg_1" class="cls-13" d="m409.180001,0c0,1.14 0.1,2.29 0.1,3.44l0,227.57a26.91,26.91 0 0 1 -6.76,0.18c-0.06,-1.38 -0.16,-2.58 -0.16,-3.79q0,-111.72 0,-223.46c0,-1.32 -0.05,-2.63 -0.08,-3.94l6.9,0z"/>
   <path id="svg_2" class="cls-13" d="m0.110001,42.43c0.89,0.07 1.79,0.2 2.68,0.2c7.24,0 14.47,0 21.7,0l2.82,0a17.29,17.29 0 0 1 0.29,2.1c0,2.3 0,4.6 0,6.91q0,52.89 0,105.78c0,3.93 0,3.93 3.91,3.94l31.56,0.11l2.35,0c0.7,2.07 0.75,25 0,27.47l-65.42,0l0.11,-146.51z"/>
   <path id="svg_3" class="cls-13" d="m158.370001,42.64c0.07,1.24 0.16,2 0.16,2.86c0,7.39 0,14.79 0,22.19c0,0.5 0,1 -0.05,1.48a1.3,1.3 0 0 1 -1.44,1.34l-1.73,0c-9,0 -17.92,-0.24 -26.88,-0.06c-23,0.45 -39.18,15.42 -42.67,36.3c-2.09,12.56 -0.34,24.45 6.6,35.24c6.8,10.55 16.73,16.47 29,18.51c6.94,1.15 13.94,0.68 20.92,0.65c5.33,0 10.66,0 16,0c0.62,1.71 0.8,24.22 0.2,27.5a18,18 0 0 1 -2,0.22c-10.11,0 -20.24,0.39 -30.33,-0.11c-26.65,-1.32 -47,-13.26 -60,-36.91c-5,-9.05 -7.42,-18.89 -8.27,-29.18c-1,-12 0.23,-23.68 4.58,-34.88c9.47,-24.35 27.3,-38.79 52.85,-43.81a82.59,82.59 0 0 1 15.69,-1.35c8.14,0 16.28,0 24.42,0l2.95,0.01z"/>
   <path id="svg_4" class="cls-13" d="m172.650001,188.84l0,-104.65l27,0c0.06,1 0.18,2 0.18,3.07q0,35 0,70.06c0,0.74 0,1.48 0,2.22c-0.05,1.26 0.58,1.85 1.78,1.79c2.14,-0.09 4.28,-0.12 6.4,-0.37a45.13,45.13 0 0 0 17.7,-5.69a38.76,38.76 0 0 0 17.27,-20.23a51.66,51.66 0 0 0 -0.47,-39a41.86,41.86 0 0 0 -7.54,-11.84a10.39,10.39 0 0 1 1.7,-0.32c9.54,0 19.08,0 28.62,-0.05a2.84,2.84 0 0 1 3.07,2.16a80.46,80.46 0 0 1 5.12,21.75c1.17,13 -0.18,25.66 -5.19,37.72c-9.42,22.69 -26.33,36.58 -50.3,41.89a71.73,71.73 0 0 1 -15.67,1.58l-26.63,0c-0.96,0.03 -1.92,-0.09 -3.04,-0.09z"/>
   <path id="svg_5" class="cls-13" d="m284.130001,84.33c2,-0.52 23.48,-0.62 26.15,-0.16c0,0.06 0.11,0.11 0.16,0.18s0.13,0.12 0.14,0.19a14.22,14.22 0 0 1 0.18,1.7q0,50.79 0,101.58a2.21,2.21 0 0 1 -0.21,0.66c-1.89,0.62 -23.7,0.72 -26.21,0.13c-0.57,-1.77 -0.76,-100.77 -0.21,-104.28z"/>
   <path id="svg_6" class="cls-13" d="m259.270001,70.12c-4.95,0.56 -84.37,0.33 -86.28,-0.24l0,-27c0.78,-0.09 1.49,-0.23 2.19,-0.24c9.29,0 18.59,-0.17 27.88,0c17.11,0.39 32.7,5.29 45.91,16.52c3.18,2.7 5.92,5.92 8.83,8.93a19.9,19.9 0 0 1 1.47,2.03z"/>
   <path id="svg_7" class="cls-13" d="m283.870001,70.16c0,-9.2 -0.11,-18.18 0.08,-27.35c1.08,-0.07 1.88,-0.16 2.68,-0.16l21.44,0l1.23,0c1,0 1.47,0.56 1.45,1.55c0,0.41 0,0.82 0,1.23l0,22.18c0,0.41 0,0.82 0,1.23a1.31,1.31 0 0 1 -1.52,1.49c-0.5,0 -1,0 -1.48,0l-20.94,0c-0.87,0.01 -1.75,-0.09 -2.94,-0.17z"/>
   <path id="svg_8" class="cls-13" d="m1210.550001,266.46c-0.77,-0.23 -1.54,-0.5 -2.32,-0.67c-4,-0.87 -7.73,-2.27 -10.66,-5.3a12.46,12.46 0 0 1 -3.74,-9.58a6.7,6.7 0 0 1 2.08,-4.83c2.37,-2.28 4.7,-4.6 7,-6.9c0.41,-0.41 0.84,-0.8 1.22,-1.22c1.8,-2 1.66,-2.65 -0.81,-3.66a12.86,12.86 0 0 1 -6.14,-4.75a16.2,16.2 0 0 1 -1.37,-2.88c-0.64,-1.62 0,-2.77 1.31,-3.81c2.21,-1.71 4.34,-3.52 6.39,-5.41a19.65,19.65 0 0 0 2.23,-3c-0.74,-0.58 -1.22,-1 -1.75,-1.36c-11.2,-7.28 -10.24,-22.25 -0.57,-29.53c5.24,-3.94 11.18,-4.94 17.52,-4.1a31.08,31.08 0 0 1 9.19,2.71a16.42,16.42 0 0 0 7.88,1.62c2.63,-0.11 5.26,-0.05 7.89,0c1.8,0 2.34,0.54 2.37,2.08c0,1.72 -0.74,2.78 -2.34,2.84c-2.38,0.1 -4.76,0.05 -7.15,0.07a11.67,11.67 0 0 0 -1.29,0.2c0,0.87 0,1.73 0,2.6c0,3.45 0.18,6.89 -0.86,10.27c-2.42,7.9 -7.82,12.39 -15.86,13.6a43.13,43.13 0 0 1 -8.58,0.14c-3.55,-0.19 -7.91,3.84 -7.75,7.39a4.43,4.43 0 0 0 3,4.16a20.12,20.12 0 0 0 6.19,1.33c4.1,0.1 8.21,-0.3 12.32,-0.31a69.25,69.25 0 0 1 9.34,0.47c7.68,1 11.59,5.69 11.65,13.38a19.67,19.67 0 0 1 -5.92,14.18c-5.28,5.5 -11.94,8.29 -19.3,9.64c-0.79,0.15 -1.56,0.42 -2.34,0.64l-8.83,-0.01zm18.76,-5.09c1.94,-0.23 3.92,-0.33 5.83,-0.74c5.06,-1.09 9.48,-3.29 12.15,-8c3.72,-6.58 0.71,-13.93 -6.51,-16.07a12.24,12.24 0 0 0 -1.67,-0.39a67.08,67.08 0 0 0 -16.93,0a10,10 0 0 0 -4.39,1.36c-4,2.72 -6.18,6.58 -5.89,11.49s3,8.22 7.33,10.26a25.16,25.16 0 0 0 1.25,2.08l8.83,0.01zm-14.52,-63.86c0.13,4.28 1.24,8.58 4.7,11.94c5.73,5.55 14.6,3.5 17.12,-4.05a21.91,21.91 0 0 0 -1.13,-16.77a9.93,9.93 0 0 0 -9.35,-6.13c-4.38,0 -7.42,2.26 -9.39,6.06a19.43,19.43 0 0 0 -10.78,8.94l8.83,0.01z"/>
   <path id="svg_9" class="cls-13" d="m632.220001,266.46c-0.78,-0.22 -1.55,-0.48 -2.34,-0.64c-4.27,-0.87 -8.19,-2.4 -11.24,-5.69a12.92,12.92 0 0 1 -3.42,-7.49a7.55,7.55 0 0 1 2.26,-6.74c2.34,-2.19 4.6,-4.47 6.89,-6.71c0.35,-0.34 0.72,-0.68 1,-1c2.07,-2.22 2,-2.73 -0.79,-3.92c-3.28,-1.42 -5.92,-3.53 -7.17,-7c-0.83,-2.33 -0.59,-2.89 1.3,-4.43c2.16,-1.76 4.3,-3.56 6.35,-5.45a18.43,18.43 0 0 0 2.11,-2.83a18,18 0 0 0 -1.68,-1.37c-11.61,-7.28 -10.51,-24 1.33,-30.9c5.8,-3.39 12,-3.72 18.36,-2.2a51.23,51.23 0 0 1 7,2.4a16.26,16.26 0 0 0 6.69,1.35c2.79,-0.09 5.59,0 8.38,0c2,0 2.31,0.33 2.37,2c0.08,2 -0.56,2.87 -2.41,3s-3.62,0 -5.43,0l-2.89,0c0,1.19 0,2.06 0,2.94c-0.2,3.18 0,6.45 -0.72,9.53a18.07,18.07 0 0 1 -15.8,14.22a49,49 0 0 1 -8.57,0.15c-3.54,-0.19 -8,3.7 -7.92,7.22a4.86,4.86 0 0 0 2.85,4.3a12.86,12.86 0 0 0 6.43,1.4c4.19,-0.08 8.38,-0.36 12.57,-0.36a58,58 0 0 1 9.32,0.52c7.82,1.25 12.14,6.24 11.27,15.34c-0.57,5.89 -3.58,10.5 -8,14.23a35.92,35.92 0 0 1 -17.15,7.51a15.4,15.4 0 0 0 -2.07,0.63l-8.88,-0.01zm19.88,-30.99l0,0.3c-2,0 -4.12,-0.13 -6.16,0c-2.35,0.19 -4.8,0.23 -6.82,1.74c-3.87,2.9 -6,6.7 -5.65,11.63s3.14,8.13 7.49,10.14a16.7,16.7 0 0 0 2.3,0.86a26.27,26.27 0 0 0 11.21,0.83c4.83,-0.6 9.27,-2.25 12.62,-6a11.55,11.55 0 0 0 2.63,-11.9c-1.36,-4.24 -4.68,-6.23 -8.8,-6.89c-11.83,-0.4 -14.8,-0.45 -17.74,-0.69l8.92,-0.02zm7.33,-36.76c-0.27,-4.16 -1,-8.09 -3.27,-11.56a10.05,10.05 0 0 0 -16.85,-0.33a14,14 0 0 0 -1.8,3.48a20.42,20.42 0 0 0 0.13,14a13.35,13.35 0 0 0 3.88,5.61c5.75,4.9 13.94,2.85 16.48,-4.25a49.49,49.49 0 0 0 -7.49,-6.93l8.92,-0.02z"/>
   <path id="svg_10" class="cls-13" d="m1500.700001,231.42a10.46,10.46 0 0 1 -1.9,0.37q-10.59,0 -21.19,0c-2,0 -2.08,-0.12 -1.74,-2.56l3.26,-0.65c2.62,-0.55 3.68,-1.67 4,-4.3a42.92,42.92 0 0 0 0.32,-4.67q0,-10.47 0,-21a27.15,27.15 0 0 0 -0.37,-4.41c-0.82,-4.86 -3.81,-7.9 -8.63,-8.95a16.28,16.28 0 0 0 -11.23,1.57a9,9 0 0 0 -5.2,7.55a14.67,14.67 0 0 0 -0.15,1.47q0.08,13.56 0.19,27.12c0,3.14 0.94,5.27 5,5.73c0.48,0.06 0.95,0.24 1.44,0.32c1,0.17 1.12,0.84 1,1.65s-0.61,1.11 -1.37,1.1l-21.44,0c-2.07,0 -2.09,-0.05 -1.87,-2.56c1,-0.19 2.15,-0.4 3.26,-0.59c3,-0.52 4.13,-1.65 4.39,-4.7c0.13,-1.39 0.13,-2.79 0.14,-4.19c0,-8.8 -0.08,-17.59 0,-26.39c0,-3.1 -0.84,-5.45 -3.6,-7a3.62,3.62 0 0 1 -1.11,-1a1.09,1.09 0 0 1 0.26,-1.71a8.06,8.06 0 0 1 1.1,-0.55c3.54,-1.72 7.09,-3.43 10.62,-5.17c1.58,-0.78 2.11,-0.52 2.08,1.23c0,1.23 -0.23,2.45 -0.24,3.68c0,2.74 0.91,3.26 3.26,1.9c4.06,-2.36 8.2,-4.61 12.92,-5.27a23.9,23.9 0 0 1 6.86,-0.08c6.32,0.95 10.41,5.25 11.33,11.62a42.21,42.21 0 0 1 0.39,5.39c0,8.22 0,16.44 0.07,24.66a26.9,26.9 0 0 0 0.46,4.39a3.38,3.38 0 0 0 2.78,2.82c1.59,0.33 3.22,0.42 4.84,0.62l0.07,2.56z"/>
   <path id="svg_11" class="cls-13" d="m509.870001,145.97c7.31,0.23 14.63,0.27 21.92,0.76a50.31,50.31 0 0 1 23.58,7.11c10,6.25 15.79,15.36 17.52,27c1.59,10.66 0.09,20.85 -5.59,30.14c-6.52,10.69 -16.22,17 -28.3,19.76a74.34,74.34 0 0 1 -20.07,1.73c-5.66,-0.26 -11.32,-0.74 -17,-0.88c-4.76,-0.12 -9.53,0.11 -14.3,0.18l-2,0c-0.93,0 -1.32,-0.51 -1.34,-1.39a1.16,1.16 0 0 1 1.09,-1.35c1.06,-0.15 2.11,-0.33 3.17,-0.49c4.62,-0.7 6.29,-2.46 6.59,-7.11c0.19,-2.95 0.33,-5.91 0.33,-8.87q0,-24.28 0,-48.58c0,-2.38 -0.14,-4.77 -0.34,-7.14c-0.35,-4.23 -2,-5.93 -6.3,-6.53c-0.65,-0.09 -1.29,-0.21 -1.93,-0.36a1.25,1.25 0 0 1 -1.07,-1.64a2,2 0 0 1 1.33,-1.12a53.83,53.83 0 0 1 5.4,-0.43c5.75,-0.23 11.5,-0.42 17.24,-0.62l0.07,-0.17zm-4.2,39.66l0,0c0,8.3 0,16.61 0,24.91a59,59 0 0 0 0.53,7.86c0.79,5.39 4,8.66 9.29,9.9a42.26,42.26 0 0 0 15.45,0.45c12.36,-1.68 21.53,-7.81 26.29,-19.58a51.12,51.12 0 0 0 2.32,-31.7c-3.22,-13.35 -11.61,-22 -24.9,-25.75c-7,-2 -14.12,-2 -21.28,-1.53a32.9,32.9 0 0 0 -4.6,0.84a3,3 0 0 0 -2.68,2.81a37.24,37.24 0 0 0 -0.39,3.91c0.02,9.09 0.03,18.42 0.03,27.71l-0.06,0.17z"/>
   <path id="svg_12" class="cls-13" d="m674.870001,47.41l3,-1.91c4.87,-3.13 10.1,-5.15 16,-4.86a23.49,23.49 0 0 1 4.86,0.73c6.23,1.66 10.09,6.61 10.34,13.43c0.17,4.76 0,9.53 0.09,14.3c0.07,5.42 0.2,10.84 0.34,16.26a7.64,7.64 0 0 0 0.36,1.93a3.6,3.6 0 0 0 3,2.61c1.28,0.25 2.59,0.39 3.9,0.55a1.31,1.31 0 0 1 1.31,1.46c0,0.93 -0.53,1.32 -1.42,1.31l-1.23,0l-20.71,0a3.94,3.94 0 0 1 -1.46,0c-0.45,-0.2 -1.07,-0.7 -1.06,-1.06a1.94,1.94 0 0 1 0.82,-1.52a17.61,17.61 0 0 1 3.12,-0.64a4.15,4.15 0 0 0 3.67,-3.76a20.33,20.33 0 0 0 0.21,-2.7q0,-12.09 0,-24.17a15.21,15.21 0 0 0 -0.21,-2.7c-1.53,-8.46 -7.54,-11.5 -15.65,-10.15a15.07,15.07 0 0 0 -7.22,3.55a6.21,6.21 0 0 0 -2.38,4.93c0,9.7 0,19.4 0.05,29.1a18.32,18.32 0 0 0 0.31,2.19a4,4 0 0 0 3.65,3.74l2.91,0.5c0.93,0.17 1.18,0.8 1.1,1.63a1.18,1.18 0 0 1 -1.35,1.12l-1.24,0l-20.71,0c-1,0 -2.27,0.43 -2.54,-1.16c-0.17,-1 0.41,-1.41 2.42,-1.67l0.24,0c4.84,-0.67 5.78,-1.7 6,-6.68c0.07,-2.06 0,-4.11 0,-6.17q0,-30 0,-59.93c0,-0.65 0,-1.31 0,-2a6.73,6.73 0 0 0 -3.6,-6c-0.93,-0.53 -2.33,-0.91 -2,-2.42c0.24,-1.35 1.62,-1.21 2.56,-1.59c3.35,-1.34 6.74,-2.58 10.09,-3.93c2.18,-0.88 2.6,-0.64 2.57,1.71q-0.19,20.22 -0.37,40.43c-0.11,0.9 0.08,1.97 0.23,3.54z"/>
   <path id="svg_13" class="cls-13" d="m892.630001,9.84c0.28,2.94 0.55,5.79 0.84,8.65s0.58,5.71 0.92,8.57c0.1,0.83 0,1.51 -0.88,1.74s-1.82,0.11 -2.17,-1c-0.15,-0.47 -0.3,-0.94 -0.44,-1.41c-2.53,-8.45 -8.06,-13.8 -16.66,-15.76c-9.34,-2.13 -18.49,-1.43 -27.15,2.81c-9,4.42 -14.66,11.78 -17.3,21.36a51.51,51.51 0 0 0 1.2,32.46c5.13,13.62 15.08,21.56 29.51,23.79a35.25,35.25 0 0 0 13.23,-0.29c9,-2 15.14,-7.52 19.1,-15.68c0.28,-0.59 0.42,-1.36 0.89,-1.72a2.65,2.65 0 0 1 2,-0.49c0.39,0.09 0.8,0.94 0.84,1.48a5.61,5.61 0 0 1 -0.39,2.16q-1.83,5.61 -3.74,11.2a5.9,5.9 0 0 1 -4.31,3.86a75.51,75.51 0 0 1 -25.26,3.48c-8.37,-0.29 -16.53,-1.74 -24,-5.65c-15,-7.83 -22.87,-20.29 -23.33,-37.22c-0.36,-13.1 4.1,-24.35 13.8,-33.29c7,-6.41 15.34,-10.05 24.57,-11.78c11.6,-2.18 23.07,-1 34.45,1.66c1.26,0.28 2.61,0.62 4.28,1.07z"/>
   <path id="svg_14" class="cls-13" d="m514.160001,93.2l-27.62,0a5.74,5.74 0 0 1 -1.95,-0.05a2.2,2.2 0 0 1 -1.14,-1.29c-0.2,-0.71 0.28,-1.26 1,-1.37c1.39,-0.19 2.78,-0.31 4.16,-0.5c4.58,-0.62 6.2,-2.27 6.52,-6.83c0.2,-2.87 0.34,-5.74 0.34,-8.62q0,-24 0,-48.09c0,-2.87 -0.14,-5.75 -0.34,-8.62c-0.33,-4.58 -2.15,-6.47 -6.68,-7c-1.14,-0.14 -2.3,-0.15 -3.44,-0.28c-0.84,-0.09 -1.69,-0.26 -1.66,-1.4s0.68,-1.59 1.78,-1.51c0.57,0 1.15,0 1.73,0l27.1,0a5.25,5.25 0 0 1 2,0.06a2.06,2.06 0 0 1 1,1.37c0.07,0.37 -0.42,1 -0.82,1.24a5.74,5.74 0 0 1 -1.92,0.34c-0.74,0.08 -1.48,0.07 -2.21,0.18c-3.8,0.57 -5.26,2 -5.93,5.79a24.29,24.29 0 0 0 -0.38,4.16q0,27.87 0,55.74a30.38,30.38 0 0 0 0.54,5.38a7.54,7.54 0 0 0 6.18,6.55a29.33,29.33 0 0 0 6.08,0.87c5.25,0 10.51,-0.16 15.76,-0.39a8.37,8.37 0 0 0 6.78,-3.51c1.79,-2.54 3.33,-5.25 4.95,-7.91a9.66,9.66 0 0 0 0.82,-1.79c0.41,-1.11 1.24,-1.23 2.2,-0.92s1,1 0.78,1.8s-0.36,1.77 -0.61,2.64c-1.19,4 -2.36,8 -3.64,12c-0.66,2 -0.78,2 -2.83,2l-28.6,0l0.05,-0.04z"/>
   <path id="svg_15" class="cls-13" d="m1015.300001,93.05c-5,0 -9.72,0 -14.48,0c-2.8,0 -5.59,0.09 -8.39,0.14c-0.83,0 -1.71,0.09 -1.86,-1.08s0.45,-1.67 1.54,-1.73a2.64,2.64 0 0 0 0.49,-0.08c4.77,-1 5.33,-1.56 5.7,-6.49c0.18,-2.37 0.12,-4.76 0.12,-7.15q0,-8.13 0,-16.28a24,24 0 0 0 -0.27,-3.68c-0.94,-6.36 -4,-9.48 -10.4,-10.25a15.6,15.6 0 0 0 -10.59,2.43a8.64,8.64 0 0 0 -4.17,6.91c0,0.58 -0.14,1.15 -0.14,1.72q0.06,13.56 0.16,27.13a9.81,9.81 0 0 0 0.17,1.71a4.2,4.2 0 0 0 3.36,3.52c1,0.22 1.93,0.39 2.9,0.58s1.12,0.85 1,1.66s-0.63,1.09 -1.36,1.09c-0.5,0 -1,0 -1.48,0l-19.24,0a5.43,5.43 0 0 1 -1.71,0c-0.44,-0.16 -1,-0.71 -1,-1.07a1.94,1.94 0 0 1 0.82,-1.51a20,20 0 0 1 3.14,-0.6c2.4,-0.5 3.42,-1.51 3.77,-3.91a28.8,28.8 0 0 0 0.18,-3.94c0,-9.21 -0.07,-18.42 0.06,-27.63c0,-2.93 -0.84,-5.12 -3.42,-6.56a5.57,5.57 0 0 1 -0.81,-0.56c-1.06,-1 -1,-1.8 0.29,-2.48c0.5,-0.27 1.06,-0.44 1.58,-0.69c3,-1.46 6,-3 9.09,-4.38a13.82,13.82 0 0 1 2.23,-0.6a18.36,18.36 0 0 1 0.37,2.32c0,1.06 -0.16,2.13 -0.11,3.19c0.1,2.36 0.89,2.78 2.93,1.69c2.33,-1.23 4.6,-2.57 7,-3.61a22.09,22.09 0 0 1 13.21,-1.9c6,1.16 9.84,4.85 11,10.81a27.8,27.8 0 0 1 0.5,5.14c0.06,8.72 0,17.43 0.08,26.15a23.56,23.56 0 0 0 0.4,3.65a3.79,3.79 0 0 0 3.27,3.25c0.88,0.18 1.77,0.33 2.67,0.48c1.97,0.28 2.07,0.46 1.4,2.61z"/>
   <path id="svg_16" class="cls-13" d="m965.600001,229.28l0,2.11a2.83,2.83 0 0 1 -0.76,0.35c-0.66,0.05 -1.32,0 -2,0c-6.49,0 -13,0 -19.47,0c-1,0 -2.46,0.66 -2.76,-1.14c-0.19,-1.11 0.32,-1.46 2.56,-1.9c0.48,-0.09 1,-0.13 1.46,-0.24a4.19,4.19 0 0 0 3.47,-4c0.17,-1.8 0.28,-3.61 0.29,-5.41q0,-10.11 0,-20.22a32.27,32.27 0 0 0 -0.25,-3.93c-0.63,-5.32 -3.72,-8.65 -9,-9.72a16.12,16.12 0 0 0 -11.41,1.86a8.73,8.73 0 0 0 -4.7,6.83a32.51,32.51 0 0 0 -0.26,3.68q0,10.73 0,21.45a42.47,42.47 0 0 0 0.36,5.16c0.34,2.8 1.35,3.8 4.16,4.39c0.72,0.15 1.44,0.31 2.17,0.44c0.94,0.17 1.18,0.8 1.08,1.63a1.19,1.19 0 0 1 -1.36,1.12c-1.23,0 -2.46,-0.08 -3.69,-0.08l-16.51,0.05l-3.11,0c-0.1,-0.85 -0.18,-1.54 -0.26,-2.18a3.46,3.46 0 0 1 0.79,-0.45c1.05,-0.21 2.1,-0.39 3.15,-0.57a4.12,4.12 0 0 0 3.78,-3.63a17.51,17.51 0 0 0 0.26,-2.7c0,-9.86 0,-19.72 0.07,-29.58a6.2,6.2 0 0 0 -3.17,-5.95a7.93,7.93 0 0 1 -1,-0.72c-1.21,-1.07 -1.13,-1.9 0.32,-2.61q5.73,-2.82 11.51,-5.59c1.12,-0.54 1.7,-0.15 1.69,1.14s-0.19,2.29 -0.24,3.44a7.12,7.12 0 0 0 0.13,2c0.31,1.2 1.09,1.54 2.23,1c0.81,-0.39 1.57,-0.9 2.36,-1.34c3.58,-2 7.28,-3.89 11.41,-4.44a24.78,24.78 0 0 1 7.09,0c6.4,1 10.48,5.54 11.22,12a43,43 0 0 1 0.23,4.68q0.11,12.69 0.18,25.39c0,0.65 0,1.31 0.08,2c0.26,3.45 1.28,4.55 4.77,5.15c1.01,0.09 1.96,0.31 3.13,0.53z"/>
   <path id="svg_17" class="cls-13" d="m1280.620001,67.34c0,7.81 -2.36,14.72 -8.07,20.25a25.21,25.21 0 0 1 -16.15,7a28.61,28.61 0 0 1 -13.54,-1.87c-9.07,-3.84 -14.07,-10.83 -15.32,-20.45a28,28 0 0 1 3,-17.46c4.93,-8.95 12.65,-13.69 22.76,-14.16c9.92,-0.47 17.94,3.37 23.42,11.87c2.71,4.32 3.91,9.09 3.9,14.82zm-10.37,1.89c-0.45,-3.16 -0.73,-6.35 -1.4,-9.47a22.33,22.33 0 0 0 -6.13,-11.86a13.26,13.26 0 0 0 -20.25,1.82a21.63,21.63 0 0 0 -3.42,7.59a38.82,38.82 0 0 0 -0.31,17.09a24.44,24.44 0 0 0 5.49,11.95c3.76,4.2 8.41,5.87 14,4.58c4.44,-1 7.25,-4 9.1,-8a36.21,36.21 0 0 0 2.92,-13.7z"/>
   <path id="svg_18" class="cls-13" d="m1403.870001,233.31c-11.65,0 -21.07,-6.36 -24.61,-16.66c-4,-11.53 -0.6,-24.71 9,-32c11.6,-8.79 28.75,-6.83 37.38,4.41c4.78,6.22 6.07,13.37 5.13,21a26.2,26.2 0 0 1 -6.78,15c-5.45,5.83 -12.3,8.27 -20.12,8.25zm16.57,-26.85c-0.23,-1.66 -0.48,-4.86 -1.16,-8c-1,-4.64 -2.82,-8.94 -6.42,-12.25a13.19,13.19 0 0 0 -19.9,1.89a20.83,20.83 0 0 0 -3.41,7.33a39.17,39.17 0 0 0 -0.25,18.3a24.39,24.39 0 0 0 5,10.84c3.51,4.13 7.93,6 13.37,5.06c5,-0.83 8.13,-4 10.13,-8.45c1.92,-4.15 2.51,-8.62 2.63,-14.72l0.01,0z"/>
   <path id="svg_19" class="cls-13" d="m1206.470001,66.84c0.13,6.07 0.17,12.16 0.44,18.23c0.17,3.67 1.13,4.52 4.73,5c1.14,0.16 2.29,0.25 3.44,0.31c0.92,0.06 1.66,0.32 1.65,1.39s-0.83,1.45 -1.84,1.41c-1.4,-0.05 -2.8,-0.11 -4.19,-0.11l-19,0.06c-2,0 -2.67,-0.26 -2.63,-1.33c0,-1.59 1.34,-1.36 2.35,-1.52c5,-0.77 5.93,-1.72 6,-6.91c0.07,-11 0,-22 0,-33c0,-2.54 -0.45,-2.94 -3.06,-3c-1,0 -2,0 -3,0c-0.66,0 -1.51,0 -1.45,-0.9a2.24,2.24 0 0 1 0.93,-1.51a19.2,19.2 0 0 1 3.5,-1.78c2.35,-0.88 3.08,-2.47 3.13,-4.94a57.21,57.21 0 0 1 3.28,-19.34a29.81,29.81 0 0 1 7.81,-11.82c6.28,-5.67 13.6,-7.33 21.76,-5.36a9.32,9.32 0 0 1 5.69,3.66a4.42,4.42 0 0 1 0.39,5.09a4.58,4.58 0 0 1 -4.32,2.32a4.07,4.07 0 0 1 -2.75,-1.43a33.82,33.82 0 0 0 -4.27,-3.69c-6,-3.89 -12.23,-2.17 -15.1,4.35a29.89,29.89 0 0 0 -2.41,9c-0.6,6.12 -0.76,12.29 -1,18.44c-0.09,2.55 0.5,3 3,3.07c4,0.05 8.06,0 12.09,0c2.17,0 2.45,0.24 2.49,1.78c0.06,2 -0.77,3 -2.61,3.05c-3.86,0.05 -7.73,0 -11.59,0c-3,0 -3.41,0.42 -3.43,3.45c0,5.34 0,10.68 0,16l-0.03,0.03z"/>
   <path id="svg_20" class="cls-13" d="m896.870001,148.84c-1.69,0.19 -3.24,0.34 -4.78,0.54c-3.65,0.48 -5.27,1.95 -5.91,5.53a26,26 0 0 0 -0.43,4.65q0,29.61 0,59.21a30.44,30.44 0 0 0 0.49,4.65a5.39,5.39 0 0 0 4.63,4.78c1.93,0.38 3.88,0.67 5.8,1c0.73,2.23 0.55,2.57 -1.53,2.59c-1.31,0 -2.63,0 -4,0l-24.16,0c-0.66,0 -1.32,0 -2,0c-0.84,0 -1.12,-0.6 -1.15,-1.32a1.15,1.15 0 0 1 1.06,-1.38l3.66,-0.51c4.41,-0.63 6.21,-2.48 6.53,-6.94c0.21,-2.95 0.35,-5.91 0.36,-8.87q0,-23.81 0,-47.61c0,-2.88 -0.15,-5.75 -0.35,-8.62c-0.32,-4.91 -2.13,-6.73 -7,-7.22c-1,-0.1 -2,-0.26 -2.94,-0.35s-1.39,-0.43 -1.34,-1.38s0.61,-1.44 1.61,-1.4c1.15,0.05 2.31,0.07 3.46,0.07l24.65,0c0.49,0 1,0 1.48,0c2.02,-0.03 2.09,0.07 1.86,2.58z"/>
   <path id="svg_21" class="cls-13" d="m750.780001,81.07a30.44,30.44 0 0 0 1.58,-2.65q5.75,-13.34 11.43,-26.71a13.06,13.06 0 0 0 0.77,-2.59c0.37,-1.92 -0.11,-2.79 -2,-3.33c-1.64,-0.48 -3.35,-0.73 -5,-1.06c-0.6,-2.39 -0.45,-2.66 1.68,-2.62c4.19,0.08 8.37,0.26 12.56,0.3c2,0 3.94,-0.18 5.91,-0.32c1,-0.06 1.65,0.21 1.78,1.23a1.41,1.41 0 0 1 -1.42,1.66c-4.49,0.5 -6.89,3.61 -8.74,7.19q-5.09,9.85 -9.86,19.87c-7.39,15.58 -14.66,31.22 -22,46.81a17.63,17.63 0 0 1 -2.67,4.1a7.17,7.17 0 0 1 -7,2.12a5,5 0 0 1 -4.07,-5.62c0.21,-2.73 1.84,-4.6 4.62,-4.38c4.55,0.36 7.27,-1.67 9.11,-5.57c1.61,-3.41 3.45,-6.72 5.11,-10.11a16.29,16.29 0 0 0 0.52,-13.59c-2.56,-6.67 -4.89,-13.42 -7.33,-20.14c-1.43,-3.94 -2.85,-7.88 -4.3,-11.8c-0.52,-1.39 -1.07,-2.76 -1.7,-4.1a7.26,7.26 0 0 0 -5.39,-4.26c-0.72,-0.15 -1.45,-0.27 -2.17,-0.45c-0.88,-0.21 -1.53,-0.67 -1.38,-1.7s0.81,-1.32 1.77,-1.27c2.38,0.14 4.76,0.34 7.14,0.33c4.27,0 8.54,-0.17 12.81,-0.27c0.58,0 1.15,0 1.73,0c0.79,0 1.33,0.42 1.24,1.17a2.22,2.22 0 0 1 -0.85,1.53a12.17,12.17 0 0 1 -2.61,0.66c-3.07,0.75 -3.39,1.27 -2.57,4.26c0.33,1.18 0.69,2.37 1.1,3.53q4.24,12.08 8.52,24.15c0.39,1.02 0.94,2.01 1.68,3.63z"/>
   <path id="svg_22" class="cls-13" d="m794.510001,226.55a1.66,1.66 0 0 1 -0.22,2.44c-3.51,3.45 -7.64,5.06 -12.56,4a9.48,9.48 0 0 1 -5.47,-3.55c-1.79,-2.23 -2.19,-2.25 -4.73,-0.83c-2,1.12 -4,2.25 -6.06,3.29a14,14 0 0 1 -10.56,0.79a11.61,11.61 0 0 1 -7.89,-13.57a8.19,8.19 0 0 1 4,-5.38a40,40 0 0 1 5.75,-2.77c5,-1.91 10,-3.66 15,-5.49c2.84,-1 3.19,-1.47 3.23,-4.47a67,67 0 0 0 -0.11,-9.08a9.59,9.59 0 0 0 -15.43,-6.32a5.49,5.49 0 0 0 -2.46,4.61c0.1,3.29 -1.78,4.76 -4.57,5.5a15.91,15.91 0 0 1 -3.62,0.59c-1.32,0 -1.85,-0.5 -1.68,-1.81a7,7 0 0 1 1,-3a20.57,20.57 0 0 1 3.33,-3.92a33,33 0 0 1 16.12,-8a20,20 0 0 1 6.36,-0.12c6.24,0.89 9.9,5.18 10.07,11.75c0.09,3.93 -0.14,7.88 -0.22,11.82c-0.11,5.91 -0.27,11.82 -0.28,17.74a10.39,10.39 0 0 0 0.89,3.8a5.37,5.37 0 0 0 7,3.22c1.08,-0.34 2.03,-0.8 3.11,-1.24zm-20.06,-10.8l0.06,0c0.07,-1.47 0.2,-2.94 0.18,-4.41c0,-2.05 -0.55,-2.64 -2.51,-2.24a36.27,36.27 0 0 0 -12.54,4.74a6.79,6.79 0 0 0 -3.11,7.67a7.62,7.62 0 0 0 5.71,6.13c2.82,0.8 5.31,-0.14 7.81,-1.24a6.78,6.78 0 0 0 4.4,-6.73c-0.01,-1.3 0,-2.61 0,-3.92z"/>
   <path id="svg_23" class="cls-13" d="m653.930001,87.92a1.54,1.54 0 0 1 0,2.37c-5,5.49 -14.14,6.24 -18.39,0.35c-1.4,-1.93 -2,-1.94 -4.17,-0.79s-4.15,2.33 -6.27,3.42a14.12,14.12 0 0 1 -11,0.75a11.57,11.57 0 0 1 -7.67,-12.85a7.67,7.67 0 0 1 3.44,-5.48a36.46,36.46 0 0 1 5.89,-3c5.13,-2 10.3,-3.89 15.51,-5.63c2.4,-0.81 3.52,-2.21 3.44,-4.69c-0.1,-3.2 0.18,-6.46 -0.35,-9.57c-1.22,-7.13 -10,-10.1 -15.61,-5.47a6.39,6.39 0 0 0 -2.2,4.52c-0.16,1.54 -0.12,3.16 -1.75,4.11a12.08,12.08 0 0 1 -6.79,1.83a1.25,1.25 0 0 1 -1.29,-1.48a7.53,7.53 0 0 1 0.82,-3a21.8,21.8 0 0 1 3.62,-4.32a33.85,33.85 0 0 1 16.63,-8.1a16.49,16.49 0 0 1 8,0.56a10.76,10.76 0 0 1 7.61,10.39c0.17,5.09 -0.09,10.19 -0.19,15.29c-0.09,4.6 -0.3,9.2 -0.28,13.8a14.65,14.65 0 0 0 0.87,4.81c1.17,3.26 4.06,4.55 7.36,3.45a28.17,28.17 0 0 0 2.77,-1.27zm-20.06,-10.52l0.19,0c0.08,-1.56 0.22,-3.11 0.2,-4.67c0,-2 -0.7,-2.65 -2.57,-2.24a38.2,38.2 0 0 0 -12.35,4.66a6.79,6.79 0 0 0 -3.4,7.34a7.71,7.71 0 0 0 5.58,6.54c3.29,1 6.12,-0.19 8.92,-1.66a6,6 0 0 0 3.43,-5.53c0,-1.49 0,-3 0,-4.44z"/>
   <path id="svg_24" class="cls-13" d="m1289.350001,205.67c-0.15,4.27 -0.39,8.54 -0.4,12.81a18.39,18.39 0 0 0 0.82,5.31c1.17,3.79 4.26,5.17 8,3.77c0.23,-0.08 0.45,-0.21 0.68,-0.29c0.69,-0.24 1.44,-1.23 2.1,-0.11c0.54,0.92 -0.31,1.53 -0.88,2.07a13.3,13.3 0 0 1 -11.2,4a9.89,9.89 0 0 1 -6.65,-3.85c-1.71,-2.12 -2.14,-2.17 -4.54,-0.84c-1.86,1 -3.71,2.12 -5.59,3.12a14.52,14.52 0 0 1 -11,1.09c-5.89,-1.63 -9.41,-7.57 -7.87,-14.19a7.34,7.34 0 0 1 3.72,-4.72a48.42,48.42 0 0 1 6.43,-3.05c4.83,-1.86 9.72,-3.54 14.58,-5.32c2.7,-1 3.18,-1.66 3.23,-4.52c0,-2.46 0.17,-4.94 0,-7.39a15.92,15.92 0 0 0 -1.09,-4.76a7.35,7.35 0 0 0 -5.17,-4.54a11.28,11.28 0 0 0 -8.38,0.75a5.86,5.86 0 0 0 -3.42,5.06c-0.11,1.63 -0.13,3.35 -1.77,4.36a11.17,11.17 0 0 1 -7,1.86a1.33,1.33 0 0 1 -1.21,-1.79a9,9 0 0 1 1.19,-3.18a23.49,23.49 0 0 1 3.76,-4.2a31.94,31.94 0 0 1 15.55,-7.54a22.79,22.79 0 0 1 7.55,0.14c4.93,0.88 7.71,4.21 8.56,9a38.21,38.21 0 0 1 0.4,7.1c0,3.29 -0.28,6.57 -0.43,9.85l0.03,0zm-9.09,9.73c0,-1.69 0,-2.93 0,-4.16c-0.06,-2 -0.6,-2.57 -2.6,-2.14a36.6,36.6 0 0 0 -12.37,4.7a6.72,6.72 0 0 0 -3.27,7.17a7.68,7.68 0 0 0 5.76,6.67c3.4,1 6.3,-0.37 9.12,-2a5.46,5.46 0 0 0 2.93,-4.58c0.17,-2.02 0.34,-4.06 0.46,-5.66l-0.03,0z"/>
   <path id="svg_25" class="cls-13" d="m815.060001,139.42a19.88,19.88 0 0 1 0.28,2.17q-0.11,31.46 -0.24,62.91q0,8.38 0,16.77a30.12,30.12 0 0 0 0.4,3.91a3.9,3.9 0 0 0 3.47,3.35c1.13,0.23 2.27,0.39 3.41,0.54c1,0.13 1.19,0.75 1.12,1.58a1.15,1.15 0 0 1 -1.31,1.15l-2.22,0l-22.1,0c-0.06,-0.88 -0.11,-1.62 -0.17,-2.48c1.36,-0.25 2.48,-0.46 3.61,-0.65c3.05,-0.51 4,-1.39 4.38,-4.39a42.64,42.64 0 0 0 0.33,-4.92q0,-31 0,-61.92c0,-1.39 -0.16,-2.79 -0.24,-4.18a5.86,5.86 0 0 0 -3.21,-4.94a4.61,4.61 0 0 1 -1.23,-0.81a3.39,3.39 0 0 1 -1,-1.74c0,-0.39 0.78,-0.88 1.29,-1.21a7.61,7.61 0 0 1 1.39,-0.49l9.87,-3.83c0.59,-0.29 1.26,-0.5 2.17,-0.82z"/>
   <path id="svg_26" class="cls-13" d="m930.560001,59.84c-4.61,0 -9.21,0 -13.81,0c-3.78,0 -4.24,0.61 -4.11,4.35a29,29 0 0 0 3,12.58a20.41,20.41 0 0 0 20.31,11.18a13.42,13.42 0 0 0 8.44,-4.16a14.31,14.31 0 0 1 1.73,-1.75a1.6,1.6 0 0 1 1.48,-0.1a1.71,1.71 0 0 1 0.42,1.45a5.18,5.18 0 0 1 -0.92,1.73c-3.84,5.68 -9.35,8.61 -16,9.47a24.84,24.84 0 0 1 -9.78,-0.65a21.25,21.25 0 0 1 -15.42,-14.61c-3.4,-10.45 -1.83,-20.34 4.75,-29.18a23.68,23.68 0 0 1 26.18,-8.44c6.12,2.07 10.26,6.07 11.29,12.73c0.06,0.4 0.11,0.81 0.13,1.22c0.11,3.29 -0.43,4 -3.66,4.06c-4.69,0.09 -9.37,0 -14,0l-0.03,0.12zm-16.11,-3.82a7.55,7.55 0 0 0 1.39,0.26c5.26,0 10.52,0 15.78,-0.09a24.22,24.22 0 0 0 4.64,-0.57c2,-0.41 2.56,-1.26 2.58,-3.31c0,-4 -2.93,-7.33 -7.24,-8.08a16.12,16.12 0 0 0 -16.47,8a4.47,4.47 0 0 0 -0.71,3.87l0.03,-0.08z"/>
   <path id="svg_27" class="cls-13" d="m1054.870001,198.36l-13.31,0a18.23,18.23 0 0 0 -2.22,0.07c-1.68,0.23 -2.21,0.64 -2.27,2.34c-0.29,8.16 1.68,15.55 8.13,21.05a19.54,19.54 0 0 0 16.58,4.39a13,13 0 0 0 7.16,-4.06a11,11 0 0 1 1.55,-1.57a1.7,1.7 0 0 1 1.52,-0.07a1.54,1.54 0 0 1 0.36,1.45a25,25 0 0 1 -2.75,4.06a21.3,21.3 0 0 1 -13.49,7c-8.18,1.06 -15.55,-0.84 -21.28,-7.14a24.79,24.79 0 0 1 -6.15,-15.27a32,32 0 0 1 4.61,-19.57a24.24,24.24 0 0 1 26.27,-11.28a16.62,16.62 0 0 1 11.48,8.55a12.72,12.72 0 0 1 1.51,6.89c-0.18,2.54 -0.62,3 -3.16,3c-4.85,0.06 -9.69,0 -14.54,0l0,0.16zm-7.24,-3.51l0,-0.05c2,0 3.94,0.1 5.89,0a61.67,61.67 0 0 0 7.31,-0.81c1.84,-0.34 2.24,-1.09 2.31,-2.94c0.16,-4 -2.68,-7.33 -7,-8.27c-7.77,-1.69 -14.39,3.56 -16.8,8a8.38,8.38 0 0 0 -0.66,1.58c-0.51,1.86 -0.12,2.43 1.78,2.47c2.41,0.22 4.81,0.18 7.19,0.18l-0.02,-0.16z"/>
   <path id="svg_28" class="cls-13" d="m1089.470001,59.84l-12.32,0c-0.66,0 -1.32,0 -2,0c-3.18,0.13 -3.54,0.5 -3.57,3.6a26.32,26.32 0 0 0 4.29,15.4c4.61,6.84 11.23,9.6 19.3,9c3.61,-0.26 6.46,-2.19 8.9,-4.8c0.66,-0.7 1.14,-2.07 2.54,-1.2c0.85,0.54 0.76,1.26 -0.4,3c-3.83,5.8 -9.4,8.8 -16.15,9.68a24.49,24.49 0 0 1 -9.78,-0.65c-9.29,-2.6 -14.49,-9 -16.42,-18.15a30.69,30.69 0 0 1 3.67,-22.58c5.08,-8.57 12.69,-12.89 22.71,-12.53a18.11,18.11 0 0 1 13.16,5.85a13.57,13.57 0 0 1 3.77,10.11c-0.12,2.55 -0.55,3 -3.12,3c-4.85,0.09 -9.7,0 -14.55,0l-0.03,0.27zm-15.83,-3.58q9.3,-0.18 18.67,-0.39a13.56,13.56 0 0 0 2.68,-0.34c2.11,-0.45 2.75,-1.29 2.75,-3.42c0,-3.87 -2.67,-7 -6.79,-7.95c-6.54,-1.51 -14.52,2.46 -17.25,8.58a3.6,3.6 0 0 0 -0.09,3.75l0.03,-0.23z"/>
   <path id="svg_29" class="cls-13" d="m581.150001,59.84c-4.19,0 -8.38,0 -12.57,0a26.38,26.38 0 0 0 -3,0.16c-1.62,0.2 -2.1,0.6 -2.16,2.12c-0.32,7.79 1.49,14.87 7.29,20.45c4.55,4.38 10.17,5.89 16.33,5.33c3.6,-0.33 6.45,-2.26 8.85,-4.9c0.66,-0.72 1.26,-2.05 2.55,-1c1.11,0.92 0.16,1.81 -0.32,2.59c-3.52,5.68 -8.83,8.78 -15.25,9.84a24.23,24.23 0 0 1 -16.22,-2.69c-6.14,-3.46 -9.55,-8.91 -11,-15.64c-2,-9.7 -0.14,-18.65 6,-26.46a23.72,23.72 0 0 1 25.69,-8c5.94,2 10,5.8 11.33,12.17c0.06,0.32 0.11,0.64 0.14,1c0.37,4 -0.28,4.86 -4.24,4.95c-4.52,0.1 -9,0 -13.56,0l0.14,0.08zm-16.08,-3.73a8.06,8.06 0 0 0 1.26,0.21c5.34,0 10.67,0 16,-0.09a24.26,24.26 0 0 0 4.4,-0.53c2,-0.42 2.57,-1.22 2.61,-3.26c0.08,-4.09 -2.76,-7.35 -7.09,-8.16a16.07,16.07 0 0 0 -16.62,8.07a4.2,4.2 0 0 0 -0.42,3.8l-0.14,-0.04z"/>
   <path id="svg_30" class="cls-13" d="m968.870001,183.19c0.06,-0.85 0.11,-1.54 0.17,-2.33l22.83,0c0.89,2 0.79,2.23 -1,2.72c-0.23,0.06 -0.47,0.13 -0.71,0.18c-3.31,0.76 -3.76,1.42 -2.74,4.57a261.84,261.84 0 0 0 11,27.93a16.61,16.61 0 0 0 1.25,1.9a19.13,19.13 0 0 0 1.47,-2.55q5,-12.74 9.85,-25.51a15.24,15.24 0 0 0 0.82,-3.34c0.24,-1.75 -0.25,-2.42 -2,-2.85c-1,-0.26 -2.08,-0.42 -3.35,-0.66l0,-2.41c1.76,0 3.38,0 5,0l12.32,-0.08c2.07,0 2.1,0.05 1.8,2.44a13.82,13.82 0 0 1 -1.57,0.41a7.91,7.91 0 0 0 -6.16,4.43c-2,3.7 -4,7.37 -5.67,11.21c-4.6,10.63 -9,21.34 -13.5,32c-0.42,1 -0.5,2.4 -2.1,2.33s-1.55,-1.5 -2,-2.51q-5.8,-14.52 -11.59,-29.05q-2.25,-5.61 -4.6,-11.17a33.85,33.85 0 0 0 -1.61,-3.32a6.8,6.8 0 0 0 -5.23,-3.69c-0.68,-0.14 -1.5,-0.38 -2.68,-0.65z"/>
   <path id="svg_31" class="cls-13" d="m1094.010001,233.29a24.35,24.35 0 0 1 -10.51,-2a5.21,5.21 0 0 1 -3.54,-4.57c-0.23,-2.62 -0.51,-5.23 -0.74,-7.85a3,3 0 0 1 0.1,-1.45c0.21,-0.45 0.66,-1 1.08,-1.08a1.8,1.8 0 0 1 1.4,0.65a12.09,12.09 0 0 1 0.78,1.79a50.61,50.61 0 0 0 4.09,7a10.92,10.92 0 0 0 10.5,4.18c6.31,-0.87 9.45,-7.2 6.25,-12.82a18.24,18.24 0 0 0 -4.27,-4.68c-1.56,-1.3 -3.5,-2.14 -5.17,-3.32a75.19,75.19 0 0 1 -8.07,-6c-6.75,-6.27 -5.1,-18.05 4.15,-22.1c4.37,-1.91 8.92,-2.06 13.54,-1.53a42.44,42.44 0 0 1 5,1.11a2.77,2.77 0 0 1 2.28,2.29c0.48,2.5 1,5 1.38,7.48c0.14,0.83 0,1.7 -1,1.92s-1.48,-0.31 -1.92,-1.14a24.48,24.48 0 0 0 -2.53,-4.21c-2.93,-3.59 -6.66,-5.31 -11.34,-4a7.68,7.68 0 0 0 -4.39,12a18.49,18.49 0 0 0 4.27,4c1.86,1.35 4,2.28 5.89,3.58a57.28,57.28 0 0 1 7.4,5.67c3.76,3.66 4.74,8.39 3.92,13.43a12.43,12.43 0 0 1 -6.44,8.88a22.1,22.1 0 0 1 -12.11,2.77z"/>
   <path id="svg_32" class="cls-13" d="m1337.100001,225.62c1.43,1 1.14,1.86 0.23,2.75a16.27,16.27 0 0 1 -10,4.77a26.58,26.58 0 0 1 -7.34,-0.37c-4.63,-0.87 -7.29,-3.8 -8,-8.48a33.71,33.71 0 0 1 -0.43,-5.4c0,-9.12 0,-18.24 0,-27.36c0,-0.82 0,-1.65 0,-2.47c-0.08,-2.65 -0.52,-3.07 -3.24,-3.13a13.38,13.38 0 0 1 -2.46,-0.08a1.63,1.63 0 0 1 -1.13,-1a1.81,1.81 0 0 1 0.72,-1.33a6.3,6.3 0 0 1 1.8,-0.76a17.09,17.09 0 0 0 9.53,-7.76a12.43,12.43 0 0 1 1.45,-2.28a2,2 0 0 1 1.6,-0.69a2,2 0 0 1 1.05,1.42a38.83,38.83 0 0 1 0.08,4.18c0,3.1 0.21,3.31 3.39,3.34c3.37,0 6.74,0 10.11,0c0.58,0 1.15,0 1.73,0a2.62,2.62 0 0 1 2,4.2a2.72,2.72 0 0 1 -1.93,0.68c-3.69,0.06 -7.39,0 -11.09,0c-0.66,0 -1.32,0 -2,0c-1.77,0.14 -2.27,0.62 -2.48,2.42a16.15,16.15 0 0 0 -0.06,2c0,7.72 -0.06,15.45 0,23.17a36,36 0 0 0 0.73,7.33c1.47,6.59 7.81,9.27 13.74,6c0.63,-0.33 1.26,-0.72 2,-1.15z"/>
   <path id="svg_33" class="cls-13" d="m739.520001,225.62c1.47,1.09 1.05,2 0.16,2.81a16.31,16.31 0 0 1 -10.07,4.72a26.91,26.91 0 0 1 -7.33,-0.39c-4.59,-0.88 -7.29,-3.9 -8,-8.56a41,41 0 0 1 -0.43,-5.64c0,-9.37 0,-18.74 0,-28.11c0,-0.65 0,-1.31 0,-2c-0.12,-1.89 -0.64,-2.42 -2.58,-2.54c-0.9,-0.05 -1.81,0 -2.71,0s-1.62,-0.19 -1.56,-1.11a2.28,2.28 0 0 1 1,-1.42a9.28,9.28 0 0 1 2.06,-0.8a16.47,16.47 0 0 0 8.61,-7a28.13,28.13 0 0 1 1.87,-2.9a1.72,1.72 0 0 1 1.39,-0.65a2.5,2.5 0 0 1 1.23,1.27a3.5,3.5 0 0 1 0.1,1.46c0,1.23 0,2.46 0,3.7c0.05,2.08 0.34,2.37 2.43,2.52c0.74,0.05 1.48,0 2.22,0c3.45,0 6.91,0 10.36,0a2.59,2.59 0 0 1 2.32,4.05a1.86,1.86 0 0 1 -1.1,0.79a7,7 0 0 1 -1.72,0.06c-3.78,0 -7.56,0 -11.34,0c-2.86,0 -3.4,0.48 -3.41,3.23c0,8.71 0,17.43 0,26.14a25.32,25.32 0 0 0 0.68,5.61c1.51,6.42 7.8,9.14 13.61,6c0.75,-0.36 1.44,-0.79 2.21,-1.24z"/>
   <path id="svg_34" class="cls-13" d="m1154.130001,225.66c1.29,1.52 1.33,1.65 0.09,2.83a16.51,16.51 0 0 1 -10.33,4.7a25.23,25.23 0 0 1 -6.61,-0.34c-5.16,-1 -8,-4.23 -8.49,-9.47c-0.18,-1.79 -0.23,-3.61 -0.24,-5.41q0,-13.56 0,-27.12c0,-4.71 -0.25,-5.07 -4.74,-4.93a2.9,2.9 0 0 1 -1.22,-0.07a1.71,1.71 0 0 1 -0.94,-0.91a1.6,1.6 0 0 1 0.46,-1.25a3.2,3.2 0 0 1 1.32,-0.6a18.67,18.67 0 0 0 11,-9.28c0.5,-0.88 0.84,-2.19 2.26,-1.83c1.6,0.4 1.08,1.81 1.13,2.88c0.06,1.31 0,2.63 0,4c0.08,1.63 0.4,2 2.07,2.12s3.45,0.06 5.17,0.07c2.63,0 5.26,0 7.89,0a2.55,2.55 0 0 1 2.18,4.1a2.52,2.52 0 0 1 -1.85,0.76c-3.78,0.08 -7.56,0 -11.34,0c-4.12,0 -4.21,0.09 -4.21,4.08c0,8.22 0,16.44 0,24.66a30.46,30.46 0 0 0 0.55,6.11c1.4,6.48 7.63,9.28 13.5,6.19c0.85,-0.4 1.61,-0.87 2.35,-1.29z"/>
   <path id="svg_35" class="cls-13" d="m1307.180001,39.15c0.8,2.84 0,5.83 0.59,9.11c0.8,-0.5 1.39,-0.83 1.94,-1.22c2.3,-1.59 4.51,-3.31 6.88,-4.76a10.31,10.31 0 0 1 6.34,-1.65c3.22,0.28 5.17,2.52 4.92,5.59a5.26,5.26 0 0 1 -5.89,4.94a9.66,9.66 0 0 1 -2.49,-1a32.53,32.53 0 0 0 -3.6,-1.55a5.71,5.71 0 0 0 -7.21,3.5a14.09,14.09 0 0 0 -1,4.78c-0.09,9.2 -0.06,18.41 0,27.61a10,10 0 0 0 0.52,2.9a3.52,3.52 0 0 0 3.07,2.5c1.63,0.22 3.26,0.38 4.9,0.51c0.92,0.07 1.67,0.32 1.67,1.38s-0.79,1.44 -1.83,1.43q-10.61,-0.09 -21.2,-0.12c-0.91,0 -1.81,0 -2.71,0.08s-1.47,-0.24 -1.54,-1.19a1.32,1.32 0 0 1 1.17,-1.58c0.81,-0.13 1.62,-0.28 2.42,-0.46c2.7,-0.61 3.67,-1.63 3.93,-4.31c0.19,-1.88 0.32,-3.77 0.33,-5.65c0,-8.06 0,-16.12 0,-24.17c0,-0.82 -0.06,-1.64 -0.08,-2.46a5.87,5.87 0 0 0 -2.93,-5.11a8.77,8.77 0 0 1 -1.41,-1c-0.91,-0.86 -0.83,-1.79 0.29,-2.34c4,-2 8,-3.87 12,-5.78a3.11,3.11 0 0 1 0.92,0.02z"/>
   <path id="svg_36" class="cls-13" d="m1030.350001,67.15l0,-13.57c0,-0.66 0,-1.32 0,-2c-0.09,-4 -0.33,-4.19 -4.22,-4.25a6.44,6.44 0 0 1 -1.71,-0.09c-0.4,-0.12 -1,-0.55 -1,-0.87a2.3,2.3 0 0 1 0.63,-1.4a2.39,2.39 0 0 1 1.11,-0.47a18.52,18.52 0 0 0 11,-9.26c0.49,-0.87 0.79,-2.21 2.24,-1.83s1.1,1.8 1.15,2.88c0.06,1.32 0,2.64 0,4c0.09,1.59 0.49,2 2.08,2.18a20.32,20.32 0 0 0 2.21,0c3.7,0 7.4,0 11.1,0c1.74,0 2.32,0.69 2.34,2.42s-0.57,2.38 -2.32,2.4c-3.7,0 -7.4,0 -11.1,0a20.57,20.57 0 0 0 -2.22,0c-1.62,0.17 -2,0.52 -2.2,2.1a10.52,10.52 0 0 0 -0.1,1.48c0,9.2 0.1,18.41 0.2,27.62a17.31,17.31 0 0 0 0.48,3.65c1.49,6.42 7.76,9.23 13.58,6.11a6.72,6.72 0 0 1 1.48,-0.85c0.46,-0.11 1.25,0 1.46,0.26a1.9,1.9 0 0 1 -0.09,1.52a3.48,3.48 0 0 1 -1,1.07a16.74,16.74 0 0 1 -10,4.25a32.45,32.45 0 0 1 -4.93,0c-5.88,-0.48 -9.47,-4.06 -10,-9.93c-0.13,-1.39 -0.2,-2.79 -0.2,-4.18c0.01,-4.36 0.03,-8.8 0.03,-13.24z"/>
   <path id="svg_37" class="cls-13" d="m1115.250001,93.11c-0.81,-2.08 -0.68,-2.35 1.18,-2.73l1.44,-0.31c3.44,-0.73 4.47,-1.79 4.52,-5.36c0.13,-9.94 0.12,-19.88 0.23,-29.82c0,-3.13 -0.93,-5.53 -3.77,-7.19c-1.91,-1.12 -1.7,-2.13 0.27,-3.07c3.48,-1.67 7,-3.37 10.43,-5c0.49,-0.23 1,-0.36 1.7,-0.59c1,3 -0.1,6 0.86,9.13c0.64,-0.36 1.19,-0.6 1.67,-0.94c1.94,-1.39 3.77,-2.94 5.8,-4.17a25.52,25.52 0 0 1 4.94,-2.14a7,7 0 0 1 2.67,-0.24a5.13,5.13 0 0 1 4.8,3.62a5.65,5.65 0 0 1 -1.86,5.76a5.14,5.14 0 0 1 -6,0.44c-1.23,-0.64 -2.47,-1.27 -3.76,-1.79c-3.14,-1.26 -6.71,0.71 -7.77,4.12a12.48,12.48 0 0 0 -0.65,3.62c-0.07,9.44 -0.12,18.89 0,28.34c0,3.75 1.22,4.85 5,5.38c1.22,0.17 2.45,0.23 3.68,0.33a1.27,1.27 0 0 1 1.35,1.41a1.21,1.21 0 0 1 -1.38,1.34l-1,0l-23.17,0c-0.41,-0.05 -0.81,-0.11 -1.18,-0.14z"/>
   <path id="svg_38" class="cls-13" d="m1186.440001,229.19c0.4,2.41 0.29,2.62 -1.65,2.6c-2.88,-0.05 -5.75,-0.25 -8.63,-0.25c-3.94,0 -7.89,0.15 -11.83,0.24a4.38,4.38 0 0 1 -1.7,0a2.31,2.31 0 0 1 -1.19,-1.25c-0.22,-0.68 0.2,-1.26 1,-1.4c1,-0.17 2,-0.32 2.91,-0.51c2.51,-0.48 3.59,-1.56 3.9,-4.06a40.56,40.56 0 0 0 0.33,-4.67q0,-13.08 0,-26.14c0,-0.9 -0.11,-1.81 -0.18,-2.7a4.84,4.84 0 0 0 -2.19,-3.69a19.06,19.06 0 0 1 -2,-1.46a1.33,1.33 0 0 1 0.3,-2.38c4.3,-2 8.62,-4 13.24,-6.1a8.13,8.13 0 0 1 0.4,1.77c-0.12,13.8 -0.28,27.61 -0.4,41.42a30.61,30.61 0 0 0 0.25,4.17a4.19,4.19 0 0 0 3.88,3.84c1.16,0.14 2.29,0.35 3.56,0.57z"/>
   <path id="svg_39" class="cls-13" d="m583.080001,231.77l0,-2.52c1.32,-0.24 2.52,-0.47 3.72,-0.67a4.15,4.15 0 0 0 3.87,-3.83a30.45,30.45 0 0 0 0.26,-3.44c0,-9.53 0,-19.07 0,-28.6a6.25,6.25 0 0 0 -3.13,-6a6.86,6.86 0 0 1 -1.19,-0.87c-1,-0.91 -0.93,-1.78 0.22,-2.34c4.22,-2 8.46,-4 12.7,-6c0.12,-0.06 0.31,0 0.82,0.11c0,0.86 0.12,1.79 0.11,2.73c-0.13,13 -0.29,26 -0.4,38.95a36.59,36.59 0 0 0 0.33,4.91c0.4,3 1.34,3.87 4.39,4.41c0.65,0.11 1.29,0.28 1.94,0.34c1,0.09 1.6,0.46 1.52,1.52s-0.74,1.37 -1.7,1.3c-0.58,0 -1.15,0 -1.73,0l-21.73,0z"/>
   <path id="svg_40" class="cls-13" d="m691.310001,177.54c0.06,0.83 0.14,1.53 0.14,2.22l-0.24,41.89c0,0.41 0,0.82 0,1.23c0.12,3.91 1.43,5.57 5.13,5.86c0.49,0 1,0.23 1.45,0.27a1.32,1.32 0 0 1 1.36,1.64c-0.1,1 -0.74,1.18 -1.57,1.16c-2,-0.05 -3.94,-0.13 -5.91,-0.13q-7.64,0 -15.27,0.11c-2.13,0 -2.58,-0.2 -2.61,-1.34c0,-1.68 1.35,-1.39 2.29,-1.58c4.9,-1 5.52,-1.48 5.67,-6.38c0.2,-6.48 0.14,-13 0.17,-19.46c0,-3.37 0,-6.73 0,-10.1c0,-2.77 -0.87,-5 -3.37,-6.37a4.76,4.76 0 0 1 -1,-0.71c-0.91,-0.9 -0.8,-1.73 0.28,-2.37l0.22,-0.12l12.25,-5.74a5,5 0 0 1 1.01,-0.08z"/>
   <path id="svg_41" class="cls-13" d="m1361.870001,177.36c0.06,1 0.14,1.7 0.14,2.39c-0.12,12.82 -0.27,25.63 -0.38,38.44c0,1.89 0.1,3.78 0.26,5.66c0.24,3.07 1.34,4.24 4.31,4.78c0.65,0.12 1.29,0.28 1.94,0.34c1,0.11 1.76,0.44 1.62,1.66s-0.92,1.2 -1.8,1.18c-1.81,-0.06 -3.61,-0.13 -5.42,-0.13c-4.93,0 -9.85,0.06 -14.78,0.09c-0.66,0 -1.31,0 -2,0a1.22,1.22 0 0 1 -1.39,-1.34a1.18,1.18 0 0 1 1.07,-1.39c0.81,-0.12 1.62,-0.29 2.43,-0.43c3.13,-0.54 4.2,-1.7 4.42,-4.91c0.12,-1.8 0.21,-3.61 0.22,-5.42c0,-7.89 0,-15.77 0,-23.66c0,-0.82 -0.11,-1.64 -0.08,-2.46a5.88,5.88 0 0 0 -3.11,-5.49a6.89,6.89 0 0 1 -1.2,-0.86c-0.94,-0.89 -0.88,-1.8 0.28,-2.34c4.36,-1.98 8.69,-3.93 13.47,-6.11z"/>
   <path id="svg_42" class="cls-13" d="m1173.200001,164.19a6.18,6.18 0 0 1 -6.33,-6.35a6.62,6.62 0 0 1 6.73,-6.68c3.65,0 6.31,2.87 6.27,6.73s-2.65,6.33 -6.67,6.3z"/>
   <path id="svg_43" class="cls-13" d="m1356.220001,164.18a6.06,6.06 0 0 1 -6.38,-6.29a6.52,6.52 0 0 1 6.67,-6.71a6.33,6.33 0 0 1 6.36,6.66c-0.07,3.9 -2.66,6.36 -6.65,6.34z"/>
   <path id="svg_44" class="cls-13" d="m685.770001,164.19a6.12,6.12 0 0 1 -6.53,-6.17a6.57,6.57 0 0 1 6.79,-6.84a6.3,6.3 0 0 1 6.22,6.56c0.01,3.9 -2.52,6.42 -6.48,6.45z"/>
   <path id="svg_45" class="cls-13" d="m594.770001,164.18c-3.82,0 -6.4,-2.46 -6.43,-6.19a6.45,6.45 0 0 1 6.51,-6.81c3.67,-0.08 6.38,2.72 6.38,6.59s-2.48,6.4 -6.46,6.41z"/>
  </g>
 </g>
</svg>